<?xml version="1.0" encoding="UTF-8"?>
<svg width="1122" height="1122" viewBox="0 0 1122 1122" xmlns="http://www.w3.org/2000/svg" xmlns:xlink="http://www.w3.org/1999/xlink"><g class="drawing-elements"><g id="Bg">
	
</g><g id="Shadow">
	<g id="XMLID_64_" style="opacity:0.46;">
	</g>
	
</g><g id="Object">
	<g>
		<g>
			<path style="fill:#282828;" d="M699.841,802.171c-0.006,0.316-0.01,0.632-0.022,0.949c-0.013,0.324-0.035,0.649-0.055,0.973     c-0.019,0.316-0.035,0.632-0.061,0.948c-0.026,0.325-0.062,0.649-0.095,0.974c-0.032,0.315-0.061,0.631-0.1,0.946     c-0.04,0.326-0.089,0.651-0.135,0.976c-0.045,0.314-0.086,0.627-0.138,0.94c-0.053,0.325-0.116,0.65-0.176,0.975     c-0.058,0.313-0.112,0.627-0.176,0.94c-0.066,0.323-0.143,0.646-0.216,0.97c-0.071,0.313-0.138,0.626-0.216,0.939     c-0.08,0.323-0.169,0.644-0.256,0.967c-0.084,0.313-0.164,0.625-0.255,0.937c-0.093,0.322-0.196,0.643-0.296,0.964     c-0.097,0.311-0.19,0.622-0.293,0.933c-0.108,0.324-0.225,0.646-0.34,0.969c-0.108,0.306-0.213,0.613-0.328,0.918     c-0.122,0.325-0.254,0.649-0.383,0.973c-0.121,0.303-0.237,0.607-0.364,0.91c-0.135,0.323-0.281,0.645-0.424,0.968     c-0.133,0.302-0.262,0.604-0.402,0.904c-0.15,0.323-0.31,0.645-0.467,0.967c-0.145,0.299-0.286,0.598-0.438,0.896     c-0.163,0.321-0.337,0.64-0.507,0.961c-0.158,0.298-0.312,0.596-0.477,0.893c-0.176,0.317-0.362,0.633-0.545,0.949     c-0.172,0.298-0.339,0.596-0.518,0.893c-0.191,0.318-0.393,0.633-0.591,0.95c-0.183,0.292-0.361,0.585-0.55,0.876     c-0.206,0.317-0.422,0.632-0.635,0.948c-0.195,0.29-0.386,0.581-0.587,0.869c-0.217,0.312-0.446,0.622-0.671,0.933     c-0.209,0.29-0.414,0.58-0.629,0.868c-0.231,0.31-0.474,0.618-0.713,0.926c-0.222,0.287-0.438,0.574-0.666,0.86     c-0.247,0.31-0.507,0.618-0.761,0.927c-0.232,0.281-0.458,0.562-0.695,0.842c-0.264,0.311-0.541,0.62-0.813,0.929     c-0.241,0.275-0.477,0.55-0.724,0.824c-0.276,0.306-0.565,0.609-0.849,0.914c-0.256,0.274-0.506,0.55-0.768,0.823     c-0.291,0.304-0.595,0.604-0.893,0.906c-0.267,0.269-0.528,0.541-0.8,0.809c-0.307,0.303-0.627,0.602-0.942,0.903     c-0.278,0.265-0.549,0.531-0.833,0.795c-0.324,0.302-0.661,0.6-0.993,0.9c-0.286,0.258-0.566,0.518-0.858,0.775     c-0.345,0.304-0.702,0.604-1.055,0.905c-0.293,0.25-0.579,0.502-0.877,0.751c-0.362,0.302-0.736,0.599-1.105,0.899     c-0.302,0.245-0.598,0.491-0.905,0.734c-0.38,0.301-0.773,0.597-1.162,0.896c-0.31,0.238-0.613,0.478-0.928,0.714     c-0.399,0.3-0.812,0.595-1.22,0.892c-0.317,0.231-0.628,0.464-0.95,0.694c-0.422,0.3-0.857,0.596-1.287,0.894     c-0.321,0.222-0.635,0.447-0.961,0.667c-0.457,0.309-0.927,0.614-1.393,0.92c-0.312,0.205-0.617,0.412-0.933,0.615     c-0.538,0.346-1.09,0.687-1.64,1.029c-0.257,0.159-0.506,0.321-0.766,0.48c-0.815,0.499-1.644,0.992-2.486,1.481     c-1.503,0.873-3.041,1.714-4.595,2.539c-0.366,0.194-0.733,0.388-1.102,0.58c-1.547,0.804-3.112,1.59-4.705,2.347     c-0.162,0.077-0.328,0.149-0.49,0.226c-1.526,0.718-3.073,1.412-4.638,2.086c-0.276,0.119-0.55,0.24-0.827,0.357     c-1.622,0.688-3.265,1.351-4.926,1.993c-0.316,0.122-0.634,0.243-0.952,0.363c-1.663,0.631-3.342,1.243-5.041,1.828     c-0.64,0.221-1.293,0.424-1.938,0.638c-1.251,0.415-2.503,0.829-3.771,1.22c-0.763,0.235-1.537,0.455-2.306,0.681     c-1.194,0.351-2.388,0.701-3.596,1.031c-0.651,0.178-1.306,0.347-1.96,0.519c-1.27,0.333-2.547,0.656-3.831,0.965     c-0.679,0.164-1.359,0.327-2.041,0.484c-1.485,0.342-2.977,0.669-4.478,0.98c-0.398,0.082-0.792,0.172-1.191,0.252     c-1.906,0.384-3.823,0.742-5.751,1.076c-0.445,0.077-0.893,0.146-1.339,0.221c-1.518,0.253-3.042,0.492-4.572,0.715     c-0.559,0.082-1.118,0.163-1.679,0.241c-1.862,0.257-3.729,0.498-5.604,0.71c-0.071,0.008-0.141,0.018-0.212,0.026     c-1.947,0.218-3.903,0.404-5.862,0.574c-0.536,0.046-1.073,0.089-1.61,0.131c-1.594,0.127-3.192,0.238-4.792,0.333     c-0.417,0.025-0.834,0.055-1.252,0.077c-1.96,0.106-3.922,0.187-5.887,0.245c-0.46,0.013-0.92,0.019-1.38,0.03     c-1.556,0.037-3.114,0.058-4.671,0.064c-0.594,0.003-1.188,0.005-1.782,0.003c-1.79-0.006-3.579-0.029-5.368-0.074     c-0.209-0.005-0.419-0.006-0.628-0.012c-2.009-0.056-4.017-0.143-6.022-0.25c-0.582-0.031-1.162-0.071-1.743-0.106     c-1.421-0.086-2.84-0.184-4.256-0.296c-0.779-0.061-1.557-0.127-2.335-0.196c-1.318-0.117-2.633-0.247-3.947-0.386     c-0.746-0.079-1.492-0.155-2.236-0.241c-1.201-0.139-2.396-0.298-3.592-0.455c-0.961-0.126-1.922-0.247-2.879-0.386     c-1.184-0.171-2.36-0.363-3.538-0.552c-0.932-0.15-1.866-0.292-2.793-0.453c-1.811-0.315-3.614-0.651-5.406-1.009     c-0.372-0.074-0.741-0.153-1.112-0.229c-1.763-0.363-3.517-0.743-5.259-1.148c-0.166-0.039-0.333-0.074-0.498-0.112     c-1.73-0.407-3.443-0.845-5.149-1.294c-0.852-0.224-1.698-0.459-2.544-0.694c-1.125-0.312-2.246-0.63-3.359-0.96     c-0.848-0.252-1.691-0.511-2.532-0.774c-1.096-0.342-2.186-0.694-3.27-1.054c-0.832-0.277-1.661-0.557-2.485-0.845     c-1.078-0.376-2.147-0.765-3.211-1.16c-0.806-0.299-1.611-0.597-2.408-0.907c-1.072-0.416-2.13-0.848-3.185-1.283     c-0.764-0.315-1.531-0.625-2.287-0.951c-1.089-0.468-2.159-0.956-3.229-1.445c-0.698-0.319-1.403-0.63-2.093-0.957     c-1.167-0.554-2.311-1.133-3.454-1.713c-0.567-0.288-1.145-0.563-1.706-0.857c-1.691-0.886-3.356-1.796-4.989-2.739     c-0.853-0.492-1.691-0.989-2.517-1.491c-0.306-0.186-0.601-0.375-0.903-0.563c-0.514-0.318-1.031-0.634-1.534-0.956     c-0.37-0.237-0.728-0.477-1.093-0.716c-0.422-0.276-0.85-0.551-1.265-0.83c-0.401-0.27-0.789-0.544-1.183-0.815     c-0.365-0.252-0.736-0.502-1.094-0.756c-0.359-0.254-0.705-0.512-1.058-0.768c-0.381-0.277-0.768-0.551-1.142-0.83     c-0.467-0.348-0.921-0.701-1.378-1.053c-0.246-0.19-0.499-0.378-0.741-0.568c-0.542-0.426-1.071-0.856-1.597-1.286     c-0.146-0.119-0.296-0.237-0.441-0.357c-0.312-0.258-0.612-0.52-0.918-0.78c-0.09-0.076-0.181-0.153-0.27-0.229     c-0.193-0.165-0.391-0.329-0.582-0.494c-0.062-0.054-0.126-0.108-0.188-0.162c-0.3-0.263-0.589-0.528-0.883-0.792     c-0.333-0.299-0.671-0.596-0.997-0.897c-0.452-0.417-0.89-0.838-1.328-1.259c-0.145-0.14-0.296-0.278-0.439-0.418     c-0.57-0.556-1.127-1.115-1.672-1.678c-0.027-0.028-0.053-0.055-0.079-0.083c-0.517-0.535-1.022-1.073-1.517-1.613     c-0.041-0.045-0.082-0.09-0.123-0.135c-0.466-0.512-0.921-1.026-1.366-1.543c-0.064-0.075-0.13-0.149-0.194-0.224     c-0.243-0.284-0.475-0.57-0.713-0.856c-0.256-0.308-0.517-0.615-0.765-0.924c-0.296-0.368-0.58-0.738-0.866-1.108     c-0.178-0.23-0.361-0.46-0.535-0.691c-0.218-0.29-0.426-0.582-0.638-0.873c-0.229-0.314-0.462-0.627-0.684-0.942     c-0.205-0.292-0.399-0.585-0.598-0.878c-0.215-0.316-0.434-0.632-0.642-0.949c-0.297-0.453-0.582-0.909-0.864-1.364     c-0.099-0.159-0.2-0.318-0.297-0.477c-0.182-0.3-0.353-0.601-0.529-0.902c-0.185-0.317-0.374-0.634-0.552-0.952     c-0.169-0.302-0.327-0.604-0.489-0.907c-0.172-0.32-0.348-0.639-0.513-0.96c-0.23-0.449-0.45-0.899-0.667-1.349     c-0.085-0.176-0.172-0.352-0.255-0.528c-0.142-0.304-0.274-0.609-0.41-0.914c-0.144-0.322-0.291-0.643-0.428-0.965     c-0.131-0.31-0.252-0.62-0.377-0.93c-0.13-0.323-0.264-0.647-0.387-0.971c-0.15-0.395-0.289-0.79-0.428-1.186     c-0.084-0.239-0.172-0.477-0.253-0.717c-0.105-0.311-0.199-0.622-0.297-0.934c-0.059-0.187-0.122-0.373-0.178-0.56     c-0.021-0.069-0.045-0.138-0.066-0.208c-0.021-0.07-0.04-0.141-0.06-0.211c-0.091-0.311-0.172-0.622-0.257-0.933     c-0.09-0.328-0.182-0.656-0.265-0.984c-0.078-0.312-0.147-0.625-0.219-0.937c-0.076-0.328-0.154-0.656-0.223-0.985     c-0.104-0.497-0.198-0.993-0.286-1.491c-0.026-0.145-0.052-0.29-0.076-0.435c-0.053-0.315-0.096-0.631-0.142-0.947     c-0.048-0.327-0.099-0.654-0.14-0.982c-0.04-0.316-0.07-0.632-0.103-0.948c-0.034-0.329-0.072-0.657-0.099-0.986     c-0.036-0.427-0.062-0.853-0.086-1.279c-0.012-0.218-0.027-0.437-0.036-0.655c-0.014-0.316-0.018-0.631-0.025-0.947     c-0.007-0.329-0.017-0.658-0.018-0.987c0-0.066-0.004-0.131-0.004-0.197l-0.116,40.758c-0.003,0.898,0.03,1.797,0.079,2.695     c0.003,0.058,0.007,0.116,0.01,0.174c0.009,0.157,0.017,0.315,0.028,0.472c0.054,0.788,0.122,1.575,0.216,2.362     c0.004,0.032,0.006,0.064,0.01,0.096c0.099,0.816,0.226,1.631,0.368,2.446c0.014,0.078,0.029,0.157,0.043,0.235     c0.026,0.146,0.053,0.292,0.081,0.437c0.122,0.648,0.258,1.295,0.407,1.942c0.041,0.178,0.078,0.356,0.121,0.533     c0.194,0.798,0.408,1.594,0.643,2.39c0.014,0.046,0.029,0.092,0.043,0.138c0.04,0.135,0.084,0.269,0.126,0.404     c0.199,0.645,0.411,1.289,0.637,1.932c0.077,0.219,0.153,0.439,0.233,0.658c0.292,0.798,0.599,1.595,0.934,2.389     c0.003,0.007,0.006,0.014,0.009,0.02c0.016,0.037,0.033,0.074,0.049,0.111c0.327,0.77,0.679,1.537,1.045,2.302     c0.105,0.219,0.212,0.437,0.32,0.655c0.351,0.71,0.717,1.417,1.103,2.122c0.043,0.079,0.083,0.159,0.127,0.238     c0.013,0.023,0.024,0.046,0.037,0.069c0.46,0.83,0.95,1.656,1.458,2.479c0.124,0.201,0.251,0.402,0.378,0.602     c0.489,0.772,0.993,1.542,1.524,2.307c0.035,0.05,0.067,0.1,0.101,0.15c0.01,0.013,0.018,0.027,0.028,0.041     c0.617,0.883,1.271,1.76,1.945,2.633c0.139,0.18,0.278,0.361,0.42,0.541c0.673,0.854,1.369,1.704,2.096,2.548     c0.037,0.043,0.076,0.086,0.114,0.129c0.237,0.274,0.48,0.547,0.723,0.82c0.211,0.237,0.418,0.474,0.633,0.71     c0.324,0.355,0.659,0.708,0.994,1.061c0.202,0.214,0.4,0.429,0.606,0.642c0.4,0.414,0.813,0.825,1.226,1.235     c0.15,0.149,0.295,0.3,0.447,0.449c0.563,0.551,1.139,1.098,1.727,1.642c0.008,0.007,0.014,0.014,0.022,0.021     c0.684,0.633,1.387,1.26,2.103,1.885c0.219,0.191,0.446,0.379,0.668,0.569c0.509,0.435,1.024,0.869,1.549,1.3     c0.274,0.225,0.553,0.448,0.832,0.671c0.497,0.399,1.002,0.796,1.514,1.191c0.289,0.223,0.579,0.447,0.873,0.669     c0.548,0.414,1.106,0.824,1.669,1.233c0.194,0.14,0.384,0.282,0.58,0.421c0.075,0.054,0.147,0.108,0.222,0.162     c0.439,0.313,0.889,0.622,1.338,0.932c0.333,0.23,0.661,0.461,0.999,0.689c0.478,0.323,0.969,0.642,1.457,0.962     c0.321,0.21,0.637,0.422,0.962,0.631c0.551,0.353,1.115,0.701,1.678,1.05c0.277,0.171,0.548,0.345,0.828,0.516     c0.849,0.517,1.712,1.029,2.589,1.535c1.632,0.942,3.298,1.853,4.989,2.739c0.561,0.294,1.139,0.57,1.706,0.857     c1.143,0.58,2.287,1.158,3.454,1.713c0.69,0.328,1.396,0.639,2.095,0.958c1.069,0.488,2.139,0.976,3.227,1.444     c0.756,0.325,1.525,0.636,2.29,0.951c1.055,0.435,2.112,0.867,3.183,1.282c0.798,0.31,1.604,0.609,2.41,0.908     c1.063,0.395,2.131,0.783,3.209,1.159c0.825,0.288,1.655,0.569,2.487,0.846c1.083,0.36,2.172,0.711,3.267,1.053     c0.841,0.263,1.685,0.523,2.534,0.774c1.112,0.33,2.233,0.648,3.357,0.96c0.847,0.235,1.693,0.47,2.546,0.695     c0.356,0.094,0.716,0.178,1.073,0.27c1.354,0.348,2.705,0.702,4.074,1.024c0.166,0.039,0.334,0.074,0.5,0.113     c1.741,0.405,3.494,0.785,5.256,1.147c0.371,0.076,0.742,0.155,1.114,0.229c1.589,0.318,3.189,0.611,4.792,0.895     c0.205,0.036,0.408,0.079,0.613,0.114c0.928,0.162,1.863,0.304,2.795,0.454c1.177,0.189,2.352,0.381,3.536,0.552     c0.957,0.138,1.919,0.26,2.88,0.386c0.858,0.113,1.717,0.223,2.578,0.326c0.338,0.041,0.674,0.089,1.013,0.128     c0.744,0.086,1.491,0.163,2.237,0.241c1.313,0.139,2.628,0.269,3.946,0.386c0.778,0.069,1.556,0.135,2.336,0.196     c0.519,0.041,1.039,0.071,1.559,0.108c0.899,0.065,1.797,0.133,2.697,0.187c0.581,0.035,1.162,0.075,1.743,0.107     c1.956,0.104,3.913,0.188,5.873,0.244c0.049,0.001,0.099,0.005,0.148,0.006c0.209,0.006,0.419,0.006,0.628,0.011     c1.789,0.046,3.578,0.069,5.368,0.074c0.594,0.002,1.188-0.001,1.782-0.003c0.633-0.003,1.266-0.019,1.899-0.026     c0.924-0.011,1.848-0.017,2.772-0.038c0.46-0.011,0.92-0.017,1.38-0.03c1.79-0.052,3.577-0.13,5.363-0.223     c0.174-0.009,0.35-0.013,0.524-0.022c0.418-0.023,0.834-0.052,1.251-0.077c1.6-0.095,3.198-0.206,4.793-0.333     c0.537-0.043,1.073-0.085,1.609-0.131c0.39-0.034,0.777-0.078,1.166-0.114c1.568-0.143,3.137-0.285,4.697-0.459     c0.07-0.008,0.14-0.018,0.211-0.026c1.464-0.166,2.919-0.362,4.375-0.555c0.409-0.055,0.822-0.1,1.23-0.156     c0.56-0.077,1.12-0.159,1.678-0.24c1.53-0.223,3.054-0.462,4.573-0.715c0.446-0.074,0.893-0.143,1.338-0.221     c0.187-0.032,0.371-0.071,0.557-0.104c1.739-0.306,3.472-0.625,5.192-0.971c0.401-0.081,0.797-0.17,1.196-0.253     c1.082-0.225,2.154-0.466,3.228-0.706c0.415-0.093,0.833-0.177,1.247-0.273c0.682-0.157,1.361-0.32,2.04-0.484     c1.284-0.31,2.561-0.632,3.832-0.965c0.654-0.172,1.309-0.341,1.96-0.519c0.336-0.092,0.666-0.193,1.001-0.287     c0.869-0.242,1.734-0.491,2.596-0.744c0.769-0.227,1.542-0.446,2.305-0.681c1.268-0.391,2.52-0.805,3.771-1.22     c0.645-0.214,1.298-0.417,1.938-0.638c0.104-0.036,0.204-0.076,0.307-0.111c1.594-0.552,3.172-1.125,4.735-1.717     c0.317-0.12,0.634-0.241,0.949-0.362c1.661-0.642,3.305-1.306,4.928-1.994c0.276-0.117,0.55-0.238,0.825-0.356     c0.589-0.254,1.163-0.526,1.747-0.786c0.967-0.431,1.941-0.854,2.893-1.301c0.162-0.076,0.328-0.149,0.49-0.226     c1.593-0.756,3.158-1.543,4.705-2.347c0.369-0.192,0.736-0.386,1.102-0.58c1.554-0.825,3.092-1.665,4.595-2.538     c26.842-15.599,40.278-36.012,40.336-56.456l0.115-40.758C699.859,801.654,699.846,801.912,699.841,802.171z"/>
			<path style="fill:#333333;" d="M699.84,802.17c-0.01,0.32-0.01,0.63-0.019,0.95c-0.01,0.32-0.04,0.65-0.061,0.97     c-0.02,0.32-0.03,0.63-0.06,0.95c-0.02,0.33-0.06,0.65-0.09,0.97c-0.03,0.32-0.06,0.64-0.1,0.95c-0.039,0.33-0.09,0.65-0.14,0.98     c-0.04,0.31-0.08,0.62-0.13,0.94c-0.06,0.32-0.12,0.65-0.18,0.97c-0.06,0.31-0.11,0.63-0.18,0.94     c-0.059,0.32-0.14,0.65-0.21,0.97c-0.07,0.31-0.14,0.63-0.22,0.94c-0.08,0.32-0.17,0.64-0.25,0.97     c-0.09,0.31-0.17,0.62-0.26,0.93c-0.09,0.33-0.19,0.65-0.29,0.97c-0.1,0.31-0.19,0.62-0.3,0.93c-0.11,0.32-0.22,0.65-0.34,0.97     c-0.11,0.311-0.21,0.61-0.32,0.92c-0.13,0.32-0.26,0.65-0.39,0.97c-0.12,0.3-0.24,0.61-0.36,0.91c-0.14,0.32-0.28,0.65-0.43,0.97     c-0.13,0.3-0.26,0.6-0.4,0.9c-0.15,0.33-0.31,0.65-0.46,0.97c-0.15,0.3-0.29,0.6-0.44,0.9c-0.17,0.32-0.34,0.64-0.51,0.96     c-0.16,0.29-0.31,0.59-0.48,0.89c-0.17,0.32-0.36,0.63-0.54,0.95c-0.17,0.3-0.34,0.6-0.52,0.89c-0.19,0.32-0.39,0.64-0.59,0.95     c-0.18,0.29-0.36,0.59-0.55,0.88c-0.21,0.32-0.42,0.63-0.63,0.95c-0.2,0.29-0.39,0.58-0.59,0.87c-0.22,0.31-0.45,0.62-0.67,0.93     c-0.21,0.29-0.42,0.58-0.63,0.87c-0.23,0.31-0.48,0.61-0.71,0.92c-0.23,0.29-0.44,0.58-0.67,0.86c-0.25,0.31-0.51,0.62-0.76,0.93     c-0.23,0.28-0.46,0.56-0.7,0.84c-0.26,0.31-0.54,0.62-0.81,0.93c-0.24,0.27-0.48,0.55-0.72,0.82c-0.28,0.31-0.57,0.61-0.85,0.92     c-0.26,0.27-0.51,0.55-0.771,0.82c-0.289,0.3-0.6,0.6-0.89,0.91c-0.27,0.27-0.53,0.54-0.8,0.81c-0.311,0.3-0.63,0.6-0.95,0.9     c-0.27,0.26-0.55,0.53-0.83,0.79c-0.32,0.31-0.66,0.6-0.99,0.9c-0.29,0.26-0.57,0.52-0.86,0.78c-0.34,0.3-0.7,0.6-1.05,0.9     c-0.3,0.25-0.58,0.51-0.88,0.75c-0.36,0.31-0.74,0.6-1.11,0.9c-0.3,0.25-0.6,0.49-0.9,0.74c-0.38,0.3-0.78,0.6-1.16,0.89     l-0.93,0.72c-0.4,0.3-0.81,0.59-1.22,0.89c-0.32,0.23-0.63,0.46-0.95,0.69c-0.42,0.3-0.86,0.6-1.29,0.9     c-0.32,0.22-0.63,0.44-0.96,0.67c-0.46,0.3-0.93,0.61-1.39,0.92c-0.32,0.2-0.62,0.41-0.94,0.61c-0.53,0.35-1.09,0.69-1.64,1.03     c-0.25,0.16-0.5,0.32-0.76,0.48c-0.82,0.5-1.65,0.99-2.49,1.48c-1.5,0.87-3.04,1.71-4.59,2.54c-0.37,0.19-0.74,0.39-1.11,0.58     c-1.54,0.8-3.11,1.59-4.7,2.35c-0.16,0.07-0.33,0.15-0.49,0.22c-1.53,0.72-3.07,1.41-4.64,2.09c-0.27,0.12-0.55,0.24-0.83,0.36     c-1.62,0.68-3.26,1.35-4.92,1.99c-0.32,0.12-0.64,0.24-0.95,0.36c-1.67,0.63-3.35,1.24-5.04,1.83c-0.64,0.22-1.3,0.42-1.94,0.64     c-1.25,0.41-2.5,0.83-3.77,1.22c-0.77,0.23-1.54,0.45-2.31,0.68c-1.19,0.35-2.39,0.7-3.59,1.03c-0.66,0.18-1.31,0.35-1.96,0.52     c-1.27,0.33-2.55,0.65-3.84,0.96c-0.67,0.17-1.35,0.33-2.04,0.49c-1.479,0.34-2.97,0.67-4.47,0.98c-0.4,0.08-0.8,0.17-1.19,0.25     c-1.91,0.38-3.83,0.74-5.76,1.08c-0.44,0.07-0.89,0.14-1.34,0.22c-1.51,0.25-3.04,0.49-4.57,0.71c-0.56,0.08-1.12,0.17-1.68,0.24     c-1.86,0.26-3.72,0.5-5.6,0.71c-0.07,0.01-0.14,0.02-0.21,0.03c-1.95,0.22-3.91,0.4-5.86,0.57c-0.54,0.05-1.08,0.09-1.61,0.13     c-1.6,0.13-3.2,0.24-4.8,0.34c-0.41,0.02-0.83,0.05-1.25,0.07c-1.96,0.11-3.92,0.19-5.89,0.25c-0.461,0.01-0.92,0.02-1.38,0.03     c-1.55,0.04-3.11,0.06-4.67,0.06c-0.59,0.01-1.18,0.01-1.78,0.01c-1.79-0.01-3.58-0.03-5.37-0.08c-0.21,0-0.42,0-0.63-0.01     c-2-0.06-4.01-0.14-6.02-0.25c-0.58-0.03-1.16-0.07-1.74-0.11c-1.42-0.08-2.84-0.18-4.26-0.29c-0.78-0.06-1.55-0.13-2.33-0.2     c-1.32-0.11-2.63-0.24-3.95-0.38c-0.74-0.08-1.49-0.16-2.23-0.24c-1.21-0.14-2.4-0.3-3.6-0.46c-0.96-0.13-1.92-0.25-2.88-0.38     c-1.18-0.18-2.36-0.37-3.53-0.56c-0.93-0.15-1.87-0.29-2.8-0.45c-1.81-0.32-3.61-0.65-5.4-1.01c-0.37-0.07-0.74-0.15-1.11-0.23     c-1.77-0.36-3.52-0.74-5.26-1.15c-0.17-0.04-0.34-0.07-0.5-0.11c-1.73-0.41-3.44-0.84-5.15-1.29c-0.85-0.23-1.7-0.46-2.54-0.7     c-1.13-0.31-2.25-0.63-3.36-0.96c-0.85-0.25-1.69-0.51-2.54-0.77c-1.09-0.34-2.18-0.7-3.27-1.06c-0.83-0.27-1.66-0.55-2.48-0.84     c-1.08-0.38-2.15-0.77-3.21-1.16c-0.81-0.3-1.61-0.6-2.41-0.91c-1.07-0.41-2.13-0.85-3.19-1.28c-0.76-0.32-1.53-0.63-2.28-0.95     c-1.09-0.47-2.16-0.96-3.23-1.45c-0.7-0.31-1.4-0.63-2.09-0.95c-1.17-0.56-2.31-1.14-3.46-1.72c-0.56-0.28-1.14-0.56-1.7-0.85     c-1.69-0.89-3.36-1.8-4.99-2.74c-0.85-0.49-1.69-0.99-2.52-1.49c-0.31-0.19-0.6-0.38-0.9-0.57c-0.52-0.31-1.03-0.63-1.54-0.95     c-0.37-0.24-0.73-0.48-1.09-0.72c-0.42-0.27-0.85-0.55-1.27-0.83c-0.4-0.27-0.78-0.54-1.18-0.81c-0.36-0.25-0.73-0.5-1.09-0.76     c-0.36-0.25-0.71-0.51-1.06-0.77c-0.38-0.27-0.77-0.55-1.14-0.83c-0.47-0.34-0.92-0.7-1.38-1.05c-0.25-0.19-0.5-0.38-0.74-0.57     c-0.54-0.42-1.07-0.85-1.6-1.28c-0.14-0.12-0.29-0.24-0.44-0.36c-0.31-0.26-0.61-0.52-0.92-0.78c-0.09-0.08-0.18-0.15-0.27-0.23     c-0.19-0.17-0.39-0.33-0.58-0.49c-0.06-0.06-0.12-0.11-0.189-0.17c-0.3-0.26-0.59-0.52-0.88-0.79c-0.33-0.3-0.67-0.6-1-0.9     c-0.45-0.41-0.89-0.83-1.32-1.25c-0.15-0.14-0.3-0.28-0.44-0.42c-0.57-0.56-1.13-1.12-1.68-1.68c-0.02-0.03-0.05-0.06-0.07-0.08     c-0.52-0.54-1.03-1.08-1.52-1.62c-0.04-0.04-0.08-0.09-0.12-0.13c-0.47-0.51-0.93-1.03-1.37-1.54c-0.07-0.08-0.13-0.15-0.2-0.23     c-0.24-0.28-0.47-0.57-0.71-0.85c-0.25-0.31-0.51-0.62-0.76-0.93c-0.3-0.37-0.58-0.74-0.87-1.11c-0.18-0.23-0.36-0.46-0.53-0.69     c-0.22-0.29-0.43-0.58-0.64-0.87c-0.23-0.31-0.46-0.63-0.69-0.94c-0.2-0.29-0.39-0.59-0.59-0.88c-0.22-0.32-0.44-0.63-0.65-0.95     c-0.29-0.45-0.58-0.91-0.86-1.36c-0.1-0.16-0.2-0.32-0.3-0.48c-0.18-0.3-0.35-0.6-0.52-0.9c-0.19-0.32-0.38-0.64-0.56-0.96     c-0.17-0.3-0.32-0.6-0.49-0.9c-0.17-0.32-0.34-0.64-0.51-0.96c-0.23-0.45-0.45-0.9-0.66-1.35c-0.09-0.18-0.18-0.35-0.26-0.53     c-0.14-0.3-0.27-0.61-0.41-0.91c-0.14-0.32-0.29-0.65-0.43-0.97c-0.13-0.31-0.25-0.62-0.37-0.93c-0.13-0.32-0.27-0.65-0.39-0.97     c-0.15-0.39-0.29-0.79-0.43-1.19c-0.08-0.23-0.17-0.47-0.25-0.71c-0.11-0.31-0.2-0.62-0.3-0.94c-0.06-0.18-0.12-0.37-0.18-0.56     c-0.02-0.07-0.04-0.13-0.06-0.2c-0.03-0.07-0.04-0.14-0.07-0.21c-0.09-0.31-0.17-0.63-0.25-0.94c-0.09-0.32-0.18-0.65-0.27-0.98     c-0.08-0.31-0.14-0.63-0.22-0.94c-0.07-0.33-0.15-0.65-0.22-0.98c-0.1-0.5-0.2-1-0.28-1.49c-0.03-0.15-0.06-0.29-0.08-0.439     c-0.05-0.311-0.1-0.63-0.14-0.95c-0.05-0.32-0.1-0.65-0.14-0.98c-0.04-0.31-0.07-0.63-0.11-0.95c-0.03-0.32-0.07-0.65-0.1-0.98     c-0.03-0.43-0.06-0.85-0.08-1.28c-0.01-0.22-0.03-0.44-0.04-0.66c-0.01-0.31-0.02-0.63-0.02-0.94c-0.01-0.33-0.02-0.66-0.02-0.99     c-0.03-20.51,13.4-41,40.33-56.65c0.25-0.15,0.51-0.29,0.76-0.43c49.46-28.32,126.7-30.62,180.94-6.9     c5.01,2.18,9.83,4.59,14.41,7.23c0.06,0.03,0.12,0.07,0.18,0.1c23.37,13.49,36.75,30.59,40.12,48.18     C699.621,795.6,699.901,798.89,699.84,802.17z"/>
		</g>
		<g>
			<g style="enable-background:new    ;">
				<path style="fill:#282828;" d="M663.55,763.176c-0.009,0.301-0.048,0.602-0.065,0.904c-0.029,0.517-0.059,1.034-0.111,1.55      c-0.045,0.449-0.107,0.896-0.169,1.344c-0.071,0.513-0.147,1.026-0.242,1.539c-0.034,0.182-0.049,0.365-0.086,0.547      c-0.054,0.271-0.136,0.539-0.197,0.809c-0.112,0.499-0.23,0.997-0.364,1.495c-0.122,0.453-0.257,0.904-0.397,1.356      c-0.154,0.495-0.315,0.989-0.491,1.482c-0.074,0.21-0.13,0.421-0.208,0.629c-0.087,0.233-0.201,0.463-0.293,0.695      c-0.206,0.519-0.424,1.036-0.655,1.553c-0.193,0.433-0.394,0.865-0.604,1.296c-0.251,0.514-0.518,1.026-0.794,1.538      c-0.134,0.248-0.245,0.499-0.385,0.746c-0.094,0.166-0.21,0.329-0.307,0.496c-0.354,0.61-0.734,1.215-1.124,1.818      c-0.237,0.367-0.465,0.734-0.715,1.098c-0.456,0.666-0.947,1.325-1.447,1.984c-0.184,0.242-0.343,0.489-0.533,0.731      c-0.052,0.066-0.11,0.131-0.162,0.197c-0.113,0.143-0.234,0.283-0.349,0.425c-0.534,0.658-1.091,1.311-1.67,1.959      c-0.158,0.177-0.314,0.356-0.475,0.532c-0.686,0.75-1.397,1.493-2.142,2.229c-0.133,0.131-0.273,0.26-0.408,0.391      c-0.38,0.369-0.757,0.739-1.152,1.104c-0.194,0.179-0.411,0.353-0.609,0.531c-0.48,0.433-0.975,0.862-1.477,1.289      c-0.464,0.395-0.933,0.789-1.415,1.179c-0.522,0.422-1.06,0.839-1.604,1.255c-0.502,0.384-1.006,0.766-1.526,1.144      c-0.565,0.41-1.147,0.815-1.733,1.219c-0.539,0.371-1.079,0.742-1.636,1.107c-0.607,0.398-1.233,0.788-1.861,1.179      c-0.379,0.235-0.736,0.478-1.124,0.712c-0.413,0.248-0.83,0.495-1.251,0.74c-1.533,0.891-3.115,1.735-4.719,2.558      c-0.46,0.236-0.927,0.464-1.392,0.695c-1.25,0.618-2.519,1.216-3.807,1.793c-0.432,0.194-0.859,0.394-1.295,0.583      c-1.677,0.727-3.379,1.426-5.113,2.085c-0.307,0.117-0.622,0.223-0.931,0.338c-1.464,0.544-2.946,1.063-4.445,1.56      c-0.258,0.086-0.507,0.185-0.766,0.269c-0.359,0.117-0.729,0.219-1.091,0.332c-0.828,0.261-1.66,0.514-2.498,0.761      c-0.704,0.207-1.411,0.411-2.122,0.608c-0.847,0.235-1.7,0.461-2.555,0.681c-0.715,0.185-1.431,0.368-2.152,0.543      c-0.868,0.21-1.742,0.409-2.618,0.605c-0.722,0.161-1.443,0.323-2.169,0.475c-0.889,0.185-1.784,0.357-2.68,0.528      c-0.51,0.097-1.013,0.208-1.525,0.3c-0.18,0.032-0.364,0.055-0.544,0.087c-1.92,0.339-3.851,0.652-5.797,0.925      c-0.278,0.039-0.557,0.068-0.835,0.106c-1.692,0.229-3.391,0.43-5.098,0.608c-0.269,0.028-0.535,0.069-0.804,0.095      c-0.385,0.039-0.773,0.061-1.158,0.097c-1.096,0.102-2.194,0.192-3.294,0.273c-0.692,0.051-1.384,0.102-2.077,0.144      c-1.148,0.071-2.298,0.125-3.449,0.174c-0.465,0.02-0.927,0.054-1.392,0.07c-0.185,0.007-0.37,0.005-0.555,0.011      c-0.994,0.031-1.988,0.044-2.983,0.058c-0.703,0.01-1.406,0.027-2.109,0.029c-1.062,0.003-2.124-0.016-3.185-0.033      c-0.556-0.008-1.112-0.003-1.668-0.017c-0.081-0.002-0.162-0.007-0.243-0.009c-0.975-0.025-1.948-0.072-2.921-0.114      c-0.688-0.029-1.376-0.048-2.063-0.085c-1.051-0.057-2.098-0.138-3.146-0.214c-0.575-0.042-1.152-0.07-1.726-0.117      c-0.032-0.003-0.064-0.007-0.097-0.009c-1.266-0.105-2.526-0.235-3.785-0.367c-0.383-0.04-0.768-0.07-1.15-0.112      c-1.639-0.183-3.273-0.39-4.898-0.62c-0.013-0.001-0.026-0.003-0.039-0.005c-0.252-0.036-0.5-0.081-0.751-0.118      c-1.394-0.204-2.785-0.419-4.167-0.657c-0.576-0.099-1.146-0.215-1.719-0.321c-1.063-0.195-2.126-0.39-3.18-0.606      c-0.115-0.024-0.233-0.043-0.348-0.066c-0.431-0.089-0.853-0.197-1.283-0.29c-1.158-0.25-2.313-0.505-3.458-0.781      c-0.637-0.153-1.267-0.317-1.9-0.478c-1.043-0.264-2.08-0.537-3.11-0.823c-0.313-0.087-0.633-0.161-0.944-0.25      c-0.273-0.078-0.535-0.171-0.807-0.25c-1.631-0.476-3.246-0.975-4.84-1.504c-0.286-0.095-0.578-0.182-0.863-0.278      c-1.834-0.622-3.637-1.286-5.416-1.98c-0.172-0.067-0.353-0.124-0.525-0.192c-0.553-0.218-1.091-0.454-1.638-0.679      c-0.567-0.234-1.137-0.463-1.698-0.704c-0.806-0.346-1.597-0.708-2.389-1.07c-0.517-0.236-1.039-0.466-1.55-0.708      c-0.864-0.41-1.709-0.838-2.555-1.267c-0.421-0.214-0.852-0.418-1.268-0.637c-1.252-0.656-2.485-1.33-3.693-2.028      c-20.215-11.671-30.311-26.992-30.268-42.288l-0.064,22.59c-0.043,15.296,10.053,30.616,30.268,42.288      c1.208,0.698,2.442,1.372,3.693,2.028c0.419,0.219,0.851,0.425,1.274,0.639c0.843,0.427,1.686,0.854,2.547,1.263      c0.515,0.245,1.041,0.476,1.562,0.713c0.788,0.36,1.576,0.72,2.378,1.064c0.564,0.242,1.137,0.474,1.707,0.708      c0.541,0.223,1.085,0.441,1.631,0.657c0.175,0.069,0.347,0.141,0.522,0.21c1.781,0.693,3.585,1.359,5.421,1.981      c0.282,0.095,0.571,0.181,0.854,0.275c1.597,0.53,3.215,1.03,4.849,1.506c0.268,0.078,0.537,0.154,0.805,0.231      c0.314,0.089,0.627,0.182,0.943,0.269c1.032,0.287,2.072,0.56,3.116,0.825c0.63,0.16,1.258,0.323,1.892,0.476      c1.147,0.276,2.303,0.532,3.463,0.782c0.427,0.093,0.851,0.191,1.28,0.28c0.117,0.024,0.231,0.052,0.348,0.076      c1.054,0.216,2.117,0.41,3.18,0.606c0.574,0.105,1.143,0.221,1.72,0.321c1.384,0.239,2.777,0.454,4.174,0.658      c0.249,0.037,0.495,0.08,0.744,0.116c0.013,0.001,0.025,0.004,0.038,0.005c1.626,0.23,3.259,0.437,4.899,0.62      c0.373,0.042,0.749,0.07,1.122,0.11c1.269,0.133,2.54,0.264,3.815,0.369c0.031,0.003,0.063,0.004,0.094,0.007      c0.556,0.046,1.114,0.076,1.671,0.116c1.067,0.077,2.134,0.159,3.204,0.217c0.674,0.036,1.349,0.055,2.024,0.084      c0.986,0.043,1.972,0.09,2.96,0.116c0.08,0.003,0.16,0.001,0.24,0.003c0.548,0.014,1.097,0.014,1.645,0.023      c1.071,0.017,2.141,0.035,3.212,0.033c0.698-0.002,1.397-0.019,2.095-0.029c0.998-0.014,1.997-0.027,2.994-0.058      c0.185-0.005,0.37-0.016,0.555-0.023c0.463-0.016,0.926-0.038,1.389-0.057c1.153-0.049,2.305-0.103,3.456-0.174      c0.69-0.043,1.378-0.093,2.067-0.143c1.104-0.082,2.206-0.173,3.307-0.275c0.385-0.036,0.768-0.074,1.152-0.113      c0.267-0.026,0.534-0.051,0.8-0.078c1.711-0.178,3.416-0.38,5.112-0.61c0.274-0.036,0.55-0.066,0.823-0.104      c1.947-0.273,3.88-0.586,5.802-0.926c0.181-0.032,0.36-0.069,0.541-0.102c0.507-0.091,1.012-0.187,1.516-0.283      c0.9-0.171,1.799-0.344,2.692-0.53c0.725-0.152,1.444-0.313,2.164-0.474c0.877-0.196,1.753-0.395,2.622-0.606      c0.72-0.175,1.435-0.357,2.149-0.542c0.856-0.221,1.71-0.447,2.558-0.682c0.712-0.198,1.419-0.402,2.124-0.609      c0.836-0.246,1.668-0.499,2.495-0.76c0.366-0.116,0.728-0.236,1.092-0.354c0.255-0.083,0.512-0.164,0.766-0.248      c1.501-0.497,2.985-1.017,4.451-1.562c0.307-0.114,0.619-0.219,0.924-0.336c1.734-0.659,3.436-1.357,5.112-2.085      c0.439-0.19,0.868-0.391,1.302-0.586c1.285-0.576,2.551-1.172,3.798-1.789c0.468-0.231,0.937-0.461,1.398-0.698      c1.604-0.822,3.185-1.667,4.717-2.557c0.431-0.25,0.83-0.511,1.251-0.765c0.378-0.228,0.753-0.457,1.123-0.687      c0.628-0.39,1.255-0.781,1.861-1.179c0.557-0.365,1.097-0.736,1.636-1.107c0.586-0.403,1.168-0.808,1.733-1.218      c0.52-0.378,1.024-0.76,1.526-1.144c0.544-0.415,1.082-0.833,1.604-1.255c0.483-0.39,0.951-0.784,1.415-1.179      c0.502-0.428,0.997-0.857,1.477-1.289c0.208-0.187,0.405-0.377,0.609-0.565c0.385-0.356,0.78-0.709,1.15-1.068      c0.135-0.131,0.277-0.261,0.411-0.393c0.745-0.735,1.456-1.479,2.141-2.228c0.162-0.177,0.318-0.355,0.476-0.533      c0.578-0.649,1.136-1.302,1.671-1.96c0.115-0.141,0.235-0.282,0.348-0.424c0.057-0.072,0.106-0.146,0.162-0.217      c0.186-0.236,0.354-0.476,0.535-0.714c0.499-0.656,0.989-1.314,1.444-1.98c0.25-0.365,0.48-0.734,0.718-1.102      c0.389-0.602,0.768-1.206,1.122-1.814c0.107-0.184,0.204-0.369,0.307-0.552c0.13-0.231,0.26-0.461,0.385-0.692      c0.276-0.511,0.542-1.023,0.793-1.537c0.211-0.431,0.411-0.863,0.605-1.296c0.231-0.517,0.449-1.035,0.655-1.553      c0.102-0.258,0.197-0.516,0.293-0.775c0.068-0.183,0.142-0.366,0.208-0.549c0.176-0.494,0.337-0.988,0.491-1.484      c0.14-0.451,0.275-0.903,0.397-1.355c0.134-0.497,0.251-0.994,0.363-1.492c0.071-0.317,0.136-0.633,0.198-0.949      c0.027-0.137,0.06-0.274,0.086-0.411c0.094-0.511,0.17-1.022,0.241-1.533c0.063-0.449,0.125-0.898,0.17-1.348      c0.051-0.515,0.082-1.03,0.111-1.546c0.028-0.507,0.061-1.015,0.067-1.522c0.001-0.095,0.012-0.19,0.012-0.285l0.064-22.59      C663.563,762.575,663.558,762.876,663.55,763.176z"/>
				<g>
					<path style="fill:#4D4D4D;" d="M663.561,762.7c0,0.17,0,0.34-0.01,0.51c0,0.26-0.01,0.53-0.04,0.79       c-0.08,1.65-0.28,3.29-0.61,4.93c-0.01,0.07-0.02,0.14-0.04,0.21c-0.38,1.91-0.93,3.81-1.64,5.69       c-0.04,0.12-0.09,0.24-0.14,0.35c-0.69,1.82-1.54,3.62-2.55,5.39c-0.06,0.12-0.12,0.23-0.19,0.34c-1.12,1.97-2.42,3.9-3.92,5.8       c-0.03,0.04-0.06,0.09-0.1,0.13c-0.669,0.85-1.388,1.692-2.139,2.528c0,0-0.001,0.001-0.001,0.002       c-0.16,0.17-0.31,0.35-0.47,0.53c-0.68,0.75-1.39,1.5-2.15,2.23c-0.13,0.13-0.27,0.26-0.4,0.39c-0.19,0.19-0.38,0.37-0.57,0.55       c-0.19,0.19-0.39,0.37-0.59,0.55c-0.054,0.051-0.113,0.1-0.171,0.151c-3.611,3.321-7.842,6.475-12.709,9.409       c-0.44,0.27-0.89,0.54-1.35,0.8c-6.81,3.96-14.35,7.24-22.37,9.85c-0.09,0.02-0.17,0.05-0.26,0.08       c-1.011,0.326-2.041,0.625-3.067,0.93c-0.122,0.036-0.241,0.074-0.363,0.11c-0.007,0.002-0.014,0.004-0.021,0.006       c-0.674,0.198-1.347,0.394-2.027,0.583c-0.024,0.007-0.048,0.014-0.073,0.021c-0.85,0.23-1.7,0.46-2.56,0.68       c-0.004,0.001-0.008,0.002-0.013,0.003c-0.82,0.211-1.644,0.417-2.471,0.615c-0.759,0.181-1.518,0.357-2.287,0.532       c-0.084,0.019-0.169,0.036-0.254,0.055c-0.613,0.136-1.226,0.27-1.843,0.399c-0.024,0.005-0.048,0.011-0.073,0.016       c-0.89,0.19-1.78,0.36-2.68,0.53c-0.44,0.09-0.88,0.18-1.32,0.26c-0.16,0.03-0.32,0.06-0.47,0.08       c-0.1,0.01-0.19,0.03-0.28,0.05c-0.96,0.17-1.92,0.33-2.89,0.49c-0.89,0.14-1.78,0.27-2.68,0.4c-0.35,0.05-0.71,0.1-1.06,0.14       c-1.69,0.24-3.39,0.44-5.1,0.61c-0.25,0.03-0.49,0.06-0.74,0.08c-0.12,0.02-0.24,0.03-0.35,0.04c-2.07,0.2-4.15,0.37-6.24,0.49       c-1.47,0.1-2.94,0.17-4.41,0.22c-0.32,0.01-0.65,0.02-0.97,0.03c-0.01,0-0.01,0-0.02,0c-1.28,0.04-2.559,0.07-3.84,0.08       c-0.95,0.01-1.9,0.01-2.84,0c-0.85,0-1.71-0.01-2.56-0.04c-0.4,0-0.79-0.01-1.19-0.02c-0.01,0-0.01,0-0.02,0       c-1.52-0.04-3.04-0.1-4.56-0.18c-0.58-0.03-1.16-0.07-1.73-0.11c-0.81-0.05-1.63-0.1-2.44-0.17c-0.45-0.03-0.89-0.06-1.33-0.11       c-1.32-0.11-2.64-0.23-3.96-0.38c-1.02-0.11-2.04-0.23-3.05-0.35c-0.81-0.11-1.61-0.21-2.41-0.33c-0.03,0-0.05,0-0.08-0.01       c-0.3-0.04-0.6-0.08-0.89-0.13c-0.65-0.1-1.3-0.2-1.95-0.3c-0.98-0.15-1.96-0.32-2.94-0.5c-0.28-0.05-0.57-0.11-0.86-0.16       c-0.53-0.1-1.06-0.2-1.59-0.3c-0.54-0.09-1.07-0.2-1.6-0.31c-0.42-0.08-0.84-0.17-1.26-0.26c-0.7-0.15-1.4-0.3-2.09-0.47       c-0.58-0.13-1.15-0.27-1.72-0.41c-0.098-0.023-0.193-0.048-0.291-0.072c-1.91-0.459-3.804-0.945-5.67-1.478       c-0.14-0.04-0.27-0.07-0.4-0.12c-1.77-0.5-3.52-1.04-5.25-1.63c-0.38-0.11-0.76-0.24-1.13-0.37c-0.82-0.28-1.64-0.57-2.46-0.87       c-1.05-0.37-2.08-0.77-3.11-1.17c-0.1-0.04-0.2-0.08-0.3-0.12c-1.04-0.41-2.08-0.84-3.1-1.28c-0.05-0.02-0.09-0.04-0.13-0.06       c-1.3-0.55-2.59-1.14-3.85-1.74c-1.24-0.59-2.47-1.19-3.67-1.82c-1.31-0.68-2.58-1.39-3.84-2.11       c-6.93-4-12.68-8.44-17.23-13.15c-1.24-1.29-2.39-2.6-3.46-3.92c-0.71-0.88-1.38-1.77-2.01-2.67       c-0.311-0.45-0.62-0.9-0.92-1.35c-0.59-0.91-1.14-1.82-1.65-2.74c-0.77-1.37-1.45-2.76-2.04-4.16       c-0.4-0.94-0.75-1.87-1.07-2.81c-0.15-0.47-0.3-0.94-0.44-1.42c-0.28-0.94-0.51-1.89-0.71-2.84c-0.49-2.37-0.74-4.75-0.74-7.14       c0-6.1,1.61-12.2,4.85-18.061c4.78-8.68,13.09-16.84,24.95-23.73c39.91-23.2,104.82-23.2,145,0c3.74,2.16,7.13,4.44,10.17,6.83       c6.81,5.32,11.89,11.15,15.23,17.23C662.041,750.11,663.661,756.41,663.561,762.7z"/>
				</g>
			</g>
		</g>
		
		<path style="fill:#282828;" d="M646.621,755.58c-1.08,6.12-3.88,11.91-7.9,16.91c-0.42,0.53-0.86,1.05-1.31,1.56    c-6.92,7.83-16.26,13.17-25.94,17.11c-27.78,11.32-59.38,11.98-88.29,3.99c-12.09-3.34-24.05-8.32-33.26-16.85    c-5.38-4.98-9.69-11.27-12.05-18.24c-2.56-7.55-1.44-13.41-0.22-20.92c2.93-18.03,5.89-36.06,8.83-54.09    c8.88-54.36,17.74-108.73,26.63-163.09c1.05-6.43,5.93-12.68,14.6-17.52c0.63-0.35,1.27-0.69,1.92-1.01    c0.22-0.11,0.441-0.211,0.66-0.32c0.44-0.21,0.88-0.42,1.33-0.62c0.27-0.13,0.54-0.24,0.81-0.36c0.41-0.17,0.82-0.35,1.24-0.52    c0.29-0.12,0.59-0.23,0.89-0.34c0.4-0.16,0.8-0.31,1.21-0.46c0.12-0.04,0.22-0.08,0.33-0.12c0.11-0.04,0.23-0.07,0.33-0.11    c1.08-0.37,2.17-0.72,3.28-1.04c0.02-0.01,0.05-0.02,0.08-0.03c0.12-0.04,0.25-0.06,0.37-0.1c0.73-0.2,1.46-0.39,2.19-0.58    c0.13-0.03,0.26-0.06,0.38-0.1c0.16-0.03,0.32-0.06,0.48-0.1c0.52-0.12,1.05-0.24,1.58-0.35c0.19-0.04,0.38-0.08,0.57-0.12    c0.11-0.03,0.22-0.04,0.33-0.06c0.47-0.1,0.94-0.18,1.41-0.26c0.23-0.04,0.47-0.09,0.7-0.13c0.09-0.02,0.17-0.03,0.26-0.04    c0.37-0.06,0.74-0.12,1.12-0.17c0.29-0.05,0.58-0.09,0.87-0.14c0.09-0.01,0.18-0.02,0.26-0.03c0.33-0.04,0.66-0.08,1-0.12    c0.3-0.04,0.6-0.08,0.9-0.11c0.11-0.01,0.22-0.02,0.34-0.03c0.3-0.039,0.61-0.06,0.92-0.09c0.28-0.03,0.55-0.06,0.83-0.08    c0.16-0.02,0.31-0.02,0.47-0.04c0.28-0.02,0.56-0.04,0.84-0.06c0.22-0.01,0.44-0.03,0.67-0.04c0.22-0.02,0.45-0.02,0.68-0.04    c0.27-0.01,0.55-0.02,0.82-0.03c0.15-0.01,0.3-0.02,0.45-0.03c0.36-0.01,0.72-0.01,1.08-0.02c0.19-0.01,0.38-0.01,0.57-0.02h0.18    c0.6-0.01,1.21-0.01,1.81-0.01c0.04,0,0.07,0.01,0.11,0.01h0.35c0.41,0.01,0.82,0.01,1.23,0.02c0.17,0.01,0.34,0.02,0.5,0.02    c0.21,0.01,0.41,0.02,0.62,0.03c0.18,0,0.37,0.01,0.55,0.02c0.4,0.02,0.8,0.04,1.2,0.07c0.1,0,0.2,0.01,0.3,0.01    c0.03,0.01,0.06,0.01,0.09,0.01c0.519,0.04,1.039,0.08,1.559,0.12c0.12,0.01,0.24,0.02,0.36,0.04c0.17,0.01,0.34,0.03,0.5,0.04    c0.22,0.03,0.45,0.04,0.67,0.07c0.37,0.04,0.74,0.08,1.11,0.13c0.09,0.01,0.19,0.02,0.28,0.03c0.03,0,0.07,0.01,0.11,0.01    c0.5,0.06,0.99,0.13,1.49,0.2c0.12,0.02,0.24,0.04,0.37,0.06c0.17,0.02,0.35,0.05,0.52,0.08c0.23,0.04,0.45,0.07,0.67,0.1    c0.32,0.06,0.64,0.12,0.95,0.17c0.15,0.03,0.29,0.05,0.43,0.08c0.06,0.01,0.12,0.02,0.19,0.03c0.59,0.11,1.17,0.23,1.75,0.35    c0.03,0.01,0.05,0.01,0.08,0.02c0.15,0.03,0.31,0.07,0.461,0.1c0.439,0.1,0.89,0.2,1.32,0.3c0.07,0.02,0.14,0.04,0.21,0.05    c0.6,0.15,1.2,0.31,1.8,0.47c0.15,0.04,0.31,0.08,0.46,0.12c0.01,0,0.03,0.01,0.04,0.01c1.12,0.32,2.22,0.66,3.3,1.03    c0.11,0.04,0.22,0.07,0.33,0.1c0.08,0.03,0.16,0.06,0.24,0.09c0.81,0.28,1.61,0.58,2.39,0.89c0.06,0.02,0.11,0.05,0.16,0.07    c0.729,0.29,1.45,0.6,2.16,0.92c0.23,0.11,0.45,0.21,0.68,0.32c0.55,0.26,1.09,0.53,1.63,0.8c0.22,0.11,0.43,0.22,0.65,0.34    c0.72,0.38,1.43,0.78,2.12,1.19c0.48,0.29,0.96,0.59,1.42,0.89c0.19,0.13,0.37,0.26,0.56,0.39c0.26,0.18,0.53,0.35,0.78,0.53    c0.66,0.48,1.269,0.95,1.86,1.44c0.11,0.09,0.22,0.17,0.33,0.26c0.561,0.47,1.09,0.95,1.59,1.44c0.04,0.04,0.09,0.07,0.13,0.11    c0.1,0.1,0.2,0.21,0.3,0.31c0.18,0.18,0.37,0.37,0.54,0.55c0.16,0.16,0.3,0.33,0.45,0.49c0.17,0.19,0.34,0.37,0.5,0.56    c0.06,0.07,0.13,0.15,0.19,0.22c0.04,0.06,0.08,0.11,0.13,0.17c0.41,0.5,0.8,1,1.15,1.51c0.04,0.06,0.06,0.1,0.09,0.13    c0.27,0.41,0.53,0.82,0.78,1.23c0.03,0.06,0.08,0.12,0.11,0.18c0.039,0.08,0.08,0.15,0.12,0.22c0.17,0.32,0.34,0.63,0.5,0.95    c0.04,0.08,0.09,0.16,0.13,0.25c0.02,0.04,0.03,0.08,0.05,0.11c0.17,0.36,0.32,0.72,0.47,1.08c0.01,0.05,0.04,0.09,0.05,0.13    c0.16,0.42,0.3,0.81,0.42,1.21c0.01,0.02,0.01,0.03,0.02,0.05c0.03,0.11,0.05,0.22,0.08,0.33c0.08,0.27,0.16,0.53,0.22,0.8    c0.01,0.04,0.02,0.07,0.02,0.11c0.07,0.3,0.13,0.6,0.18,0.9c5.64,33.31,11.27,66.62,16.9,99.93c4.62,27.3,9.23,54.6,13.85,81.9    c1.32,7.82,2.61,15.64,3.93,23.46c0.98,5.82,1.97,11.65,2.99,17.46C647.321,748.21,647.271,751.95,646.621,755.58z"/>
		<g>
			<g style="enable-background:new    ;">
				<g>
					
						<ellipse transform="matrix(1 -0.0028 0.0028 1 -1.4834 1.5912)" style="fill:#CCCCCC;" cx="561.054" cy="524.507" rx="48.16" ry="27.896"/>
				</g>
			</g>
		</g>
		<g>
			<g style="enable-background:new    ;">
				<path style="fill:#1E1E1E;" d="M626.336,517.775c-0.015,0.158-0.044,0.316-0.063,0.475c-0.041,0.323-0.083,0.647-0.144,0.969      c-0.035,0.187-0.082,0.375-0.124,0.562c-0.066,0.293-0.134,0.586-0.216,0.878c-0.056,0.198-0.12,0.396-0.184,0.594      c-0.09,0.281-0.185,0.561-0.29,0.841c-0.076,0.201-0.157,0.402-0.241,0.603c-0.115,0.276-0.238,0.552-0.368,0.827      c-0.095,0.199-0.191,0.399-0.294,0.598c-0.143,0.277-0.297,0.553-0.455,0.828c-0.111,0.193-0.22,0.386-0.339,0.578      c-0.175,0.285-0.366,0.568-0.558,0.85c-0.122,0.18-0.239,0.36-0.368,0.539c-0.224,0.311-0.466,0.618-0.71,0.926      c-0.117,0.148-0.226,0.297-0.348,0.445c-0.375,0.453-0.77,0.902-1.189,1.348c-0.016,0.017-0.034,0.034-0.05,0.05      c-0.405,0.428-0.832,0.853-1.278,1.274c-0.154,0.145-0.32,0.287-0.479,0.431c-0.32,0.291-0.642,0.582-0.982,0.868      c-0.2,0.168-0.411,0.334-0.618,0.501c-0.319,0.259-0.641,0.516-0.977,0.771c-0.23,0.174-0.469,0.347-0.706,0.519      c-0.336,0.244-0.676,0.487-1.027,0.727c-0.253,0.173-0.512,0.345-0.773,0.516c-0.359,0.235-0.725,0.468-1.099,0.699      c-0.272,0.168-0.546,0.336-0.826,0.503c-0.429,0.255-0.868,0.506-1.315,0.755c-0.208,0.116-0.411,0.233-0.623,0.347      c-0.675,0.366-1.365,0.727-2.081,1.081c-0.639,0.315-1.296,0.618-1.955,0.917c-0.317,0.144-0.635,0.285-0.956,0.426      c-0.466,0.203-0.937,0.402-1.411,0.598c-0.324,0.133-0.648,0.267-0.977,0.397c-0.312,0.124-0.63,0.241-0.946,0.361      c-1.085,0.414-2.187,0.811-3.312,1.185c-0.137,0.045-0.269,0.094-0.406,0.139c-1.142,0.374-2.308,0.725-3.486,1.059      c-0.313,0.089-0.63,0.174-0.945,0.26c-0.892,0.243-1.793,0.475-2.703,0.697c-0.302,0.073-0.602,0.15-0.906,0.22      c-1.151,0.269-2.312,0.523-3.487,0.756c-0.176,0.035-0.355,0.065-0.531,0.099c-1.008,0.195-2.024,0.377-3.048,0.545      c-0.361,0.059-0.723,0.116-1.085,0.172c-0.949,0.147-1.903,0.284-2.862,0.409c-0.294,0.038-0.587,0.081-0.882,0.117      c-1.257,0.155-2.522,0.291-3.793,0.409c-0.267,0.025-0.535,0.044-0.802,0.066c-1.123,0.097-2.249,0.178-3.379,0.245      c-0.317,0.019-0.634,0.04-0.952,0.056c-1.423,0.074-2.849,0.126-4.278,0.154c-0.577,0.012-1.154,0.017-1.73,0.02      c-0.355,0.002-0.71,0.008-1.065,0.008c-0.776-0.001-1.552-0.012-2.328-0.027c-0.204-0.004-0.409-0.004-0.613-0.009      c-0.322-0.008-0.643-0.024-0.965-0.034c-0.742-0.023-1.484-0.046-2.225-0.082c-0.409-0.019-0.816-0.048-1.225-0.072      c-0.65-0.037-1.3-0.073-1.948-0.12c-0.215-0.016-0.429-0.037-0.644-0.054c-1.34-0.104-2.674-0.23-4.001-0.377      c-0.256-0.028-0.512-0.053-0.767-0.083c-1.42-0.165-2.831-0.355-4.23-0.568c-0.334-0.051-0.667-0.105-0.999-0.158      c-0.931-0.149-1.857-0.31-2.777-0.482c-0.317-0.059-0.636-0.115-0.952-0.176c-1.189-0.231-2.368-0.479-3.533-0.746      c-0.196-0.045-0.388-0.096-0.584-0.142c-0.98-0.231-1.95-0.476-2.911-0.732c-0.342-0.091-0.682-0.185-1.022-0.28      c-0.902-0.252-1.794-0.515-2.676-0.79c-0.238-0.074-0.48-0.144-0.717-0.22c-1.258-0.403-2.49-0.834-3.701-1.285      c-0.267-0.099-0.532-0.201-0.797-0.303c-1.223-0.469-2.428-0.955-3.596-1.473c-0.805-0.358-1.597-0.726-2.374-1.107      c-0.831-0.407-1.633-0.824-2.41-1.248c-0.688-0.375-1.355-0.756-2-1.142c-0.158-0.095-0.306-0.193-0.462-0.289      c-0.491-0.301-0.975-0.605-1.441-0.913c-0.173-0.115-0.341-0.231-0.511-0.347c-0.423-0.288-0.836-0.578-1.237-0.87      c-0.168-0.123-0.337-0.245-0.501-0.369c-0.522-0.393-1.032-0.789-1.515-1.19c-0.02-0.017-0.038-0.034-0.058-0.05      c-0.471-0.393-0.918-0.79-1.352-1.191c-0.116-0.107-0.231-0.215-0.344-0.323c-0.391-0.371-0.768-0.744-1.127-1.12      c-0.047-0.049-0.098-0.098-0.144-0.147c-0.394-0.418-0.763-0.84-1.118-1.265c-0.088-0.106-0.174-0.212-0.26-0.318      c-0.31-0.383-0.607-0.768-0.887-1.155c-0.039-0.054-0.081-0.106-0.119-0.16c-0.305-0.431-0.586-0.864-0.852-1.299      c-0.068-0.111-0.133-0.223-0.199-0.334c-0.223-0.379-0.432-0.76-0.626-1.142c-0.036-0.072-0.077-0.143-0.112-0.215      c-0.218-0.444-0.414-0.89-0.593-1.337c-0.045-0.114-0.086-0.227-0.129-0.341c-0.131-0.347-0.25-0.696-0.357-1.045      c-0.042-0.136-0.085-0.272-0.124-0.408c-0.126-0.449-0.239-0.898-0.326-1.349c-0.002-0.009-0.004-0.018-0.006-0.027      c-0.09-0.469-0.154-0.94-0.202-1.41c-0.015-0.147-0.021-0.295-0.032-0.442c-0.03-0.405-0.057-0.81-0.055-1.215l-0.049,14.687      c-0.001,0.188,0.002,0.376,0.008,0.563c0.007,0.218,0.031,0.435,0.047,0.653c0.011,0.147,0.017,0.294,0.032,0.441      c0.048,0.469,0.111,0.937,0.201,1.405c0,0.002,0.001,0.003,0.001,0.005c0.002,0.011,0.005,0.021,0.007,0.031      c0.087,0.449,0.199,0.897,0.325,1.345c0.038,0.136,0.082,0.271,0.123,0.407c0.051,0.166,0.095,0.333,0.151,0.499      c0.063,0.183,0.138,0.365,0.207,0.549c0.043,0.113,0.082,0.226,0.128,0.339c0.168,0.419,0.347,0.837,0.55,1.254      c0.014,0.028,0.03,0.056,0.044,0.085c0.035,0.071,0.075,0.142,0.111,0.213c0.194,0.382,0.403,0.763,0.626,1.142      c0.066,0.112,0.131,0.225,0.2,0.337c0.052,0.084,0.098,0.17,0.151,0.254c0.22,0.35,0.455,0.698,0.701,1.044      c0.038,0.054,0.08,0.107,0.119,0.161c0.183,0.255,0.368,0.509,0.565,0.762c0.103,0.132,0.215,0.262,0.322,0.393      c0.086,0.106,0.172,0.212,0.26,0.318c0.342,0.409,0.695,0.815,1.072,1.218c0.015,0.016,0.031,0.032,0.046,0.047      c0.046,0.048,0.096,0.096,0.142,0.145c0.36,0.377,0.737,0.75,1.129,1.121c0.114,0.108,0.228,0.216,0.345,0.323      c0.1,0.093,0.195,0.187,0.297,0.279c0.34,0.306,0.693,0.61,1.055,0.911c0.02,0.017,0.038,0.033,0.058,0.05      c0.392,0.326,0.796,0.648,1.213,0.969c0.098,0.075,0.204,0.148,0.303,0.223c0.163,0.123,0.331,0.245,0.499,0.367      c0.402,0.294,0.815,0.585,1.239,0.873c0.169,0.115,0.336,0.231,0.509,0.345c0.09,0.059,0.174,0.12,0.265,0.179      c0.383,0.25,0.786,0.494,1.186,0.74c0.152,0.094,0.297,0.189,0.452,0.282c0.619,0.371,1.255,0.738,1.913,1.098      c0.029,0.015,0.06,0.03,0.089,0.046c0.777,0.424,1.579,0.841,2.41,1.249c0.767,0.376,1.548,0.741,2.343,1.094      c0.01,0.004,0.021,0.008,0.031,0.013c1.168,0.519,2.373,1.005,3.596,1.474c0.264,0.102,0.528,0.203,0.795,0.302      c1.212,0.451,2.445,0.882,3.704,1.285c0.055,0.018,0.106,0.038,0.161,0.056c0.18,0.057,0.368,0.106,0.549,0.162      c0.885,0.276,1.779,0.54,2.684,0.792c0.338,0.094,0.676,0.187,1.016,0.279c0.964,0.257,1.936,0.502,2.92,0.734      c0.193,0.046,0.382,0.095,0.576,0.14c1.166,0.268,2.347,0.515,3.537,0.747c0.314,0.061,0.632,0.117,0.947,0.175      c0.921,0.172,1.847,0.332,2.78,0.482c0.208,0.033,0.411,0.075,0.619,0.107c0.125,0.019,0.254,0.032,0.38,0.051      c1.4,0.213,2.81,0.403,4.231,0.569c0.255,0.029,0.511,0.054,0.767,0.082c1.327,0.146,2.661,0.272,4.001,0.377      c0.142,0.011,0.281,0.029,0.423,0.04c0.074,0.005,0.148,0.008,0.222,0.014c0.647,0.047,1.297,0.083,1.947,0.12      c0.409,0.023,0.817,0.052,1.226,0.072c0.749,0.036,1.499,0.06,2.249,0.083c0.291,0.009,0.582,0.025,0.873,0.032      c0.022,0,0.043,0,0.065,0.001c0.21,0.005,0.42,0.005,0.63,0.009c0.772,0.015,1.544,0.026,2.317,0.027      c0.351,0,0.701-0.005,1.051-0.007c0.484-0.003,0.968-0.002,1.452-0.01c0.097-0.002,0.194-0.009,0.292-0.011      c1.428-0.028,2.854-0.08,4.276-0.154c0.117-0.006,0.235-0.006,0.352-0.012c0.201-0.011,0.399-0.032,0.599-0.043      c1.13-0.067,2.256-0.149,3.379-0.245c0.187-0.016,0.376-0.024,0.563-0.041c0.081-0.008,0.16-0.019,0.24-0.026      c1.27-0.117,2.534-0.254,3.79-0.409c0.085-0.011,0.171-0.017,0.256-0.028c0.213-0.026,0.421-0.063,0.633-0.091      c0.957-0.125,1.909-0.261,2.856-0.408c0.201-0.031,0.406-0.055,0.606-0.087c0.161-0.026,0.319-0.059,0.48-0.086      c1.021-0.169,2.034-0.349,3.039-0.544c0.146-0.029,0.296-0.051,0.443-0.079c0.034-0.007,0.066-0.015,0.099-0.022      c1.174-0.233,2.334-0.487,3.483-0.755c0.104-0.024,0.211-0.044,0.315-0.069c0.202-0.047,0.396-0.105,0.597-0.154      c0.909-0.221,1.808-0.453,2.699-0.696c0.196-0.054,0.4-0.099,0.595-0.154c0.119-0.033,0.232-0.073,0.351-0.106      c1.178-0.334,2.342-0.684,3.484-1.059c0.035-0.011,0.073-0.021,0.108-0.032c0.103-0.034,0.2-0.074,0.304-0.109      c1.122-0.374,2.223-0.77,3.306-1.183c0.157-0.06,0.323-0.111,0.479-0.172c0.159-0.062,0.313-0.129,0.471-0.191      c0.327-0.13,0.649-0.263,0.972-0.395c0.476-0.196,0.948-0.396,1.415-0.6c0.32-0.139,0.638-0.281,0.954-0.424      c0.193-0.087,0.392-0.17,0.583-0.26c0.463-0.215,0.92-0.435,1.373-0.658c0.716-0.354,1.406-0.715,2.082-1.081      c0.211-0.114,0.414-0.231,0.622-0.346c0.292-0.163,0.592-0.323,0.876-0.488c0.152-0.088,0.292-0.18,0.442-0.269      c0.279-0.166,0.552-0.333,0.823-0.5c0.374-0.232,0.741-0.465,1.101-0.701c0.261-0.171,0.519-0.343,0.773-0.516      c0.352-0.241,0.692-0.483,1.029-0.727c0.237-0.172,0.475-0.344,0.704-0.517c0.337-0.256,0.659-0.514,0.98-0.773      c0.206-0.167,0.417-0.332,0.617-0.5c0.339-0.286,0.661-0.576,0.98-0.866c0.159-0.145,0.327-0.288,0.482-0.434      c0.443-0.418,0.867-0.839,1.27-1.265c0.019-0.019,0.04-0.039,0.059-0.058c0.419-0.445,0.813-0.895,1.188-1.347      c0.123-0.149,0.233-0.3,0.352-0.449c0.242-0.306,0.483-0.612,0.706-0.92c0.13-0.18,0.248-0.362,0.371-0.543      c0.191-0.281,0.381-0.563,0.556-0.847c0.119-0.193,0.228-0.386,0.339-0.579c0.158-0.275,0.312-0.551,0.455-0.828      c0.102-0.199,0.199-0.398,0.294-0.598c0.13-0.275,0.253-0.55,0.368-0.826c0.084-0.201,0.165-0.402,0.241-0.603      c0.105-0.28,0.2-0.56,0.29-0.841c0.063-0.198,0.128-0.396,0.184-0.594c0.082-0.292,0.15-0.585,0.216-0.878      c0.042-0.187,0.089-0.374,0.124-0.562c0.06-0.322,0.103-0.646,0.144-0.969c0.02-0.158,0.048-0.316,0.063-0.475      c0.046-0.481,0.073-0.963,0.074-1.445l0.049-14.687C626.409,516.812,626.382,517.294,626.336,517.775z"/>
				<g>
					<path style="fill:#333333;" d="M607.311,493.668c25.348,12.43,25.482,32.58,0.299,45.01       c-25.177,12.427-66.137,12.427-91.485-0.003c-25.348-12.43-25.482-32.58-0.305-45.007       C541.004,481.239,581.963,481.239,607.311,493.668z"/>
				</g>
			</g>
		</g>
		<path style="fill:#282828;" d="M486.98,465.421l17.017,38.56c0,0,8.178,24.678,57.135,26.249    c48.957-1.571,57.135-26.249,57.135-26.249l17.017-38.56H486.98z"/>
		<path style="fill:#4D4D4D;" d="M626.765,430.954h-65.633h-65.633c0,0-15.699,13.821-9.661,31.667    c6.028,17.816,35.564,35.762,75.193,35.423v0.001c0.034,0.001,0.067-0.001,0.102-0.001s0.067,0.001,0.102,0.001v-0.001    c39.629,0.339,69.165-17.608,75.193-35.423C642.464,444.775,626.765,430.954,626.765,430.954z"/>
		<path style="fill:#1E1E1E;" d="M507.482,434.184v7.092c0,0,1.293,30.896,53.65,30.896s53.65-30.896,53.65-30.896v-7.092H507.482z"/>
		
			<ellipse transform="matrix(1 -0.0028 0.0028 1 -1.1515 1.5932)" style="fill:#333333;" cx="561" cy="406.697" rx="86.309" ry="49.993"/>
		<path style="fill:#282828;" d="M490.192,348.412l29.927,53.818c0,0,8.153,19.78,40.885,19.78c32.733,0,40.885-19.78,40.885-19.78    l29.927-53.818H490.192z"/>
		<path style="fill:#3A3A3A;" d="M613.313,301.174l-10.582-5.707c-5.503-2.979-11.335-6.615-17.355-9.516    c-0.063-0.047-0.141-0.078-0.219-0.11c-0.972-0.455-1.944-0.909-2.916-1.332c-0.157-0.063-0.314-0.125-0.47-0.188    c-4.641-1.834-9.861-2.979-15.223-3.433h-10.911c-4.468,0.392-8.842,1.254-12.871,2.602c-2.32,0.847-4.625,1.866-6.898,2.979    c-0.125,0.063-0.235,0.126-0.36,0.188c-5.675,2.759-11.147,6.066-16.226,8.81l-10.598,5.707c0,0-32.468,16.351-20.867,42.893    c10.049,22.952,49.76,29.991,66.158,31.951c5.032,0.611,10.096,0.721,15.16,0.313c18.06-1.427,54.353-7.807,65.045-32.264    C645.796,317.525,613.313,301.174,613.313,301.174z"/>
		<g>
			<path style="fill:#4D4D4D;" d="M586.505,317.353c-14.674,8.184-38.002,7.949-52.08-0.533     c-14.094-8.482-13.608-21.98,1.082-30.163c0.125-0.063,0.235-0.126,0.36-0.188c2.132-1.176,4.452-2.163,6.898-2.979     c4.029-1.348,8.403-2.21,12.871-2.602h0.078c3.59-0.314,7.243-0.314,10.833,0c5.362,0.455,10.582,1.599,15.223,3.433     c0.157,0.063,0.313,0.126,0.47,0.188c1.003,0.407,1.975,0.847,2.916,1.332c0.078,0.032,0.157,0.063,0.219,0.11     c0.768,0.392,1.505,0.799,2.211,1.223C601.68,295.656,601.194,309.17,586.505,317.353z"/>
		</g>
		<g>
			<polygon style="fill:#1E1E1E;" points="563.141,316.784 585.055,304.049 585.076,296.66 563.234,284.049    "/>
			<polygon style="fill:#3A3A3A;" points="540.952,219.986 534.307,216.149 512.393,228.885 540.88,245.332    "/>
			<polygon style="fill:#1E1E1E;" points="591.801,274.731 591.728,300.501 613.642,287.765 613.715,261.996    "/>
			<polygon style="fill:#3A3A3A;" points="591.801,274.731 613.715,261.996 585.221,245.545 563.307,258.28    "/>
			<polygon style="fill:#282828;" points="563.307,258.28 563.399,225.537 540.973,212.59 540.952,219.986 540.88,245.332      512.393,228.885 512.32,254.654 540.807,271.102 540.714,303.836 563.141,316.784 563.234,284.049 585.076,296.66      591.728,300.501 591.801,274.731    "/>
			<polygon style="fill:#1E1E1E;" points="563.307,258.28 585.221,245.545 585.314,212.802 563.399,225.537    "/>
			<polygon style="fill:#3A3A3A;" points="585.314,212.802 562.888,199.854 540.973,212.59 563.399,225.537    "/>
		</g>
	</g>
</g></g></svg>