<svg xmlns="http://www.w3.org/2000/svg" xml:space="preserve" viewBox="0 0 600 205">
  <path fill="#d2161e" d="M.00000302 0h599.9999967v205H.00000302V0z"/>
  <g fill="#fff">
    <path d="M67.69431547 48.68549612 43.58574124 165.53950387h51.282051c24.10256397 0 45.13221001-13.8375 45.13221001-35.875 0-10.7625-6.6646615-19.99150775-15.89543068-24.60400775 13.33333326-6.15 22.04527167-17.425 22.04527167-30.75 0-14.8625-12.30569224-25.625-31.2800511-25.625H67.69431546zM91.2820538 73.28950387h13.33132813c7.17948714 0 11.28806148 2.56449875 11.28806148 7.17699875 0 8.2-7.69430765 14.3439935-17.43789734 14.3439935H86.66466408l4.61738972-21.52099225ZM82.56811026 117.3625h17.42788708c8.20512816 0 12.30969224 2.5625 12.30969224 7.6875 0 8.7125-8.2011179 15.375-18.97034861 15.375v.51050125H77.43990516l5.1282051-23.57299612zM302.05128341 127.6125c0-28.7 28.20512805-52.275 56.92307661-52.275 15.3846153 0 26.66666652 7.175 33.33333315 16.4l-21.02564091 13.8375c-2.56410255-4.1-8.71794867-6.6625-13.84615377-6.6625-14.35897428 0-28.20512805 14.35-28.20512805 28.1875 0 9.225 6.66666663 15.8875 15.89743581 15.8875 7.17948714 0 14.87179479-4.1 19.48717938-8.7125l16.92307683 17.425c-10.76923071 10.25-23.58974346 15.375-38.46153825 15.375-23.58974346 0-41.0256408-17.425-41.0256408-39.4625zM466.66666712 127.6125c0-28.7 28.20512805-52.275 56.92307661-52.275 15.3846153 0 26.66666652 7.175 33.33333315 16.4l-21.02564091 13.8375c-2.56410255-4.1-8.71794867-6.6625-13.84615377-6.6625-14.35897428 0-28.20512805 14.35-28.20512805 28.1875 0 9.225 6.66666663 15.8875 15.89743581 15.8875 7.17948714 0 14.87179479-4.1 19.48717938-8.7125l16.92307683 17.425c-10.76923071 10.25-23.58974346 15.375-38.46153825 15.375-23.58974346 0-41.0256408-17.425-41.0256408-39.4625zM202.04927883 75.34150263c-28.20512805 0-56.4102561 23.57099737-56.4102561 52.27099737 0 2.5625-.002 4.61650262.51082051 6.66650262 1.02564102 5.6375 3.08092819 11.27300126 6.67067176 15.88550126 7.17948714 10.25 19.48517425 16.39599224 33.84414853 16.39599224 13.84615377 0 27.69431267-5.63949874 37.95072287-14.86449874l-16.92708196-17.9375c-5.6410256 5.6375-12.8125025 9.22900262-19.99198963 9.22900262-4.10256408 0-7.7003179-1.02099738-10.77724097-3.58349738L214.86979158 122.4875l27.69431267-12.30200387c-.51282051-5.6375-2.56209742-11.27099226-5.63902048-16.39599226-7.17948714-11.275-19.49118964-18.44800124-34.87580494-18.44800124zM199.9959968 99.425c5.1282051 0 9.23276918 2.04799613 12.30969224 5.63549613l-40.51482029 17.9375c2.56410255-12.3 15.3846153-23.57299613 28.20512805-23.57299613z"/>
    <path d="m292.24346295 43.5625-30.25641009 13.325-4.10256408 20.5h-11.28205122l-5.1282051 23.0625h11.79487173c-7.69230765 35.3625-8.20512816 39.4625-8.20512816 43.5625 0 13.325 9.23076918 23.0625 23.58974346 23.0625 7.69230765 0 16.41025632-3.075 22.05128193-7.6875L287.62807836 139.4c-2.05128204 1.5375-6.15384612 3.5875-9.74358969 3.5875-3.07692306 0-4.61538459-1.5375-4.61538459-5.125 0-2.05.51282051-4.1 7.17948714-37.4125h17.94871785l4.6153846-23.0625H285.0639758l7.17948714-33.825zM404.03833413 48.6875h27.17951267L407.1152572 165.025h-27.17948704l24.10256397-116.3375zM436.3460519 77.3875h27.17948703l-17.94871785 87.6375h-27.17948703l17.94871785-87.6375zM440.44861598 54.8375c0-9.225 8.20512816-16.4 16.41025632-16.4 7.69230765 0 13.33333326 6.15 13.33333326 13.8375 0 8.7125-7.69230765 16.4-15.8974358 16.4s-13.84615378-6.15-13.84615378-13.8375z"/>
  </g>
</svg>
