<svg xmlns="http://www.w3.org/2000/svg" version="1.0" viewBox="0 0 750 509">
  <path d="M403 82v11h3c2.9 0 3-.1 3-4.9 0-2.6.3-7.6.6-11l.7-6.1H403v11zm-23.3-9.3c-1.4.4-1.7 1.1-1.3 3.1.3 1.5 1.1 6.4 1.7 11 1.1 8.3 1.2 8.4 3.8 7.7 1.4-.4 2.7-.8 2.8-.9.2-.1-.3-5.1-.9-10.9-1.3-11.2-1.3-11.2-6.1-10zm47.4 9.1c-1.6 12.7-1.5 13.2 1.4 13.2 2.7 0 2.7-.1 4.5-11 .6-3.6 1.4-7.5 1.7-8.8.5-2 .1-2.2-3-2.2h-3.4l-1.2 8.8zm-72-3.9c-1.1.7-.8 2.7 1.5 11 2.8 10.1 3.8 11.4 7.2 9.2 1.4-.8 1.2-1.5-2.9-17.4-1-3.7-2.8-4.7-5.8-2.8zm97.5 1.2c-.3.8-1.6 5.5-3 10.6-2.1 7.9-2.2 9.2-.9 9.7 3.5 1.4 4.3.4 7.3-9.5 1.7-5.5 3-10.2 2.8-10.4-.2-.2-1.5-.6-3-1-1.9-.5-2.9-.3-3.2.6zm-119.8 6.5-2.7 1.4 1.8 4.3c7.2 16.4 6.8 15.8 9.6 14.5 1.4-.6 2.4-1.6 2.2-2.2-.3-.6-1.9-4.9-3.7-9.6-1.9-4.7-3.6-8.8-3.9-9.2-.3-.3-1.8 0-3.3.8zm142.3 4.2c-4.4 8.6-6.9 16-5.8 17.1 2.6 2.6 4.4.9 8.9-8.8l4.6-10-2.9-1c-2.7-.9-3-.8-4.8 2.7zM310 96.9l-2.4 1.9 2.5 3.9c1.4 2.1 4.1 6.2 5.9 9 1.7 2.9 3.5 5.3 3.9 5.3.3 0 1.4-.7 2.5-1.5 1.8-1.3 1.7-1.5-.7-5.7-1.5-2.4-3.9-6.7-5.4-9.6-1.5-2.8-3-5.2-3.3-5.2-.3 0-1.6.9-3 1.9zm186.3 5.3c-1.5 2.4-3.9 6.3-5.5 8.7-1.5 2.5-2.8 4.8-2.8 5.2 0 1.3 4.1 3.2 5 2.2 1.9-2.2 11-16.3 11-17.2 0-.9-3.1-3.1-4.4-3.1-.3 0-1.8 1.9-3.3 4.2zm16.3 18.3c-6.5 8.1-6.8 8.7-5 10 1.1.8 2.2 1.5 2.5 1.5.7 0 12-12.5 13.3-14.8.7-1.2-1.8-5.2-3.3-5.2-.3 0-3.7 3.8-7.5 8.5zM402 125.1v11l2.8-.3 2.7-.3.3-10.8.3-10.7H402v11.1zm-25.7-6.9c.3 1.3 1.3 6.2 2.3 11 1.5 8 1.9 8.8 4 8.8 1.2 0 2.5-.4 2.8-.8.2-.4-.2-5.4-1.1-11l-1.6-10.2h-3.4c-3.1 0-3.5.2-3 2.2zm50.7-2c0 .2-.7 4.1-1.5 8.8-2.2 12.3-2.1 13.2 1.2 12.8 2.6-.3 2.8-.8 4.5-8.8 2.5-12.3 2.4-13-1.2-13-1.6 0-3 .1-3 .2zm-73.2 6.5c-2.4.6-2.3 1.1 1.9 11.9 3.6 9 3.9 9.5 6.3 8.9 1.4-.4 2.6-.8 2.8-.9.1-.2-1.4-4.7-3.3-10.1-1.9-5.4-3.5-10-3.5-10.2 0-.4-2-.2-4.2.4zm97.3 1.6c-6.8 18.8-6.6 17.9-4.6 19.3 2.8 2.1 3.2 1.8 5.4-4.2 1.2-3.1 2.7-6.8 3.5-8.2 2.9-5.8 2.9-6.9-.4-8.1-2.8-.9-3.2-.8-3.9 1.2zm79.1 12c-3.9 4-7.2 7.7-7.2 8.4 0 .6.7 1.6 1.5 2.3 1.2 1 2.8 0 9.5-5.7 4.4-3.7 8-7.3 8-7.9 0-1-3.1-4.4-4.1-4.4-.2 0-3.7 3.3-7.7 7.3zm-60.4 5.9c-2.9 5.1-5.2 9.5-5.1 9.8.1.3 1 1.1 2.1 1.8 1.8 1.2 2.3.7 6-5 2.3-3.5 5-7.7 6.2-9.5l2.1-3.2-3-1.5-3-1.6-5.3 9.2zm20.2 12.5c-3 3.6-6.1 7.1-6.7 7.9-1.8 1.7-1.6 2.7.6 4.1 1.6 1 2.8.1 9.6-6.7l7.8-7.9-2.4-2c-1.3-1.1-2.6-2-2.9-2-.3 0-3 3-6 6.6zm54.3.4c-8.3 6-8.3 6-6.7 8.5 1.9 2.8 1.4 3 13.2-5.3 6.3-4.4 7.2-5.9 5-8.1-1.9-1.9-2.8-1.5-11.5 4.9zm-128.7 17.1c-.4 4-1 9-1.3 11.1-.6 3.8-.5 3.9 2.3 3.5 2.7-.3 2.9-.6 4.6-9.7 1.1-5.2 1.7-10 1.4-10.8-.3-.7-1.8-1.3-3.4-1.3-2.9 0-2.9.1-3.6 7.2zm89.9.5c-4.4 3.6-8.1 6.9-8.3 7.2-.1.4.6 1.5 1.6 2.4 1.7 1.5 2.3 1.3 9.9-4.1 8.4-5.9 9.6-7.7 6.6-10.5-1.7-1.4-2.4-1.1-9.8 5zm51.8 2.1c-5.1 2.6-9.3 5.2-9.3 5.8 0 .5.6 1.8 1.3 2.7 1.1 1.6 2 1.4 10.7-2.9 5.2-2.5 9.6-4.7 9.8-4.9.4-.4-2.1-5.5-2.7-5.5-.3.1-4.8 2.2-9.8 4.8zm-116.4-.1c-.5 1.5-2.4 5.8-4.1 9.7-2.9 6.6-2.9 7-1.2 8.3 1 .7 2.1 1.3 2.5 1.3.8 0 9.9-17.3 9.9-18.7 0-.9-4.2-3.3-5.6-3.3-.2 0-.9 1.2-1.5 2.7zm17.2 19.4-7.2 8.3 2.1 2 2 2 3.3-3.4c1.8-1.9 5.2-5.6 7.5-8.1l4.2-4.6-2.4-2.2-2.4-2.2-7.1 8.2zm59.7-1.3c-4.8 2.6-8.8 5.1-8.7 5.7 0 .5.5 1.7 1.2 2.6 1.1 1.4 2.1 1.1 9.7-2.5 11.6-5.6 11.1-5.2 9.8-8.1-.6-1.4-1.6-2.5-2.2-2.5-.6.1-5 2.2-9.8 4.8zm48.7 3.6c-8.8 3.3-10.4 4.7-8.6 7.5.8 1.2 2.4 1 10.3-1.4 5.1-1.5 9.7-3.1 10.1-3.5 1.1-1-.3-6-1.7-5.9-.6 0-5.1 1.5-10.1 3.3zm-92.7 15.4c-4.8 3.1-8.8 6-8.8 6.3 0 .3.6 1.3 1.3 2.4 1.3 1.7 1.8 1.6 8.8-2.3 11.2-6.2 11.3-6.3 9.8-9.5-.7-1.5-1.5-2.7-1.8-2.7-.3 0-4.5 2.6-9.3 5.8zm53.2 2.6c-8.8 3-9.5 3.5-9.2 5.7.2 1.3.5 2.5.7 2.7.4.5 19.8-4.9 20.7-5.7 1-.9-.3-6.1-1.6-6-.6 0-5.4 1.5-10.6 3.3zm-350.5 1.5c-6.9 1.2-11.3 4.8-13.4 11-1.4 4.2-1.5 37.2-.1 42.2 1.1 4 5.2 8.3 9.5 9.9 3.8 1.5 22.6 2.4 24.3 1.2.7-.5 1.4-2.4 1.5-4.3l.2-3.4-11.8-.5c-14.5-.6-14.7-.8-14.7-12.4v-8.1l11 .2c6.1.1 11.7 0 12.5-.3 1-.4 1.5-2 1.5-4.5V243h-25v-7.3c0-3.9.4-7.7.8-8.3 1.6-2.5 5.6-3.4 15.1-3.4H198v-8.5l-8.8-.1c-4.8-.1-10.5.2-12.7.5zm34.2.4c-.3.7-.6 15.1-.6 32-.2 33.9-.5 32.5 6.4 32.3l3-.1.3-26.5.2-26.5 11.8 25.9c8.4 18.5 12.5 26.2 14 26.9 1.1.5 3.7.6 5.6.3l3.6-.7V215h-9l-.1 24.2v24.3l-2.2-6c-4.8-12.7-15.3-34.8-18.2-38.1-2.6-2.9-3.8-3.5-8.6-3.9-4.3-.5-5.8-.3-6.2.8zm67.7-.2c-5 1.4-10.2 6.8-11.5 11.9-2.4 9.3 2 16.5 13.1 21.6 13.8 6.3 15 7.4 15 13.4 0 8.6-6 11.3-19.4 8.5-8.1-1.7-9.5-1.4-9.6 2.2 0 .6-.2 1.8-.6 2.6-.4 1.1 1.1 1.8 6 3.1 19.8 4.9 33.6-1.8 33.6-16.5 0-4.9-2-9.9-5.1-12.9-1.3-1.2-6.6-4.2-11.7-6.7-9.6-4.7-12.2-7.1-12.2-11 0-7.3 6-10.4 16.3-8.3 3.2.6 6.5 1.4 7.2 1.6.7.3 1.5-.5 1.9-1.9.3-1.4.9-3.2 1.2-4 1.3-3.4-16.1-6-24.2-3.6zm52.2 1c-3.8 3-4.8 5.4-10.6 26.9-2.8 10.7-6 22.4-7.1 25.9-2.9 9.7-2.7 10.8 2 10.7 2.2-.1 4.3-.4 4.6-.8.4-.3 1.7-4.4 2.9-9l2.3-8.3 12.5-.3 12.5-.3 2.3 8.6c1.3 4.7 2.7 8.8 3.1 9.1 1.7 1 7.8 1.3 8.4.5.3-.6-1.3-7.6-3.5-15.8-2.2-8.1-5.2-19.1-6.6-24.3-3.5-13-5.2-18.2-6.7-20-4.1-5.2-11.5-6.5-16.1-2.9zm8.4 7.9c.9 1.7 8 26.4 8 27.9 0 .8-19 .5-19.1-.3-.2-1.8 6.4-26.7 7.6-28.6 1-1.6 2.3-1.2 3.5 1zm49.9-9c-4.2.5-8.8 2.7-11.4 5.4-3 3.2-3.5 7.2-3.5 26.8 0 18.5.2 20.3 2.1 23.8 3.1 5.5 7.8 7.7 18.1 8.5 4.8.4 10.3.4 12.3.1 3.3-.7 3.5-.9 3.5-4.6v-4h-10.9c-14.8 0-15.6-.7-15.6-12.2v-8.3l8.4.3c4.6.2 10.4.1 12.8-.3 4.4-.6 4.4-.7 4.1-4.3l-.3-3.7-12.9-.3-12.9-.3.5-7.6c.7-10.7 1.6-11.3 15.9-11.3H410v-8.8l-8.2.1c-4.6.1-10.4.4-12.9.7zm182.9 3.3c-8.6 2-8.8 2.1-8.8 4.9 0 3.3-.5 3.3 15 .5 6.3-1.2 6.5-1.3 6.5-4.2 0-3.8-1.3-3.9-12.7-1.2zm-88.4 13.9c-9.5 2.8-10.1 3.2-9.6 5.4.5 2.6 1.8 2.9 7.2 1.5 1.9-.5 6.1-1.5 9.3-2.1 6-1.2 7.1-2.8 4.5-6.2-1.2-1.4-2.3-1.3-11.4 1.4zm49.6 3.9c-9.9 1.4-11 1.7-11 3.9 0 1 .5 2.2 1 2.5 1.3.8 19.4-.5 21-1.5.7-.4.9-1.7.4-3.3-.7-3-.8-3-11.4-1.6zm38.2 5.6c-5.2.3-6.3.7-5.8 1.9.3.9.6 2.2.6 3 0 1.6 7.3 1.9 16.8.8 4.9-.6 5.2-.8 5.2-3.5 0-3.2.6-3.1-16.8-2.2zM476 258.8v3l10.6.7c5.8.4 10.7.5 11 .2.3-.2.6-1.7.7-3.3l.2-2.9-11.2-.3-11.3-.3v2.9zm48.3 1.8c-.7.3-1.3 1.6-1.3 2.9 0 2 .6 2.3 5.5 2.9 3 .3 8 .9 11 1.2l5.5.6V261h-7.7c-4.3 0-8.7-.2-9.8-.5-1.1-.2-2.6-.2-3.2.1zm41.3 5.2c-.3.3-.6 1.5-.6 2.8 0 2.5 1.3 2.8 14.3 4l7.7.6v-3c0-3 0-3-6.7-3.6-3.8-.4-8.5-.8-10.5-1-2-.2-3.9-.1-4.2.2zM473 277.9c0 .5-.3 1.6-.6 2.4-.3.8.2 1.7 1.3 2 1 .3 4.7 1.7 8.3 3 11 4.1 10.7 4.1 11.8.8 1.2-3.4 1-3.5-11.4-7-7.9-2.3-9.4-2.5-9.4-1.2zm46.4 5.6c-1.2 3 .5 4.1 10.2 6.8 10.3 2.9 11.4 2.7 11.4-1.8 0-1.7-1.4-2.3-9.8-4.3-11.5-2.6-11.1-2.6-11.8-.7zm42.6 4.8c0 .9-.3 2.2-.6 3-.4 1.2 1.8 2 10.2 4.1 5.9 1.4 10.9 2.4 11.1 2.3.1-.2.5-1.7.9-3.3l.6-3-9.9-1.8c-5.4-1.1-10.4-2.1-11-2.3-.7-.3-1.3.2-1.3 1zm-303.3 6.3c-.4.4-.7 6.3-.7 13.1 0 10.3.2 12.3 1.5 12.3 1.1 0 1.5-1.2 1.5-5 0-5 0-5 3.3-5 3.8 0 9.3-3.1 10.1-5.8.8-2.5-.8-6.8-3.1-8-2.5-1.3-11.7-2.5-12.6-1.6zm10.5 3.8c3.6 4.4 1.5 9.3-4.5 10.3l-3.7.6v-6.5c0-3.6.2-6.7.5-7 1.1-1.1 6.1.5 7.7 2.6zm70.3-3.5c-.3.6 1.4 1.1 3.7 1.3l4.3.3V308c0 10.1.2 11.5 1.8 11.8 1.5.3 1.7-.8 1.7-11.7V296h4.6c2.7 0 4.3-.4 3.9-1-.8-1.3-19.2-1.3-20-.1zm57.3 1.8c.8.3 1.2 3.6 1.2 11.3 0 7.7-.4 11-1.2 11.3-.7.3.5.5 2.7.5s3.4-.2 2.8-.5c-1.6-.6-1.7-10-.3-13.7.6-1.7.6-2.6 0-2.6s-1-1.6-1-3.5c0-3.2-.3-3.5-2.7-3.4-1.6 0-2.2.3-1.5.6zm-81.8 1.8c0 .8.9 1.5 2 1.5s2-.7 2-1.5-.9-1.5-2-1.5-2 .7-2 1.5zm-35.4 5.1c-1.8 1.7-2 3-.7 3.8.4.3 1.3-.6 2-2 .9-2 1.7-2.5 3.9-2.2 2.6.3 2.7.5 2.9 6.8.1 3.6.2 7.3.2 8.2.1 1.2.9 1.8 2.7 1.8 1.7 0 2.3-.4 1.8-1.2-.4-.6-.8-4-.8-7.6-.1-5.1-.5-6.7-2.1-7.8-2.5-1.9-8-1.8-9.9.2zm19.2 6.6c.3 5.9 0 8.3-1 8.9-.8.6.4.8 3.2.8 2.5 0 3.9-.3 3.3-.6-.9-.3-1.3-2.6-1.3-6.4 0-9.5 2.8-12.8 5.5-6.7l1.4 3.3.1-3.8c0-3.3-.3-3.7-2.4-3.7-1.4 0-2.8.5-3.1 1-.4.6-1.2.7-1.8.3-3.7-2.3-4.2-1.4-3.9 6.9zm16-7c.9.9.6 12.5-.3 15.5-.3.8.6 1.3 2.3 1.3h2.7l-.5-8.7c-.5-8.3-.6-8.8-2.8-8.9-1.5-.1-2 .2-1.4.8zm12.4.4c-4.5 3.1-1.8 7.3 6.2 9.5 3.3.9 3.7 1.4 3.4 3.4-.4 1.6-.1 2.2.9 1.8 1.7-.6 1.7-5.9.1-7-.7-.4-3.3-1.5-5.8-2.3-5.4-1.8-6.4-4.3-2.3-5.8 1.5-.6 2.1-1.1 1.3-1.1-.9-.1-2.6.6-3.8 1.5zm6.7-.7c.8.5 2 2.2 2.7 3.8l1.2 2.8.1-3.1c.1-2-.5-3.4-1.5-3.8-2.4-.9-4.1-.7-2.5.3zm26.6 1.6c-3.5 3.4-3.5 9.6 0 13 2.5 2.6 7.6 3.3 10.5 1.5 1-.6.3-.7-2.4-.3-3.1.5-4.2.2-5.2-1.2-1.9-2.6-1.8-11.9.1-13.5 2.3-1.9 5-.8 5.3 2.3.4 3.3 4.2 4 4.2.8 0-4.9-8.5-6.7-12.5-2.6zm21.5-1.8c-4.9 2-6.6 10-2.9 14.7 2.7 3.5 9 3.7 11.3.4.9-1.2 1.6-2.7 1.6-3.3-.1-.5-.8.2-1.6 1.7-1.1 2.1-2.2 2.8-4.4 2.8-3.6 0-5-2.3-5-8 0-5.4 1.5-8 4.6-8 1.6 0 2.8.8 3.6 2.5.6 1.4 1.5 2.5 1.9 2.5 1.2 0 .6-4.3-.6-5.2-1.2-.9-6.3-.9-8.5-.1zm23.8.3c2 .9 2.2 1.6 2.2 8.4 0 5-.4 7.6-1.2 7.9-.7.3.7.5 3.2.5s3.9-.2 3.3-.5c-.9-.3-1.3-2.8-1.3-7.3 0-7.7-1.4-10-5.8-9.9-2.6 0-2.6.1-.4.9zm106 1.5c-.6 1.4-.9 2.7-.7 2.9.2.2 4.7 2.4 9.8 5l9.5 4.7 1.3-2.3c1.9-3.6 1.6-4.3-2.9-6-2.4-.9-6.9-2.8-10.1-4.2L513 302l-1.2 2.5zm43.7 6.6c-.4 1.1-.5 2.3-.2 2.6.3.2 4.7 2.2 9.9 4.3 8.6 3.6 9.4 3.8 10.6 2.2 2.3-3.1.8-4.5-8.3-7.8-10.8-3.9-11.2-4-12-1.3z"/>
  <path d="M280.6 311c-6.9 2.1-5.5 9.1 1.7 8.9 3-.1 3-.1.7-.8-1.8-.5-2.6-1.5-2.8-3.4-.3-2.3.2-3 3-4.2 3.6-1.6 2-1.8-2.6-.5zm44.5 4.7c-.1 2.4.4 3.3 2 3.8 1.1.4 2.3.4 2.6.1.4-.3.1-.6-.5-.6-.7 0-1.8-1.5-2.6-3.3l-1.4-3.2-.1 3.2zm47.4-.6c-.4.6-.5 1.2-.2 1.5.2.3.7-.2 1-1.1.7-1.7.1-2-.8-.4zm128.3 8.5c-1 2.1-.9 2.7.4 3.5.8.4 4.7 3.3 8.6 6.3 6.5 5 7.1 5.3 8.5 3.8.9-.9 1.7-2.2 1.9-2.9.2-.9-16.3-13.3-17.8-13.3-.3 0-1 1.2-1.6 2.6zm45.4 7.8c-1 2.3-.7 2.7 7.8 7.5 5 2.8 9.4 5.1 10 5.1 1.3 0 3.2-3.8 2.5-5-.6-.9-17.7-10-18.8-10-.2 0-.9 1.1-1.5 2.4zm-59.5 8.4c-1.6 1.7-1.2 2.3 5.6 9.6 5.3 5.7 7.6 7.6 8.9 7.1 3.8-1.5 2.9-3.8-4.4-11.2-4-4-7.5-7.3-7.9-7.3-.3 0-1.3.8-2.2 1.8zm47.8 10.2c-2.1 2.3-2.6 1.8 7.8 9.5 7.5 5.6 7.8 5.7 9.7 4 1.1-1 2-2.2 2-2.6 0-.6-12.7-10-16.6-12.2-.6-.4-1.9.2-2.9 1.3zm-64.9 3.5c-1.7 1.3-1.5 1.8 4 10.4 3.3 5 6.2 9.1 6.5 9.1.4 0 1.6-.8 2.8-1.8l2.1-1.7-6-8.5c-3.3-4.7-6.3-8.6-6.7-8.7-.5-.1-1.6.4-2.7 1.2zm-19.5 10.4c-1.2.8-.7 2.6 2.4 10.8 2.1 5.4 4 9.9 4.1 10.1.1.2 1.6-.3 3.3-1l3.1-1.3-4.3-9.5c-4.2-9.3-5.8-10.9-8.6-9.1zm70.2 2.6c-.7.8-1.3 1.8-1.3 2.2 0 .5 3.4 4.2 7.5 8.3l7.5 7.4 2.2-2.3 2.3-2.3-8-7.4c-4.4-4-8.2-7.4-8.5-7.3-.3 0-1.1.6-1.7 1.4zm-91.7 4.4c-.3.5.3 5.3 1.4 10.6 1.1 5.4 2 9.9 2 10.1 0 .7 4.5.4 5.6-.4.8-.5.4-3.6-1.5-11-2.3-9-2.8-10.2-4.8-10.2-1.2 0-2.4.4-2.7.9zm75 11c-1.6 1.7-1.3 2.2 4.4 10 3.3 4.4 6.7 8.1 7.4 8.1.7 0 2-.8 2.9-1.8 1.4-1.6 1.1-2.3-5.1-9.9-3.7-4.5-7-8.2-7.3-8.2-.3-.1-1.3.7-2.3 1.8zm-18.3 12.5c-2.3 1.1-2.3 1.2 2.8 10.1 2.7 5 5.3 9.3 5.7 9.7.4.4 1.8-.1 3.1-1.1l2.4-1.8-5.2-8.6c-2.9-4.8-5.5-8.8-5.9-9.1-.4-.2-1.7.1-2.9.8zm-20.5 9.8c-1.5 1.2-1.2 2.2 2.1 10.8 3.4 8.6 4 9.5 6.2 9.2 1.3-.1 2.7-.6 3.1-1 1-1-7.3-20.2-8.7-20.2-.6 0-1.8.6-2.7 1.2zm-21 6.5c-2.2.6-2.3-.2.7 11.8 1.4 5.5 2.5 10.1 2.5 10.3 0 .3 5.3-.9 5.8-1.4.9-.7-5.2-21.4-6.2-21.3-.6.1-1.9.3-2.8.6zm-21.6 4.1c-2.1.3-2.3.8-1.9 3.5.3 1.8.9 6.7 1.3 10.9.6 7.7.7 7.8 3.5 7.8 1.5 0 3-.3 3.2-.8.6-1-2.2-20.5-3.1-21.2-.4-.3-1.8-.4-3-.2zm-24.2 3.9c0 1.6-.3 6.5-.7 11l-.6 8.3h7.1l.1-11 .2-11H401c-2.6 0-3 .4-3 2.7z"/>
</svg>
