<svg xmlns="http://www.w3.org/2000/svg" viewBox="0 0 567.84 567.84">
  <defs>
    <clipPath id="a">
      <path d="M0 0h567.84v567.84H0Zm0 0"/>
    </clipPath>
  </defs>
  <g clip-path="url(#a)">
    <path fill="#fff" d="M0 283.922C0 127.109 127.113 0 283.922 0 440.73 0 567.84 127.11 567.84 283.922c0 156.808-127.11 283.918-283.918 283.918C127.113 567.84 0 440.727 0 283.922"/>
  </g>
  <path fill="#194073" d="M245.438 234.27s-.258.132-.528.082c0 0-.406-.188-.273-.477l.34-.613.75-.473.816-.41.883-.274.816-.406 1.567-.613 1.359-.477.887-.41 1.02-.27 1.09-.273.339-.34.066-.546-.066-.34-.406-.34-.547-.137s-.543-.07-.883 0c-.34.067-.75.344-.953.344-.203 0-1.293.68-1.293.68l-1.496.746-1.156.476-1.09.406-1.293.208s-.883 0-1.09.07c-.203.066-1.344-.14-1.29-.14 0 0-.718.015-1.089-.274-.121-.086.121-.73.105-.614 0 0 .508-.234.747-.203 0 0 .558-.05.68 0l.546-.07h1.973l1.226-.27s.266-.187.383-.632l.192-.934-.208-1.156-.41-.547-.675-.477-1.09-.68s-.614-.34-.75-.34c-.133 0-1.02-.343-1.02-.343l-.883.07s-2.39.082-2.918.91l-.586.106.192-2.125.453-1.488 1.258-.086 1.875.37.949.34.883.481 1.293.477.883.472.886.344 1.364-.07.613-.203.137-.543-.278-.75-.68-.817-1.359-1.02-1.43-.816-.613-.476-.68-.41-.816-.203-1.086-.203h-1.226s-1.121.066-1.192 0c0 0-.558-.36-.508-.547l-.136-1.086-.035-.711.816-.614.887-.41 1.632-.203h4.422l1.157.07 1.632.274 1.157.473 1.906.886.953.746 1.77 2.043 1.5 1.703 1.355 1.907 1.707 1.969 1.629 2.18s.41.425.684.816c.117.171.253.921.203 1.09l-.137 1.156s-.477.64-1.328.761l-1.496.016h-4.29c-.202 0-1.495.137-1.835.207l-1.227.274-1.222.539-1.02.41-1.703.613-1.836.613-1.856.532m-2.042-17.73-.458.456.825.274 4.37 1.101 4.446 3.246 2.29 2.742 2.296 1.575s1.43-1.04.324-2.286l-1.37-1.625-2.673-3.203-1.695-.972-2.09-.786-2.351-.457-2.348-.199-1.566.133M379.797 392.18c.98-1.266 1.148-4.688 12.926-5.563 2.691 0 4.027 3.453 2.086 3.508-.864.027-1.622-.066-1.622-.066-2.496.066-1.878 1.46-1.878 1.46 0 .004.867 2.149 4.703 1.856.336-.031 1.82-.074 2.187-.176 5.38-1.422 1.328-5.367 1.328-5.367-1.18-1.352-4.351-2.187-4.351-2.187l-1.328-.297-2.203-.207-4.036.507c-6.43 1.34-9.023.868-9.023.868l1.21 5.664m-7.846-17.082 2.823 1.297s5.598 4.218 11.961 3.214c.329-.054 11.614-1.086 16.243 3.88 0-1.055.093-3.087-.122-3.544-1.636-3.449-9.093-3.414-9.093-3.414-8.332 2.059-14.325-.785-14.325-.785s-4.703-3.523-5.039-3.7c-.336-.163-3.636-1.233-3.636-1.233l1.187 4.285"/>
  <path fill="#194073" d="m407.594 380.367-4.07-6.437c-2.051-2.356-7.555-2.52-7.555-2.52l-3.36-.172s-5.207.469-5.714.504c-5.493.387-11.657-2.012-11.657-2.012l-2.015-.671s-.672-2.586-.672-2.934c0-.324.168-2.68.168-2.68 1.05 3.727 4.703 3.524 4.703 3.524 1.156.316 1.68-.168 1.68-.168l5.949.344 8.566-.344s3.574.324 3.91.344c6.75.27 8.86 7.453 8.86 7.453l1.207 5.77m.133-21.321-2.524-3.36-2.18-1.843-2.351-1.688-2.352-1.34-2.18-1.347-2.859-1.504-4.031-2.188-3.523-2.02-3.028-2.35-2.426-1.509-1.336-1.511-.171-3.024.336-3.765 1.007-2.856.672-2.523.508-2.684.402-2.515-.164-1.852-.238-2.348-.508-2.527 1.953-1.356 1.309 2.204.508 1.847.164 2.18-.164 2.184-.168 2.855-.512 2.352-.836 2.683-.836 2.024-.672 2.25-.41 2.523.41 2.18 2.18 1.68 2.86.835 4.195 1.852 3.695 1.172 3.02 1.18 2.691 1.68 2.352 1.683 2.347 1.676 2.692 2.351 2.52 2.856-.505 1.515-1.847 2.348"/>
  <path fill="#194073" d="M412.004 349.031c-1.942-3.687-8.063-4.031-8.063-4.031-.593-.164-1.007-.84-1.007-.84s.144-.433.671-.508c2.625-.363 8.06 2.078 8.06 2.078l.507 1.286-.168 2.015m-26.617-32.211s3.48 3.176 4.031 5.54c-.227.656-3.695 9.41-3.695 9.41-1.313 5.156-.192 7.507 3.468 6.765l20.043 1.195-1.843-5.543c-.2.141-1.168 1.168-2.657 1.032-20.078 3.96-15.152-4.293-15.152-4.293.152 1.37 2.856-7.563 2.856-7.563.851-2.293-1.68-5.37-1.68-5.37-.164-.696-5.324-6.454-5.324-6.454l-2.403 1.414c.004 0 1.899 2.973 2.356 3.867"/>
  <path fill="#194073" d="M394.863 332.363c1.93-2.586 3.211-4.43 3.864-5.539 2.558-5.644-4.2-8.398-4.2-8.398-.906-.59-4.03-.5-4.03-.5l-3.528-2.02c.402.504-1.676-1.68-1.676-1.68s8.652.688 10.922 1.56c6.742 4.687 7.855 9.015 3.015 13.722l-1.68 3.262-1.335 4.168-2.918-.114 1.566-4.46m2.45 34.241v-1.34l.84-4.202.503-3.024.172-1.18v-.836l.836.672.508 1.344.332 1.344v1.008l-.164 1.004-.676 1.851s-.887.961-.336 3.7c.059.28.508 1.241.508 1.241l-1.18.168s-.668-.335-.836-.671c-.172-.34-.507-.739-.507-1.079m-4.032 1.918-.84-.671-.84-1.247-.335-.84v-.84l.336-1.007.332-1.68.507-2.02.168-2.35-.336-1.68-1.171-2.012-1.344-1.172-1.68-1.516-2.52-1.343-2.859-1.348-1.582-.832-2.515-1.348-3.196-2.351-1.68-1.68-1.171-1.852-.672-2.347-.172-2.52.508-2.015.84-2.082.84-1.848.671-1.512.168-3.363.168-1.172-.508-2.352-.336-1.511-.332-1.008s-.828-2.777-.32-3.277c.5-.508 3.059-1 2.77-.997-1.832-.242 3.453.5 2.422 1.247.316.511.168 2.187.168 2.187v2.016l-.508 2.183-.504 1.848-.496 2.184-.508 1.68-.676 1.847-.5 1.68-.336 1.418-.672 2.52-.172 2.347.672 2.523 1.18 2.012 1.508 1.515 1.847.833 2.762 1.52 2.852 1.175s1.515.668 2.015 1.004c.504.336 3.36 1.511 3.36 1.511l1.344 1.176 1.511 1.848 1.176 1.508.336 2.02-.168 3.523-.668 3.191v2.856l.332 1.75-.332 1.007-.844-.336m-32.821-48.515v1.68l-.335 4.199-3.191 9.812c-.657 3.52-.32 6.262 1.007 8.23l2.856 5.044 1.008 1.843s2.37 7.414-.836 9.239c-4.871 5.488-6.387-.836-6.387-.836l-2.352-4.535-1.507-5.04c-.301-1.273-3.032-4.874-3.032-4.874l-1.41-1.68-1.344-1.176-1.847-2.184-1.516-1.175-1.008-.672s-1.007-.5-1.343-.5c-.336 0-1.344.34-1.344.34s-.84.832-.672 1.172c.172.332.672 1.511.672 1.511l1.18.668 2.347 1.176 1.848 1.508 2.183 2.687 1.583 2.352 1.847 4.703 1.008 3.531 1.512 3.188 2.246 3.656c2.336 2.887 6.969 1.098 7.305 1.098.335 0 1.875-1.227 1.875-1.227s1.515.45 1.847-.226c.34-.672.668-4.473.668-4.473l.168-2.86-.168-2.011c.094-1.172-1.18-4.535-1.18-4.535l-3.859-6.555c-1.91-4.336 0-9.066 0-9.066l2.52-6.454.84-2.523 1.007-4.363v-1.18c-.898-2.32-3.36-1.172-3.691-1.008-.336.172-.504 1.516-.504 1.516"/>
  <path fill="#194073" d="m364.824 362.84-.508 1.683-.664 1.344-.84 1.008-1.011 1.074-1.848 1.516c-4.867 2.52-8.23.672-8.23.672.214.215-2.692-2.016-2.692-2.016l-6.449-9.476-2.516-3.864-4.035-4.539c-5.75-4.363-8.562 1.012-8.562 1.012l-.84 1.344 3.187-7.391c4.329.55 9.407 4.031 9.407 4.031l10.148 15.45 2.688 3.261c3.945 1.184 5.71-.91 5.71-.91s.7-.64 1.344-1.344c.614-.664 2.352-1.007 2.352-1.007s1.008-.836 1.348-1.008c.332-.168 2.011-.84 2.011-.84"/>
  <path fill="#194073" d="m351.43 316.52.05 2.433c1.063 1.219.747 2.067.747 2.067.16.007-1.008 1.171-1.008 1.171l-1.68 1.848-1.508 2.691-1.011 2.512-.336 2.356c-.153 3.644 2.164 8.43 2.164 8.43l3.03 4.656c2.165 4.16 1.337 7.992 1.337 7.992l-.652 3.012 1.68 3.359.605 1.086s.406-1.762.57-2.098c.168-.336.465-6.933.465-6.933.238-2.375-.801-5.668-.801-5.668-4.543-6.66-5.375-9.739-5.375-9.739-1.02-3.644-.652-5.593.504-6.953l2.351-3.191 1.344-1.68 1.512-1.348s.504-.5 1.008-1.175c.508-.668 1.008-1.344 1.008-1.344l.336-1.008s-.168-1.348-1.012-1.68c-.836-.332-1.676-1.007-1.676-1.007l-1.934-.907-1.718 1.118m-1.692 60.367c.137 0-1.097-.242-1.097-.242l-2.075.078c-2.32-.934-4.082-.137-4.082-.137l-4.218 3.27-2.45 2.035-1.632 1.773c-1.313 1.441-2.387.703-2.387.703l-2.922-2.062.95-.414 1.913-.106 4.395-2.969 4.172-4 .953-.812c.07-4.602-3.266-3.402-3.266-3.402l-.816.68-.817 1.363s-.816.543-1.359.136c-.55-.41-.684-1.226-.684-1.226s.63-1.825 2.293-2.836c1.903-.707 3.422-.7 3.422-.7l-.136-1.09c-1.09-2.679-5.157-2.988-5.157-2.988-6.18.254-5.863 3.946-5.863 3.946l-.523 1.699-2.164-6.422 2.824.094s3.379-1.188 3.648-1.188c.274 0 .973-.222 3.3-.175 2.4.207 5.84 4.496 5.84 4.496l2.727 6.125c.227.754.946 1.218.946 1.218l2.726 1.633c0-.008 1.406 1.52 1.54 1.52m15.843-4.782c4.23-10.082 6.148-9.824 4.527-22.19.18-.474-6.671-9.118-6.671-9.118-.598-.86-.54-3.813-.54-3.813.524-3.605 2.993-7.074 2.993-7.074.808-.723 1.629-3.539 1.629-3.539l.687-5.039v-1.086l3.05-1.152s-.71 11.59-1.96 12.586c-2.695 4.882-2.965 8.644-.82 11.293l2.859 3.812c.441.402 1.637.406 1.637.406l4.625 3.68 5.437 4.895 3.543 3.945c2.402 4.086 1.54 7.863 1.54 7.863-.61.133-1.727-.219-1.727-.219l-.09-3.421c-.117-2.168-2.309-4.36-2.309-4.36l-4.398-4.488-5.266-4.086-.812-.27-.137 1.223.543.953 1.355 1.633 7.078 9.84 1.766 3.082-4.75-.215-.273-1.82c-.371-3.992-5.309-8.707-5.309-8.707l-.406 2.312-.555 6.121.688 3.13s.187 4.53.054 4.257c-.136-.27-7.988-.434-7.988-.434"/>
  <path fill="#194073" d="m351.738 319.02 1.645 1.41c22.96 1.504 28.36-4.645 28.36-4.645 1.945-1.187 4.35-4.86 4.35-4.86l2.528-1.019-.277-3.265-2.696 1.074-2.468.422-1.637-.274-.547 2.864c-.871 3.66-20.137 7.078-20.137 7.078l-2.996-.14h-2.586l-1.906.542-1.633.813"/>
  <path fill="#194073" d="M354.191 316.984s.133-1.64.266-1.918c.14-.265.816-1.082.816-1.082 10.524.067 25.586-5.308 25.586-5.308 2.18-.238 2.176-.817 2.176-.817 1.93-2.937.445-3.418.445-3.418l-3.3 1.11c-11.145 6.023-27.664 6.558-27.664 6.558l-.645 1.465.133 1.903 2.187 1.507m-1.777-5.699c-.324-1.223 1.227-1.223 1.227-1.223 7.73-.109 21.23-4.898 21.504-5.035.273-.132 4.625-1.906 4.625-1.906 1.664-1.355 3.445-.758 3.445-.758l-.18-3.054-.812-2.176s-.692-1.13-.692-.86c0 .274-2.984 3.989-2.984 3.989-3.676 3.968-17.555 6.535-17.555 6.535l-2.719.41h-4.082c-2.148-.012-2.222-3.156-2.222-3.156l-2 2.058.816 3.407 1.63 1.77"/>
  <path fill="#194073" d="M382.395 297.242c-.235-2.297-4.325-.969-4.325-.969-7.203 5.184-19.289 7.414-19.289 7.414-6.265-.507-7.183 1.72-7.183 1.72-2.391-.255-2.993-1.634-2.993-1.634s-.683-5.171-.683-5.445c0-.27-.672-1.219-.672-1.219l1.656.512 2.965 3.188c9.984.492 14.02-5.063 14.02-5.063 5.406-2.02 7.195-2.648 8.71-4.492.7-.844 1.364-.676 1.633-.817.27-.136 5.293-.214 5.293-.214l.868 7.02"/>
  <path fill="#194073" d="M307.914 284.184s3.14-2.387 3.406-2.723a26.948 26.948 0 0 1 1.364-1.496c.27-.274 1.632-1.227 1.632-1.227.774.133 3.672 0 3.672 0 .035.067.48.848 1.172 1.36.676.488 1.684 1.636 1.684 1.636l1.77 1.223s1.773 1.227 2.042 1.227c.278 0 2.317.68 2.317.68l1.765.675 1.774 1.094 2.449.812 1.898.953 1.094.813 1.09.812 2.894 2.278 1.704 1.125 1.562 1.035c1.043 2.176 5.68 3.187 5.68 3.187l-1.223-2.043-.68-1.902-.136-2.316s-.274-1.496-.274-1.77c0-.273-.406-1.222-.406-1.222l-2.039-1.36-1.734-1.086-3.446-.683-1.492-.817-2.558-1.375s-2.204-.8-2.48-.8h-1.903l-1.903-.68c-4.695-2.356-7.761-5.852-7.761-5.852l-1.63-1.637-1.363-.406-1.632-.137-2.313.137s-.941.028-5.719 3.266c-1.5 1.363-3.543.406-3.543.406.047-.308.688 2.723.688 2.723l1.496 2.722 1.082 1.368"/>
  <path fill="#194073" d="M366.168 295.977c-.09-.864-2.18-1.567-2.18-1.567l-4.683.223-3.809-.41-2.043-.68-1.5-.68-1.219-.812-1.226-.82-2.723-2.313-1.633-.406-1.77-.953-1.402-1.676 2.352.176s2.723.14 2.992.14c.278 0 2.59.133 2.59.133s2.04.543 2.313.543c.273 0 1.906.543 1.906.543l2.312 1.227 3.266 1.5c3.473 2.043 5.984-.415 5.984-.415l1.64.274c1.165 4.207 6.126 3.133 6.126 3.133-.477.648-7.293 2.84-7.293 2.84m-34.438-87.739-1.363-.543-1.633-.949-1.082-.816-3-.547-1.632-.953-2.313-1.496-1.215-1.762-1.234-2.047-1.903-3.133-1.093-2.855-.41-1.5v-.953l.55-.274c.828.059 1.899.684 1.899.684 1.465.578 3.265 2.312 3.265 2.312l1.637 1.36 1.363.68 2.997 1.09 1.761.542 4.492 1.086a25.876 25.876 0 0 1 4.903 1.906c4.46 3.086 5.035 6.532 5.035 6.532l.68 3.132.277 2.993-.14 2.312-.27 3.266.27 1.77.679 2.042.402 1.363c.09.973.09 1.563 0 1.766-.547.055-1.488-.543-1.488-.543-.566-.426-1.223-1.637-1.223-1.637l-.82-1.359-.406-2.043-.14-3.129-.27-2.586v-3.672c.425-3.558-2.313-7.351-2.313-7.351l-1.77-1.496-2.316-1.086-1.765-.684-3.672-.812-3.406-.547-3.266-1.496-1.496-1.086c-1.836-.227-1.086 1.496-1.086 1.496l.68 1.633 1.082 1.496c2.617 1.734 3.812 1.77 3.812 1.77s4.352.136 4.758.273c.414.133 1.504.543 1.504.543l1.355.683 1.227.95 1.094 1.496.128 1.226c-.82 1.73-3.125.953-3.125.953m19.141 62.25c-.676 1.012.246 1.742 1.637 2.043-.024.172 2.582.68 2.582.68.687.031 1.355-.816 1.223-1.223-.137-.41-.813-.816-.813-.816-2.035-1.774-4.629-.684-4.629-.684m-61.867-32.445c-.48.117-1.223-.543-1.223-.543-.816-1.207-.277-2.582-.277-2.582.09-.191.57-.707.812-.82.278-.118.957-.407 1.227-.407 1.5-.265 2.215-.082 3.402.407.254.062 1.364.683 1.364.683l1.355 1.086c.734.738 1.098 1.285 1.094 1.637 0 0 .183 3.816-.274 4.219-1.457 1.93-3.046 3.113-4.761 3.539l-6.258 1.492-1.77.684-.953 1.222-1.172 2.79s-1.054-6.31-1.328-6.446c-.273-.137-.765-3.824-.765-3.824l4.218 3.398c6.47.031 9.797-3.266 9.797-3.266l.41-1.765c-.039-.98-.086-1.527-.136-1.637 0 0-.848-1.414-3.13-.68-.613.473-1.632.813-1.632.813"/>
  <path fill="#194073" d="M259.25 164.426c1.02-.871 5.95-3.09 5.95-3.09-.012-.133 6.171-1.98 6.171-1.98s3.32-.958 4.188-1.102c12.261-1.902 21.687-2.676 28.261-2.32 12.762-.063 23.563 2.976 23.563 2.976 6.305 1.356 19.41 6.395 19.41 6.395 2.547.972 11.133 5.511 15.648 12.562.34.528 9.477 15.223 9.477 15.223 2.75 5.734 6.219 18.484 6.219 18.484l1.718 7.309 2.215 8.152c3.305 12.465 3.973 19.406 3.973 19.406l.668 5.73 1.129 10.29.402 5.375 1.102 8.598c.219.976-2.645 10.136-2.645 10.136l-3.304 4.41-3.106.883v-1.765l3.547-4.63c.367-.058 2.422-4.406 2.422-4.847 0-.445-.664-17.855-.664-17.855l-.442-9.489-.601-5.949c.176-.695-.938-7.715-.938-7.715.028-.418-1.547-4.633-1.547-4.633l-1.558-5.507-1.54-5.309-1.628-6.488-.992-5.926c-.133-2.117-3.555-12.047-3.555-12.047-4.461-10.246-13.223-21.176-13.223-21.176l-5.511-5.066c-30.223-18.418-65.176-14.55-66.368-14.55 0 0-6.914.82-13.683 1.987-6.301 1.497-9.938 3.293-9.938 3.293-1.629.993-4.168 1.332-4.168 1.332-1.222-.07-.652-1.097-.652-1.097"/>
  <path fill="#194073" d="M312.684 169.27c.625.28 1.796.94 3.523 1.984 7.145 4.539 12.887 7.351 18.523 9.125.446.223 11.047 4.68 13.668 10.715 2.477 3.597 3.528 7.066 3.528 7.066-.059-.633 1.543 5.07 1.543 5.07l1.98 10.36 1.324 3.746c1.47 4.406 4.633 7.05 4.633 7.05l8.375 7.29s4.832 5.332 4.555 9.87c.277.919-.8 1.356-1.25-.171-.527-1.777-.668-2.137-1.234-3.2-1.02-1.913-5.157-5.616-5.157-5.616l-4.847-3.528-4.852-3.761-3.305-2.864c-2.039-3.687-1.546-6.836-1.546-6.836l.226-4.843c.559-2.426-1.988-10.586-1.988-10.586l-.953-2.262-.809-1.922-1.543-3.32c-.23-.188-1.094-.907-3.101-2.867-4.813-5.637-13.664-8.157-13.664-8.157-3.817-.797-6.649-1.652-9.477-3.082-8.766-5.32-8.152-9.261-8.152-9.261"/>
  <path fill="#194073" d="M261.176 173.43c2.246-1.223 9.976-3.055 9.976-3.055.5-.281 7.504-1.324 7.95-1.324.437 0 13-1.762 13-1.762 5.48-.39 9.699 1.32 9.699 1.32 1.558.438 2.863 1.54 2.863 1.54l7.059 5.511 7.066 4.852s4.188 2.199 4.848 2.422c.66.222 9.476 3.308 10.36 3.523.878.223 7.491 3.313 7.491 3.313s9.328 5.332 8.54 9.03c-3.926-4.148-10.962-7.05-10.962-7.05-19.207-6.414-22.039-9.477-22.039-9.477l-5.304-3.527-4.633-3.086c-6.086-4.863-14.567-5.238-14.567-5.238-8.382-.727-22.84 2.055-22.84 2.055-5.765 1.597-8.507.953-8.507.953"/>
  <path fill="#194073" d="M324.52 165.629c-.446.016 3.03.266 5.949 1 .883.219 5.207 1.809 5.73 1.984.418.133 7.84 3.356 8.82 3.961 4.493 2.574 7.536 4.688 9.27 6.172 5.027 4.309 6.242 7.156 6.242 7.156 3.543 4.715 6.258 9.203 8.082 15.786l1.547 5.289.883 4.628 1.32 7.711 1.102 4.625-4.41-6.168-1.61-2.09-1.257-2.093-1.32-3.969c-4.419-19.594-7.934-23.82-7.934-23.82-4.461-6.754-11.258-10.578-11.258-10.578-1.399-.946-9.918-4.852-9.918-4.852s-7.098-2.64-7.934-2.867c-5.074-1.36-3.304-1.875-3.304-1.875m-44.758 24.578c4.414 2.48 7.273 2.863 7.273 2.863 3.504.016 7.492.899 7.492.899s2.649 1.324 3.086 2.644c.446 1.325.446 1.985.446 1.985l.214 4.187s.883 4.852 1.547 5.07c.66.223.618 1.45 9.914 3.747.43.105 4.805 1.949 5.313 2.644 1.258.984 2.062 1.863 2.422 2.645 3.273 5.379 1.101 16.988 1.101 16.988l.442 2.426c4.168 3.601 6.39 3.086 6.39 3.086v-1.325c0-.441-1.101-2.644-1.101-2.644l-4.188-18.75c-1.8-3.516-9.715-6.836-9.715-6.836-4.625-1.16-4.847-4.625-4.847-4.625l-1.106-4.625-1.316-4.856c-1.2-6.148-6.613-5.964-6.613-5.964h-5.735l-2.86-.22-2.425-.44-3.75-1.543s-4.168-.922-1.984 2.644"/>
  <path fill="#194073" d="m280.395 199.352 2.675.562 1.985.656c1.808.082 2.203-.437 2.203-.437l3.969-1.32h1.324l2.64.437c5.168 1.223 5.512 4.41 5.512 4.41l-3.09-.879-2.867-.222-4.402-.22-3.09.22c-4.332 1.449-6.86-3.207-6.86-3.207"/>
  <path fill="#194073" d="M278.887 181.395c3.84 5.175 7.902 2.117 7.715 2.425l6.386-1.324c1.73-.121 3.383-.203 3.867-.14 2.899.199 4.06.675 4.782.894 1.988.574 3.566.805 6.12 4.754-.042-.367 2.204 4.191 2.204 4.191l1.781 4.645c2.75 10.457 13.223 14.324 13.223 14.324l6.172 1.762 1.984.887s2.41 1.843 2.863 3.082c.215.585 1.543 3.09 1.543 3.09l1.325 3.96 1.98 5.532 1.766 1.543 2.203 1.757 2 2.649c-.742.633-.442 2.199-.442 2.199 0 .25-2 .668-2 .668l-2.129.582c-1-.422-1.617-2.129-1.617-2.129l-.66-3.3-2.863-9.5c-2.172-5.571-6.176-6.606-6.176-6.606l-5.508-2.645-7.496-4.191c-5.46-2.574-8.39-12.121-8.39-12.121-2.293-9.586-6.614-11.696-6.614-11.696-2.273-2.367-13.59-1.03-13.59-1.03l-4.421 1.456c.496-.226-6.891 2.438-6.891 2.438s.223-3.524.223-3.965c0-.45.66-4.191.66-4.191"/>
  <path fill="#194073" d="M325.617 221.063c4.281 5.238 2.422 15.023 2.422 15.023l.887 4.629 2.863 4.187s5.07 5.73 5.29 6.172c5.882 6.676 4.468 13.028 2.206 18.086l-2.207 2.645-.437.882-.223 5.735.879 1.543c1.473.91 6.613 1.101 6.613 1.101s6.625 0 7.07.22c.434.218 3.082-.442 2.422-.884-.664-.437-1.761-.879-1.761-.879s-3.086-2.425-3.309-3.09c-.223-.66-.656-4.406-.656-4.847 0-.438-.664-1.98-.664-1.98-.176-.364-1.25-2.047-2 .218.136-.43-.446 2.426-.446 2.426l-.656 2.645-2.426 1.101c-.3.059-.671-.016-1.101-.223-.445-.332-.219-1.984-.219-1.984.313-.797 1.762-2.863 1.762-2.863l.883-2.867 1.101-3.97.438-4.644-1.102-3.968-1.32-2.645-5.285-7.05-2.426-3.305-2.43-3.309-1.098-3.969-.242-9.648c.137-2.926-2.84-6.235-2.84-6.235-3.351-1.316-1.988 1.746-1.988 1.746m-67.847-51.878 6.562-2.875 8.14-1.883c19.626-2.98 33.516-1.766 33.516-1.766 11.516 2.028 18.969 5.735 18.969 5.735s19.516 8.226 26.906 16.964c2.219 3.012 3.086 5.735 3.086 5.735l5.508 16.984c1.707 5.277 3.531 7.492 3.531 7.492 1.246 1.676 2.864 2.426 2.864 2.426l1.984.887c1.926.754 3.523 3.082 3.523 3.082 2.278 3.148 2.204 5.969 2.204 5.969.453.308 0 3.086 0 3.086l-1.985-2.422-3.894-3.926c-8.653-4.809-11.09-17.473-11.09-17.473l-1.543-6.61-2.211-6.612c-2.387-12.344-34.832-25.36-34.832-25.36-13.653-6.582-30.875-4.414-30.875-4.414-2.078.043-7.492.883-7.492.883l-14.121 2.426-5.485 1.199-3.265.473m114.148 125.769c.848-.055 1.363-.933 1.547-2.648l.664-3.086.437-3.965.22-3.309.444-3.523v-2.867c-2.324-5.703-10.14-9.035-10.14-9.035l-4.188-1.325-3.086-1.761-2.421-2.22-2.426-1.546-3.086-.879c-1.809-.113-.66-1.101-.66-1.101s1.101-.442 1.988-.442c.875 0 3.305.223 3.96.442.665.218 2.864.66 2.864.66s1.98 1.976 3.313 2.644c5.265 2.63 16.968 11.258 16.968 11.258 1.399.867 1.32 3.746 1.32 3.746v2.867l-.218 3.082-.66 2.203-1.106 4.848-.441 3.09s-.656 1.101-.875 1.543c-.227.437-1.324 1.539-1.324 1.539l-1.766.445-1.328-.66m7.492-23.805-2.86-4.855s-3-5.934-8.823-8.742c-3.38-.965-4.106-2.41-4.106-2.41-.074-.09-.074-3.844-.074-3.844.683-5.809-4.414-10.805-4.414-10.805s-6.168-3.3-6.61-3.527c-.445-.219-6.3-1.977-6.847-2.2-.41-.171-4.41-3.308-4.41-3.308l-.88-2.426 1.762 1.102 5.747 2.867 13.195 6.512c3.015 1.629 4.656 3.629 4.656 3.629.594 1.199 1.77 6.613 1.77 6.613.21 2.008 2.199 3.305 2.199 3.305.969.87 9.039 8.379 9.039 8.379 1.465 2.05.656 9.71.656 9.71"/>
  <path fill="#194073" d="M282.176 184.598c-.965-1.532-.649-3.422-.649-3.422 2.172-3.817 19.395-1.809 21.16-.883l7.708 4.187 8.175 4.407c14.114 7.254 23.907 9.511 23.907 9.511 4.734 2.844 4.082 14.528 4.082 14.528l.238 6.39.219 3.75.445 2.868c.238 1.933 1.98 3.097 1.98 3.097l17.41 10.14s4.762 3.02 5.29 10.802c-.008 2.933-1.32 4.406-1.32 4.406.105.637 0 1.984 0 1.984s.222.438 1.765 1.325c1.543.878 3.082 1.757 3.082 1.757l-.223-1.98-.879-3.086-.218-7.05.363-5.243c.164-1.34-.645-2.055-2.125-2.914l-2.211-1.102-8.809-4.406-3.086-1.766-4.414-2.648-2.863-3.098-1.765-3.308-1.098-3.961-.445-3.754v-3.082l-.2-4.059-.238-4.097c.777-6.328-12.805-9.918-12.805-9.918l-9.695-3.32-3.969-1.766-6.828-4.848c-.047-.336-6.851-4.625-6.851-4.625-9.024-4.851-18.973-4.27-18.973-4.27l-4.258.348c-3.527.559-5.418 2.38-5.418 2.38l-.223 1.76s.364 1.684.547 2.09c.262.59 1 1.66 1 1.66l2.192 1.216m-.586 20.132c.387.282 11.84 9.461 11.84 9.461 4.328 3.985 10.957 5.168 10.957 5.168 1.394.328 5.375.141 5.375.141 3.945 1.02 3.742 6.05 3.742 6.05 1.21 7.364-2.227 7.45-2.227 7.45-.972.586-1.761.883-1.761.883s-1.762 1.101-.215 1.32c1.535.223 7.285-.437 7.285-.437l-1.984-13.903c-1.504-5.445-9.125-4.832-9.125-4.832-1.704.34-4.016.07-4.016.07-5.106-1.296-8.3-4.425-8.3-4.425l-10.958-8.235c-3.172-1.16-.613 1.29-.613 1.29m87.164 87.574.52-3.524 1.285-4.64c.136-.61-.407-1.805-.407-1.805 0-.203-3.062-4.012-3.062-4.012-.371-.715-.14-3.304-.14-3.304.062-1.348-.708-4.11-2.302-8.282-1.878-3.043-5.07-3.968-5.07-3.968s-1.762-.696-1.762-.454c-.363.118-.367.477-.015 1.063 4.492 4.535 5.304 9.754 5.304 9.754.207.8.157.633.38 1.074.222.441.722 2.012.722 2.012l.883 2.203 2.426 4.848c.968 1.285-1.325 4.41-1.325 4.41l.223 3.086 2.34 1.539"/>
  <path fill="#194073" d="m368.395 293.406-.223-3.304s-.39-3.086-.879-3.532c-7.688-7.023-16.754-6.828-16.754-6.828l-1.543.438.738 1.101c18.102 3.98 16.028 8.645 16.028 8.645.789.941.425 1.5.425 1.5l1.102 1.316 1.106.664m-25.364-14.328s5.875-.683 6.364-.824c8.894-2.512 14.37-.715 14.37-.715 1.079.035 2.094 1.598 2.094 1.598l.618-.715-.067-1.324c-.14-2.078-4.12-2.551-4.12-2.551l-9.728.508-4.226.718-6.625 1.766 1.32 1.54m-9.562-56.071.09 2.707s-.457 8.41-.446 7.508c-.058-.168.192 4.644 1.989 6.172 1.062.652 3.355 2.664 3.355 2.664 1.36.976 3.606 5.004 3.606 5.004s2 6.582 1.628 7.093l-.656 3.531 1.012 1.997s3.633-.676 4.07-.676c.445 0 1.766-.438 1.766-.438l.222-1.101s-1.105-.664-1.543-.446c-.445.223-1.101.446-1.101.446l-.664-2.867c-.031-1.23-2.516-6.051-2.516-6.051l-.586-1.664-1.32-4.188-2.645-3.75c-1.93-.734-3.304-3.523-3.304-3.523-.79-1.313-1.106-9.934-1.106-9.934-.172-.898-1.851-2.484-1.851-2.484"/>
  <path fill="#194073" d="M359.137 261.438c.77.511-.883-2.649-.883-2.649l.883-7.273c-.586-7.922-8.598-13.004-8.598-13.004l-4.2-1.32-2.425.218c-2.531 2.102-5.512 1.102-5.512 1.102s-5.949 1.324-7.05.883c-1.102-.446-2.207-1.766-2.207-1.766s-.653-1.938-.88-1.32c-.476 1.277-3.964 0-3.964 0l-6.395-2.641-.66.215-4.851.66-.22.883 1.102.441s10.575 3.371 12.13 9.426c.171.676 2.632.715 3.077.715.442 0 5.29-1.766 5.29-1.766s1.722-4.5 5.515-2.203c.559.344 5.504-.219 5.504-.219l4.426.664c5.25 1.453 6.172 10.578 6.172 10.578.441.961-1.102 3.086-1.102 3.086s2.55 4.692 2.867 5.07c1.278 1.52 1.98.22 1.98.22M279.95 227.29l1.542-1.102 1.324-1.325s1.54-1.761 2.204-1.761h2.203s3.918.718 4.578.937c.66.219 4.015 1.484 4.015 1.484l4.41.887 1.758.219 2.871 1.559 1.54 1.98.664 1.324.218 1.766 1.325 1.097 2.878.665-1.335-3.97-2.207-5.085-1.54-1.32-1.765-.88c-10.438-1.87-11.02-3.968-11.02-3.968l-1.097-1.106-4.414-3.968-5.856-6.016c-.344-.523-3.223-2.258-3.223-2.258-.984.262-.398 1.223-.398 1.223l5.07 4.187s3.528 5.293 4.407 5.953c.878.66 1.324 1.985 1.324 1.985-.684 1.2-1.985 0-1.985 0l-1.32-1.766-7.34-6.972c-2.664-1.547-.812 1.242-.812 1.242.312.527 4.847 5.949 4.847 5.949l.438 2.426-1.102.883-1.547-.66-.878.44-1.32 2.645 1.542 3.305"/>
  <path fill="#194073" d="m334.438 282.61-.665-1.766-.218-1.98c.36-1.665 2.867-.665 2.867-.665s1.32-.222 1.762-.222c.441 0 .367-5.664.367-5.664l-3.23-.063-2.868.223s-1.57-1.996-.664-1.993c5.938.047 6.172-8.386 6.172-8.386-.3-1.977-1.54-.88-1.54-.88-1.413 6.798-6.39 7.724-6.39 7.724l-2.644.222-1.766-.437-.883-.887c6.457-3.434 7.496-6.625 7.496-6.625.871-.75.664-5.066.664-5.066l-.441-2.207c-.785-.762-1.547.214-1.547.214v1.77a9.309 9.309 0 0 1-.223 2.422c-4.39 9.054-8.375 5.969-8.375 5.969l-.875-.883c7.446-1 6.172-15.883 6.172-15.883l-.222-1.988-.883-.88-1.02.118c.813 1.984 1.02 6.715 1.02 6.715.27-.106-2.043 9.695-8.156 8.379-.426-.098-2.422-.446-2.2-.887.22-.438 0-1.317.657-1.54.668-.222 1.988-.886 2.425-1.1.446-.22 2.422-2.212 2.422-2.212l.887-1.976.223-2.649-.223-1.101c-.23-.266-.887 0-.887 0l-.433.879c-.68 6.18-5.957 6.84-5.957 6.84l-2.426 1.101h-1.332l-.664-.445c5.39-3.824 5.75-7.934 5.75-7.934l.215-2.426c.007-1.105-.07-1.62-.215-1.539-.086-.187-.883 0-.883 0 .016-.16-.66.88-.66.88l-1.102 3.527c-1.46 4.004-5.304 5.734-5.304 5.734-2.075.11-1.106-1.543-1.106-1.543 4.883-4.95 4.426-6.617 4.426-6.617l-.234-3.746c-.508-.54-1.106 0-1.106 0l-.66 1.984c-.602 4.047-3.969 7.274-4.848 7.274-.883 0-1.543.44-1.543.44l-.441-1.1 1.535-.883 1.328-1.543 1.098-1.98c.183-1.29.258-2.165.223-2.65.285-1.07.433-1.656.445-1.765-.39-.371-1.102-.219-1.102-.219-.187-.074-.441 1.102-.441 1.102-.805 2.39-1.762 4.008-2.867 4.848 0 0-1.723-.165-1.106-.66 1.602-1.274 1.547-5.294 1.547-5.294l-.219-5.504.66-1.324 3.528-.883 5.078.442 1.328-1.102-2.203-1.765-4.649-.66-2.199.878-1.765.223-2.422-.223-.88-.433-4.85-3.09c-1.048-.188-1.708-.188-1.989 0 0 0-.984 1 .445 1.543.618.305 11.883 4.523 6.391 16.309-.137.535-1.32 1.324-1.32 1.324-.43.351-3.528.437-3.528.437-.316.04-2.422-.879-2.422-.879l-1.988-1.98v-1.988l-5.73.882-.438 1.325.219.879s1.773 1.699 1.98 1.761c.672.297 1.543 2.43 1.543 2.43.051-.016 0 3.96 0 3.96l-.367 12.352c.024 1.145 2.098 4.957 2.098 4.957-.004.04 1.875-.226 1.875-.226-1.184-2.238-1.992-5.348-1.844-7.367l.883-6.625s.883-2.645.883-3.086c0-.438.488-3.7.488-3.7s.172-.706.828-.706c.664 0 1.11.218 1.11.218.316.168.433.66.433.66.067.07-.219 4.848-.219 4.848-2.867 10.41-1.332 15.695-1.332 15.695.16-.054 2.914-.324 2.914-.324-1.683-2.883-1.796-5.87-1.796-5.87l.656-3.31.883-3.324.664-5.066.437-.879h.883l.219 2.2v5.515l-.676 4.144c-.203 3.672.71 6.426.71 6.426l1.872-.16-.582-2.465-.223-3.305s.223-2.632.223-3.09c0-.452 1.098-4.421 1.098-4.421l.882-1.32c1.797-.583 1.985 1.542 1.985 1.542l-1.766 9.047s-.398 4.172-.219 4.637c.235.594 1.766 3.082 1.766 3.082.336.504.879-.437.879-.437-.027.386.66-9.926.66-9.926s.809-1.313 2.238-.567c2.426.114 3.051-2.53 3.051-2.53s3.211-3.122 3.32 2.882c.024 1.082-1.75 3.394-1.75 3.394-1.765 1.97 1.364 1.02 1.364 1.02l2.37-.89c0 .003 1.766-.442 2.208-.442.437 0 .879 0 1.758.441.886.446 1.324 1.325 1.324 1.325l-1.54 3.082s-.362 2.597 0 3.308c.821 1.613 2.423 0 2.423 0s-.442-1.765-.22-2.207c.22-.437.657-1.535.657-1.535.613-1.04 3.09-.887 3.09-.887 4.465 2.024 5.29 9.258 5.29 9.258.468 1-1.106 1.324-1.106 1.324l.886 1.766 6.832 2.422-2.421-3.524m39.5-56.749 1.949 3.394 2.867 9.258 1.762 23.14.445 9.278v7.492c-.863 3.883-2.203 5.07-2.203 5.07-.09-.02-.887-4.414-.887-4.414v-9.918l-.437-11.473c.066-20.363-3.442-27.765-3.442-27.765l-.055-4.063m-32.887 5.375 3.712 10.825 2.918 6.148 2.64 6.613c.797.942 0 2.645 0 2.645l1.762 1.324 4.852 2.203s1.546.223 1.097-.883c-.437-1.105-3.304-4.41-4.625-5.511-1.328-1.102-1.543-1.102-1.765-1.766-.227-.656-3.082-10.137-3.082-10.137l-2.223-6.832-2.863-3.968-2.422-.66M219.574 425.066l-3.933-.082.566-15.207c.082-8.117-2.55-14.75-2.55-14.75l-3.067-7.414-3.07-5.62-2.81-6.134c-1.558-2.875-1.757-6.207-1.757-6.207l.125-1.91c.082-4.828-3.691-4.582-3.691-4.582l-15.918-3.308-8.254-.72c-18.121.204-15.39-20.413-15.39-20.413.402-2.774 2.3-4.938 2.3-4.938l2.05-3.578c1.282-2.512-1.503-4.984-1.503-4.984l-2.164-1.125c-1.512-.703-.684-4.621-.684-4.621l.492-1.457.618-2.246c.117-1.243-1.11-2.434-1.11-2.434-1.004-1.649 0-5.367 0-5.367l.258-4.684-.258-2.297s-.16-2.601-.16-2.347c0 .257-.098-.243-.098-.243l-2.886.11c-8.985.242-8.676-8.668-8.676-8.668.402-3.524 4.684-7.89 4.684-7.89l4.328-7.54 5.109-7.496 5.664-7.652c1.902-2.473 1.375-7.664 1.375-7.664l-.059-3.594c-.058-4.555 1.532-5.879 1.532-5.879l2.816-4.602s2.598-6.52 2.73-6.734c1.778-2.96 2.958-15.668 2.07-16.894.88.421-6.675-3.48-7.112-5.22-1.934-11.952 1.289-18.081 1.289-18.081l7.918-6.899 5.902-7.082c7.406-11.277 14.441-11.554 14.441-11.554 1.954-4.84 8.286-9.727 8.286-9.727s6.554-4.445 18.48-2.644c3.52.085 4.629 3.421 4.629 3.421s1.394 10.403 6.473 12.668c6.511 4.34 10.191-.418 10.191-.418 2.64-1.207 3.617 1.875.043 3.032-1.008.195-3.879.543-3.879.543-9.61 1.996-12.324-5.707-12.324-5.707l-2.832-7.149c-1.059-4.375-6.649-4.09-6.649-4.09l-7.668.512c-1.742-.035-3.367.3-4.851 1.023-2.164 1.508-4.348 5.114-4.348 5.114l-1.277 1.785-2.043 2.383-1.871 1.273-2.297 1.02s-5.176 2.136-10.57 9.238c-1.598 2.988-3.633 5.851-5.79 8.656l-5.113 3.832c-5.93 4.668-4.55 10.957-4.55 10.957l.203 5.48c.164 1.618 2.972 3.188 6.648 4.602 1.5.746 1.79 2.559 1.79 2.559l.257 4.601-.766 8.43-1.535 6.14-2.305 6.208-2.222 4.242c-1.625 3.039-1.098 5.758-1.098 5.758v5.847c.121 3.844-4.863 7.735-4.863 7.735l-4.16 5.305-5.114 8.765-1.789 2.305c-3.058 3.097-7.054 10.27-7.054 10.27.183 2.23-1.633 6.257 5.441 5.984 1.277-.051 5.996-.52 5.996-.52 3.856.528 6.606 2.172 6.606 2.172 1.855 2.582 4.964 1.742 5.882 1.445 1.5-.492 2.254-.71.809-4.582-.285-.761-1.316-3.543-1.316-3.543l.597-.558s3.7 5.332 3.969 9.144c-4.492 2.864-6.719 1.993-6.719 1.993l-4.57-1.852-3.54-.543c-3.015-1.52-1.226-.55-1.226-.55 1.907 2.452.32 8.964.32 8.964l-.437 2.383s-.43 1.723 1.254 1.918c1.27.152 2.024.226 2.379.312.52.118 1.187.66 1.387.97 1.93 2.933 2.965 1.987 2.965 1.987s2.472-.125 3.261-.148c.656-.024 1.621 2.617-.422 2.617a84.1 84.1 0 0 1-3.765.184c-.645-.012-2.778-1.606-2.778-1.606-4.296-1.851-6.746 9.61-1.054 8.242 1.437 1.243 2.398 5.684 2.398 5.684.008 2.086-4.738 7.313-4.738 7.313s-1.188 2.445-.277 7.906c.699 6.617 6.546 11.242 17.46 11.242 5.196.207 13.293.77 13.543.77.258 0 6.825.23 7.415.257 15.73.692 34.777-16.425 34.777-16.425l14.512-15.317c6.238-5.43 5.609-.371 5.609-.371 3.371 1.29-4.969 9.55-4.969 9.55.64-.382-18.773 12.79-18.773 12.79-7.711 4.98-7.817 7.98-7.817 7.98-.586 5.832-.691 6.063-.691 6.063s-8.64 5.805-10.07 5.437c-.993-.242 7.543-7.078 7.543-7.078 1.539-3.355-2.149-1.953-2.864-1.687-5.61 3.629-12.941 3.441-12.941 3.441l-.145 4.305c.54 7.394 3.32 12.601 3.32 12.601l3.84 6.645 2.551 5.363c3.399 6.195 4.344 14.32 4.344 14.32l-.215 20.836"/>
  <path fill="#194073" d="M268.762 209.469c-.664 1.297 2.293 3.89 2.293 3.89.43.602 4.36 5.465 4.36 5.465s3.698 3.266 3.155 9.488c.649 5.649-1.52 6.504-2.586 9.536-.203 3.382 1.516 9.996 1.516 9.996.86 2.015 3.086 14.441 3.086 14.441s.867 12.13 1.437 12.13c.82.948 5.997 1.14 15.528.573 6.578 3.07 6.07 10.852 6.652 10.852.574 0 2.262-.793 2.262-.793l1.191-2.875c.645-1.207.989-3.05.989-3.05-2.551-.774-3.727-2.13-3.727-2.13-1.07-1.543-.566-3.793-.566-3.793.347-2.183-3.836-1.824-3.836-1.824-14.485 1.617-15.391.203-15.391.203-1.16-1.465-3.484-20.808-3.484-20.808l-2.493-10.336c-.035-3.243 2.29-7.493 2.29-7.493.91-3.988.05-9.843.05-9.843-1.515-4.29-5.793-8.875-5.793-8.875-2.789-2.786-2.433-4.301-2.433-4.301 5.25-11.102 6.308-18.582 6.308-18.582l.727-6.207c-.871-7.778-3.164-8.625-3.164-8.625-1.043-.867-4.602-2.012-4.602-2.012-3.676-1.226-8.77-1.476-10.11-1.437-1.589-.145-5.464.574-5.464.574-1.727.289-3.734 1.152-3.734 1.152s-2.598 1.25-.211 1.371c.57.031 7.398-1.09 9.125-.8 1.722.285 5.863.335 12.285 3.062 5.351 1.613 1.848 14.766 1.848 14.766l-7.508 16.285"/>
  <path fill="#194073" d="m287.55 348.152-11.187 14.063-15.136 22.59-8.934 18-11.52 40.98h5.438c3.809-33.207 22.672-64.332 22.672-64.332l16.949-22.691 20.086-25.18 16.66-15.969s19.059-14.425 20.797-15.883c1.29-2.82 3.14 4.497 3.14 4.497 1.817 3.539 2.673 5.007 2.673 5.007 2.886 9.192-.215 8.762-.215 8.762-6.407.863-9.254 5.598-9.254 5.598-4.442 6.965-2.024 15.18-2.024 15.18-9.086-.973-11.703 5.902-11.703 5.902-5.418 10.265-1.113 20.316-1.113 20.316s1.344 6.688 1.05 11.586c-.034.649-.284 7.371 2.489 8.902 2.484 1.813 4.594 2.196 4.594 2.196s1.523 3.058 3.824 3.351c4.512.57 7.476-5.359 7.77-5.648.289-.281 5.355-4.879 5.355-4.879s2.871-1.914 6.793-.95c.476.095 5.45-.288 5.45-.288 5.26-.293 7.081-5.457 7.081-5.457s.38 12.629 9.012 15.21c-.86 1.15-.738 3.438-.738 3.438-1.668 7.086 3.515 10.527 3.515 10.527 11.192 6.813 22.477.29 22.477.29 6.734-3.836 7.078-13.297 7.078-13.297.816-7.684-.098-12.149-.098-12.149-6.215-9.875.188-16.754.188-16.754 2.133-1.925 3.55-5.668 4.265-11.222.829-9.16-3.859-12.434-3.859-12.434-3.145-2.555-2.219-5.406-2.219-5.406l.957-11.137c.098-5.55-2.3-10.144-2.3-10.144-.762-2.582-4.965-4.497-4.965-4.497-3.067-.668-7.559-.57-7.559-.57-9.57.57-8.93 2.36-10.039 1.945-.715-.273 1.348-2.382.758-5.605-2.848-5.2-1.297-8.316-1.297-8.316l4.91-6.938c6.86-12.164 5.7-26.926 5.7-26.926-1.766-25.722-6.669-39.398-6.669-39.398-7.074-22.867-17.828-43.215-17.828-43.215-13.879-22.387-43.82-26.469-43.82-26.469-14.7-2.996-40.078-1.906-40.078-1.906-13.133 1.023-20.547 4.285-20.547 4.285s-11.574 4.492-16.422 12.184c-.152.242-1.66 4.039-1.152 4.312 1.34.735 1.152 1.727 1.152 1.727.387 1.234-1.152 2.82-1.152 2.82l-3.606 5.594s-1.828 2.96-3.734 9.488c.043.082-2.438 6.25-2.438 6.25-1.05 4.301-2.234 8.317-2.234 8.317-.344.5-4.707 9.554-4.707 9.554-1.29 6.785-3.684 9.457-3.684 9.457l-17.382 26.993c-2.047 3.792-2.192 7.417-1.73 8.78.612 1.802 1.065 2.618 2.788 2.618 1.73 0 5.348.367 6.531.34 3.133-.067 3.305 2.449 3.305 2.449s.09 8.004.168 8.64c.102.817.238 4.801.238 4.801s-.203 2.551 3.133 3.844c.102.172.613.781-.558 2.617-.258.582-1.079 5.16-.942 5.547.172.48.074 1.121 1.258 1.633 3.64 1.566 3.605 4.184 3.605 4.184.684 1.53-3.062 7.953-3.062 7.953-2.106 3.347-1.188 13.219-1.09 13.855 1.297 8.031 10.45 10.094 10.45 10.094 9.25.41 14.464.129 14.464.129l10.824-1.016c3.235-.308 3.32 5.356 3.32 5.356l8.438 37.234c2.856-4.207 2.672-4.039 2.672-4.039L273 356.504l-4.73-21.734c-1.872-10.274-1.75-7.344-1.75-8.489 0-1.152 3.69-1.527 3.69-1.527 25.157-4.328 27.704-12.184 28.853-13.84 4.078-7.125 10.714-27.894 10.714-27.894s2.164-2.668 4.118-3.23c2.585-.75 5.035.745 5.035.745 1.125.649 3.843 3.777 3.843 3.777 1.739 1.258 5.618 2.454 5.618 2.454 1.632.37 7.379 2.82 8.027 3.023.547.176 2.387 1.649 2.93 2.074.496.39 6.39 1.914 6.39 1.914-1.164-2.414-.55-2.8-5.34-6.437-.73-.547-12.757-4.488-12.757-4.488-3.098-1.774-4.852-3.532-5.477-4.051-4.258-3.54-6.5-4.117-6.5-4.117-4.351-.747-9.762 6.296-9.762 6.296l-1.804 3.79c.484 4.707-7.832 22.457-7.832 22.457-1.227 2.316-1.782 6.496-8.153 7.722-5.343 2.031-8.61 2.93-14.976 4.07-10.692 2.422-18.203 2.422-18.203 2.422l-12.942.25c-22.347.614-14.105-17.156-14.105-17.156l2.015-4.863c.528-1.41 1.52-.727 2.664-.668 3.368.14.555-2.836.555-2.836-1.281-1.348-3.023-4.5-.285-6.996.07-.715-1.356-.469-1.356-.469-2.875 1.887-4.218.242-4.218.242-1.739-2.636.765-4.218.765-4.218s1.418-1.582 6.754-.145c1.242.332 4.317-.008 4.317-.008 2.195-.394 2.148-2.137 2.148-2.137-2.863-2.062-2.172-1.898-3.555-2.535-.722-.332-1.328 3.828-5.972.559-2.45-2.344-2.86-2.082-3.149-2.082-2.664 0-3.004.785-3.742-2.16l-.238-10.684.105-3.148 4.797.62c2.903 1.02 4.488.622 4.488.622-1.02.39 4.922-.527 2.805-5.621-1.308 3.148-7.652 1.36-7.652 1.36-4.59-3.321-10.965-1.708-10.965-1.708-8.137 1.18-4.434-4.95-4.434-4.95l7.778-12.308s8.472-11.824 13.02-19.543c1.019-8.316 2.48-11.515 2.48-11.515 3.34-3.703 4.273-6.91 4.36-7.192 4.55-15.015 5.28-17.972 5.28-17.972.625-2.547 3.7-7.493 7.192-8.121-2.98-3.059-2.254-9.442-.11-11.043 1.649-2.16 6.137-5.223 6.137-5.223 1.09-.82 13.473-6.672 27.488-7.148 13.536-.461 25.04.207 34.637 1.363 8.516 1.027 31.23 10.953 31.23 10.953 6.915 3.5 12.317 11.434 12.317 11.434 4.355 4.625 13.543 26.058 13.543 26.058s6.719 22.871 7.008 22.871c.289 0 4.996 15.617 5.824 41.574-1.031 17.25-9.36 22.114-9.36 22.184-1.296 2.586-1.257 4.313-1.257 4.313-.176 2.761.289 4.605.289 4.605 2.101 4.48 1.601 6.625 1.601 6.625.266.59-1.601 4.344-1.601 4.344s-.668 2.84 4.746 1.953c1.137-.188 4.844-1.016 4.844-1.016 8.23-1.015 14.191-.46 16.015 9.567 0 0-2.304 8.75-1.43 16.386 7.383 8.27 6.188 15.614 6.188 15.907 0 .285.07 1.007-2.848 4.695-.18.223-4.695 7.77-4.695 7.77-1.87 7.917.852 13.042.852 13.042 2.699 4.407 1.351 13.836 1.351 13.836-3.308 17.079-33.984 14.454-25.351-3.058-7.282-5.024-7.774-9.438-7.774-9.438l-3.804-10.933-6.36 6.285c-2.453 3.062-8.328 3.062-8.328 3.062l-8.535-.672s.695 4.22-3.59 6.672c-5.937 7.711-8.879 2.817-8.879 2.817-6.488-4.29-5.512-19.903-5.512-19.903-5.632-6.855-.468-15.511-.468-15.511 1.574-9.715 12.105-9.465 12.105-9.465s-.039-4.32 0-6.434c.067-3.527 2.317-8.304 2.317-8.304 3.414-3.954 6.613-4.489 6.613-4.489 5.848-.285 4.418-5.988 4.418-5.988l-1.457-6.66-2.617-9.668c-.621-1.793-3.723-5.762-3.723-5.762l-3.457 2.258-19.332 14.812c-15.313 11.864-35.328 37.422-35.328 37.422"/>
  <path fill="#194073" d="M224.234 195.207c-1.925 1.14-3.261 1.363-3.261 1.363l-9.95 2.582s-.304.618-.207.72c.106.105 2.075 5.925 9.809.827.21-.125 4.027-3.078 7.152-5.5l11.895.008c-.77 2.203-1.64 4.664-1.64 4.664 1.695-1.262-6.805 4.54-6.805 4.54l-3.665 2.296c-6.109 4.754-12.828 3.473-12.828 3.473-3.226-.028-5.152-1.75-5.152-1.75l-1.137-.825c5.504.891 9.973 1.223 13.13-.421.206 0 8.98-3.875 14.081-10.403-.125-2.511-4.742-.824-4.742-.824l-3.094 1.648c-2.46.868-10.05 7.512-10.05 7.512-1.22.946-2.98.27-2.98.27-2.716-3.524-7.27-4.176-7.27-4.176l-3.297.21c-3.125.985-2.582-.78-2.582-.78s1.625-2.305 11.793-4.336c2.476-.38 4.351-.739 5.77-1.082l5.03-.016m-19.379 0c-2.093 4.344-4.292 1.91-5.425.027Zm-20.285 0a3.5 3.5 0 0 1-.445.336c-3.5 2.355-5.664 7.133-5.664 7.133l-.68 5.554c.961 2.165 3.559.196 3.559.196.035 0 .512-3.582 1.996-5.344 1.004-1.695 3.621-3.965 8.812-5.285 2.356-.45 3.344-.879 3.665-.813 2.738.524 1.09 2.578 1.09 2.578-.516.352-5.563 1.446-5.563 1.446-5.969.988-7.055 6.949-7.055 6.949-.203 5.215-2.926 9.023-2.926 9.023-1.082-5.289-4.257-6.847-4.257-6.847-.813-1.903-.918-3.77-.918-3.77.113-4.914 1.816-8.879 3.101-11.16l5.285.004"/>
  <path fill="#194073" d="M186.586 183.516c3.96-.149 5.656-.493 5.656-.493 2.863-.3 7.012.735 7.012.735 1.293.457 3.93.492 3.93.492 2.707-.543.98-2.953.98-2.953-3.617-2.559-9.344-2.211-9.344-2.211-7.066-.211-9.222 3.441-9.222 3.441-.258.207-.258 1.114.988.989m41.191 11.691c2.207-1.719 4.07-3.164 4.07-3.164 2.887-1.57 8.965-.41 8.965-.41.043.066-.515 1.726-1.136 3.543Zm-7.062-21.777c-1.7.308-3.09.87-3.567 1.3-.25 0-5.82 3.13-8.101 6.055 0 0-5.656 6.348-5.965 9.328 0 0-.086 1.106.86 1.477 0 0 .718.133.87.074.614-.617 3.75-7.223 5.938-8.93 0 0 8.102-6.808 13.77-4.054l4.394 3.129s1.352.804 2.215.851c0 0 2.848.153 5.094-.562 0 0 3.039-.453.472-1.82l-1.476-.618-1.356-.484c-1.273-.356-3.133-1.766-5.465-4.442 0 0-1.543-.933-2.746-1.273l6.164-.031c1.965 2.148 4.11 3.355 4.254 3.355.196 0 3.516 1.016 7.696-3.347l5.539-.008a11.53 11.53 0 0 1-.446.547l-4.543 2.293s-3.488 2.164-3.707 4.328c.29 2.77 4.145.07 4.145.07 1.328 3.566-1.883 5.394-1.883 5.394-1.277-.722-6.285-.101-6.285-.101-3.902.992-6.906 4.434-6.906 4.434-1.938 2.43-3.887 3.925-5.446 4.832l-5.03-.02c4.757-1.137 4.448-2.113 4.886-3.129 0 0 .41-1.156-1.008-.758-.309.09-5.258.93-5.668.93-.414 0-1.137.102-1.137.102s3.387-2.418 12.067-2.961c1.492-2.438 1.219-2.036-.418-3.02 0 0-3.496-.96-5.258-.41-3.547.742-6.184 3.402-6.184 3.402l-3.714 3.09-3.95 2.363s.594-1.777.676-1.898c2.305-3.39 9.05-7.164 9.05-7.164l3.919-1.547c2.441-2.812-3.403-2.266-3.403-2.266-6.851-.007-11.75 7.73-11.75 7.73s-2.078 5.04-2.37 5.36c-.028.067-.06.125-.087.192l-5.425-.012c-.489-.785-.778-1.492-.778-1.52 0-.101-1.34-.925-1.543-.925-.207 0-1.859-.414-1.859-.414-6.715-.477-9.281 1.8-10.68 2.87l-5.289-.011c.774-1.375 1.399-2.14 1.438-2.14 2.293-1.837 3.715-3.165 5.98-3.708 0 0 3.563-1.425 12.676-.828 1.805-1.387-.102-2.574-.102-2.574s-4.847-1.559-14.535-.414c-1.597.406-2.312-.906-2.312-.906-.102-.317 4.094-5.957 4.297-5.957.21 0 9.347-2.32 18.297-.27 4.945 1.125 2.902-3.144 2.417-3.27-.394-.648-2.68-1.277-4.804-1.742l18.082.028"/>
  <path fill="#194073" d="M206.918 163.828c.484.125 1.605.055 1.605.055 7.317.531 7.84 5 7.84 5 .2.988 3.567 4.508 3.473-1.801-1.566-6.402-8.856-6.27-8.856-6.27-2.968.02-4.34 1.352-4.34 1.352s-.64 1.203.278 1.664m36.848 9.602c.316-.325.636-.684.964-1.078 1.07-1.235 1.34-1.653 1.34-1.653 2.364-.344 5.563-.336 3.235 2.73Zm-41.13 0c-2.023-.465-3.91-.754-3.91-.754-.343.05 4.665-2.219 13.747.601 1.726.54 1.699-1.797 1.699-1.797-.285-1.753-4.64-3.984-4.379-3.667-5.39-1.56-10.64-.833-10.64-.833l7.03-8.238s1.704-.297 1.91-.297c.204 0 3.755-.715 6.673.106 2.793.793 6.343 6.875 6.343 6.875l1.79 2.476c3.37 5.395 2.453-.09 2.453-.09s-.309-1.44-.41-1.644c-1.419-4.762-3.563-7.469-4.95-9.484-1.074-1.555-5.195-1.84-5.195-1.84-8.36.918 4.039-2.754 7.668-.942.207.102 1.855 2.68 1.855 2.68l5.254 13.707c.61 1.203 1.406 2.266 2.242 3.164l-6.164-.023c-.14-.008-.277-.04-.41-.059-1.492-.3-3.117-.21-4.531.05l-18.074.009m-24.785 93.218c1.835 0 2.925-.136 4.359-.34.066-.82.434-5.925.434-5.925v-2.64l.44-2.2 1.321-1.54s.88-.878 1.758-.878c.883 0 2.64.219 2.64.219l3.087.219 2.199 1.101 4.031 1.59 2.695 3.781.72 1.27 1.878.773c.438.137 2.133.766 2.133.766-.426-.504-4.527-7.188-5.14-7.922 0 0-1.173-.945-1.641-.828-1.614-.781-2.668-.832-2.668-.832l-3.52-1.54-2.422-1.32-2.562-.449h-2.524l-2.476.16-2.637.317-.746 1.09.883 2.59.48 1.906v4.84l-.754 2.792-1.968 3"/>
  <path fill="#194073" d="m187.445 270.168 1.832.008s.961-.074 1.184-.074h1.926c.37 0 1.851-.594 2.004-.594.148 0 3.043-1.867 3.043-1.867l.625-.832-.403-1.172-.672-1.617s-1.039-.743-1.261-.817c-.227-.074-1.184-.652-1.184-.652l-1.039-.817-1.414-.89-1.184-.887-.812-.668-1.414-.445-.516-.07-.37-.153-.743.152-.594.368.11.558.296.446.743.296.812.372.969.367 1.183.597 1.114.442.89.726.739.926.453 1.012-1.387.57-.973-.078-.574-.832-.52-.367-.593-.672-.668-.375-.52-.149-1.039.079-.87.445-.095.808.149.82.11 1.34s.78.075.929.075c.148 0 1.039.144 1.039.144l.96-.222s.446-.219.595-.219c.148 0 .832-.191 1.05-.191.223 0 1.04.148 1.04.148l1.082.852-.149.964-1.172.606h-.746l-1.187.297-.961.148-1.606.145-.59.508.38.441m.937 2.746.148 1.04.446.816.742.593.594.223 1.039.148 1.113-.37.664-.743.297-.52-.149-.519s.375-.223-.52-.223c-.886 0-1.405.075-1.405.075l-1.04-.149-.519-.293-.594-.148h-.668l-.148.07m150.242 17.188-1.98 1.539-1.77 1.32-2.645 1.77-3.523 2.421-3.305 2.66-3.53 3.09-3.966 3.086-3.523 2.422-3.106 2.64-2.199 1.985c-.898.34-1.988.445-1.988.445-.477-.062-.34-.843-.34-.843.656-.61 1.305-1.059 1.305-1.059l2.125-1.629 2.656-1.762 2.644-1.988 3.09-2.422 2.422-1.98 2.867-2.422 2.422-2.223 3.309-2.863 4.187-4.187 1.543-2.207 1.325-.883h1.539l1.105.664-.664 2.426m-19.57 18.984c.422.351.172.863.172.863l-1.32 1.766-8.9 7.094-2.128 1.722-2.434 1.98-1.98 1.766-1.32 1.102c-.383.308-.747.308-1.106 0-.016-.625.883-1.32.883-1.32.39-.41 3.308-2.422 3.308-2.422l2.86-2.422 2.867-2.207 3.766-2.867 1.98-1.54 1.543-1.546.66-.766c.688-1.57 1.149-1.203 1.149-1.203m12.672-22.578-.508.64-.551.649-1.754 1.57-1.844 1.516-2.164 1.8-1.426 1.196-1.8 1.703-1.887 1.66-1.61 1.563-1.156 1.02-1.101 1.01-1.297 1.153-.875.649-.828.363-.88-.14-.179-.641.692-.832 1.613-1.285 1.562-1.247 1.938-1.793 1.98-1.945 1.891-1.972 1.98-1.98 2.028-1.895 1.933-1.98 1.477-1.892.691-.136h.832l.551.277.692.969m-4.973-2.215-1.02.602-.734.964-.965.965-.691.785-1.246 1.246-.786.829-.828.968-1.058 1.153-.735.734-.418.457-.644.508c-.758.535-1.246.14-1.246.14-.172-.746.601-1.378.601-1.378l.598-.875.828-.926.832-.828 1.195-1.29 1.012-1.245.785-.872.602-.738.781-.691.094-.598-.184-.691s.645-.18.735-.18c.093 0 .781.086.781.086l.469.14.547.137.695.598m-20.945-2.422-1.704.746-2.52 4.016-4.897 8.773-8.067 11.317c-2.926 4.968-6.11 6.238-6.11 6.238-1.835.344-6.827 1.613-6.827 1.613l5.152-3.789c3.078-1.61 7.621-7.074 7.621-7.074l3.676-4.566 2.922-4.079 2.246-3.539 2.648-4.28c.551-.403 2.453-8.376 2.453-8.376l1.16.207.954.817.742.882.55 1.094m-3.742-4.152-.816 1.293-2.45 3.199-1.628 2.45-2.387 3.534-2.11 2.653-2.038 2.379-2.043 2.656-2.516 2.789-2.52 2.723-2.245 2.316-2.31 2.316-2.32 2.176-1.968 1.902-4.887 5.098-3.058.387 3.863-3.715 2.105-1.973 3.469-3 2.043-1.894 2.383-2.11 1.43-1.503 1.156-1.293 1.836-2.043 1.972-2.38 1.633-2.245 2.86-3.676 1.77-2.11 2.987-4.55 3.137-5.313 1.09-2.176 1.633 1.02-.07 1.09m-3.747-4.153-1.152 1.77-1.094 1.906-2.582 3.266-3.133 3.742-4.757 6.05-3.067 3.61-2.039 2.453-4.426 5.032-1.906 1.976-4.215 4.149-2.11 2.109-3.401 3.066c-5.329 4.305-6.961 4.422-6.961 4.422-1.957.262-3.82.262-3.82.262s2.14-1.555 2.273-1.555c.136 0 1.632-.676 1.632-.676l1.774-1.027 2.039-1.426 2.586-1.968 2.039-1.91 4.629-4.5 2.992-2.922 2.586-2.793 3.61-4.079 3.538-4.015 2.72-3.399 4.968-6.394 4.863-7.13s.418-.82.528-.901c2.285-1.754 1.886.882 1.886.882m-39.812 34.551-1.621 1.102-2.18 1.504-2.547 1.289-1.879.883-1.629.675-2.214.84-2.977.707-4.012.387-3.015.164s-4.301 1.035-.102 1.719c.203.027 2.45-.133 2.45-.133l3.198-.352c3.215-.129 6.872-1.691 7.008-1.691.137 0 4.356-1.777 4.356-1.777l7.008-4.622 5.398-4.898c1.094-2.035-7.242 4.203-7.242 4.203m-42.742 42.313c-8.235 1.78-10.27 1.53-10.27 1.53l-25.844 1.145c-4.078-.125-6.191-.894-6.191-.894l6.191-.758c7.883.18 32.938-3.21 32.938-3.21l10.558-1.458-7.382 3.645m10.054-8.102-11.074 2.29-14.668 1.878s-7.812.3-8.035.352c-.762.187-2.059-.274-2.059-.274-.058-.597.196-.66.196-.66s.933-.23 1.28-.23c.349 0 8.509-.7 8.509-.7l17.199-2.406 11.45-2.672 4.98-1.219-7.778 3.641m19.782-8.863-10.782 2.168-10.93 2.137-14.296 2.16c-2.832.441-5.856 0-5.856 0-1.062.207-.781-.395-.781-.395.035-.574 1.172-1.18 1.563-1.18.39 0 1.96-.19 1.96-.19 1.97.085 11.141-1.372 11.141-1.372l10.77-1.957s8.226-1.934 9.207-2.133c.976-.191 9.183-2.148 9.183-2.148l-1.18 2.91m-19.48-43.567-1.363-.496h-1.617l-1.121.496-1.118.625-3.476 1.985-2.363 1.488-1.243.75-.62.367-1.485.504-.13-.375.497-.496.996-.75.992-.742 2.364-1.863 2.109-1.364 1.992-1.125 1.363-.87 1.118-.743 1.3-.82 1.184.199.746 1.867-.125 1.363m-.992-6.207c-.25-.125-1.617-.378-1.617-.378l-.992.62-1.864 1.247-.996.62-1.984 1.122-1.242.742-.996 1.117-.997.496-1.488.496-.992.372c-.195.27-.867 0-.867 0s-.13-.497.37-.743c.497-.246 1.24-.617 1.614-.867.375-.25 2.86-2.363 2.86-2.363l3.351-2.48 2.86-1.743s1.984-.996 2.234-.996c.246 0 .746-1.238.746-1.238l1.117-.375 1.863 1.488s-.375.871-.496 1.246c-.125.371-.746 1.367-.746 1.367s-1.492.372-1.738.25m-2.734-10.191-1.243.75-1.742.867-2.48 1.492-1.868 1.243-1.609 1.12s-.016.16-.875.497c-1.207.469-1.742.683-1.742.683-.324.121-.738-.683-.492-.933.25-.246 1.242-1.117 1.242-1.117l1.613-.747 2.113-1.738 1.618-1.242 1.613-.871 1.371-.992 1.113-.621.871-.375.743-.996.129-1.61-1.118-.129-1.117.375-2.117 1.492-2.856 1.743-1.488 1.113-1.117.871s-1.121.621-1.492.621-.996.106-1.242.125c-.848.067-.871-.621-.871-.621.218-.621 1.242-1.121 1.242-1.121l3.851-1.984 1.86-1.497 1.547-1.043 1.566-1.062 1.488-.379 1.117-.242.622.125.996 2.11v1.988l-1.246 2.105m0-11.23-1.989 1.289-2.11 1.117-1.991.996-1.243.996-1.738.992-1.363.746-1.117.5-1.246.492s-.496-.12-.375-.37c.129-.25.5-.872.5-.872s1.492-.62 1.613-.867c.125-.254 1.742-.871 1.863-1.117.125-.25 1.242-1.242 1.242-1.242s.875-.5 1.496-.746c.622-.25 1.86-1.247 1.86-1.247s1.492-.671 1.613-.921c.125-.246.25-.496.621-.868.375-.378.996-.746.996-.746s.746-.254.993.125c.25.371.62.743.62.743l-.245 1m59.085-2.727-1.226.61-1.586.859-1.344.73-1.117.613-1.46.868-1.352.488-1.707.73-1.344.368-1.469.488s-.605.488-.855 0c-.243-.488-.243-.73-.243-.73s.493-.368.856-.493c.367-.12 2.195-1.097 2.195-1.097l2.817-1.477 2.32-1.344 1.844-.98 1.347-.852 1.219-.488 1.102.488v1.219m-1.465-5.253-1.102.241-1.832 1.219-1.84 1.105-2.082 1.59-1.71.856-4.032 2.074-3.3 1.355-1.223.856-1.832.488-.98-.367.98-1.098 1.59-.746 4.277-2.199 2.687-1.469 4.524-2.808 3.918-2.567 1.101-.734.735.613.12 1.59m-.613-4.402h-1.586l-1.113.976-1.344 1.223-1.218.855-1.836 1.102-2.563 1.469-2.691 1.343-2.567 1.102-3.3 1.461-2.446 1.102-2.441.98-1.102.242-.613-.61.375-.855 1.95-.859 2.445-.856 4.644-2.324 4.645-2.32 3.422-2.195 2.32-1.344 1.101-.734 1.102-.61 1.473-1.101 1.226-.243.117 2.196m-.976-5.254-2.09.488-1.344.613-2.32 1.34-2.813 1.711-3.3 1.957-3.543 1.711-2.446 1.348-3.175 1.586-2.075.976-2.687.977-1.715.73-1.71.493-1.833.12-1.469.126-1.218-.247.367-.734c-.004 0 .851-.367 1.469-.488.609-.125 3.539-.735 3.539-.735l4.52-1.468 3.546-1.711 5.012-2.934 5.254-2.933 2.812-1.465 2.688-1.59s1.222-.734 1.464-.852c.247-.125.735-.613.856-.859.125-.242.488-1.586.488-1.586l.867.61.614 1.222.242 1.594m-54.164 33.961-1.488.25-1.118.746-1.992 1.117-1.488.992-1.492.992-1.489.75-.62.622-1.247.992-.988.746s-.996.37-1.242.37c-.25 0-.871-.124-.871-.124s0-.742.246-.867c.25-.125 1.367-.993 1.367-.993l1.617-1 1.367-1.117 1.118-.867 1.492-.992 1.613-.871 1.238-.992.75-.5.742-.496.747-.622 1.367.375.746.497-.375.992"/>
  <path fill="#194073" d="m224.258 278.594-1.488.25-1.118.746-1.992 1.117-1.488.992-1.492.992-1.489.75-.62.622-1.247.992-.988.746s-1.05.43-1.297.472c-.812.137-.816-.968-.57-1.093.25-.125 1.367-.993 1.367-.993l1.617-1 1.367-1.117 1.118-.867 1.492-.992 1.613-.871 1.238-.992.75-.5.742-.496.747-.622 1.367.375.746.497-.375.992m-8.715 95.164.64-.95.669-1.226.777-.664.668-.672.457-1.308c.191-.106-1.125.425-1.125.425l-1.227.559-.773.55-.906.575-.575 3.289 1.395-.578M91.457 432.816c1.836-1.382 2.215-4.093.832-5.933-1.426-1.895-4.098-2.219-5.937-.836a4.206 4.206 0 0 0-.832 5.937c1.382 1.829 4.043 2.262 5.937.832m38.301 51.067-1.985-1.668-3.136 3.746-14.633-12.281 34.312-8.711 1.02-1.215-19.54-16.39.923-1.098-1.977-1.66-5.172 6.156 1.98 1.668 2.4-2.864 13.76 11.54-34.253 8.863-.973 1.156 22.29 18.703 4.984-5.945m61.379 7.793-12.625-7.004-1.395 2.512 4.711 2.617-8.707 15.699c-2.816 5.094-8.23 6.86-12.941 4.242-4.586-2.539-5.72-7.77-2.86-12.918l8.739-15.77 4.777 2.645 1.39-2.512-14.257-7.906-1.399 2.512 4.778 2.652-9.473 17.086c-3.273 5.906-.777 12.953 5.945 16.688 7.16 3.96 14.64 2.035 18.403-4.754l8.812-15.895 4.707 2.614 1.395-2.508m34.191 14.238 4.95 1.23c3.413.852 4.738 3.254 3.87 6.743-.886 3.554-3.691 5.297-7.175 4.43l-4.461-1.114 2.816-11.289m-3.512 14.078 5.02 1.254c4.601 1.145 6.344 3.95 5.266 8.27-.989 3.972-3.864 5.398-8.465 4.257l-4.946-1.238Zm3.637 17.192c6.621 1.648 11.219-.457 12.559-5.825 1.3-5.226-1.746-9.316-8.387-11.195 5.09 1.262 9.523-.812 10.57-4.988 1.22-4.88-1.765-8.953-7.691-10.434l-17-4.238-.649 2.578 5.227 1.305-6.738 27.043-5.23-1.309-.641 2.582 17.98 4.48m62.25-.011-2.656-.094-.133 3.809-12.203-.426.437-12.566 9.188.32-.121 3.594 2.652.093.352-9.984-2.656-.023-.122 3.453-9.191-.328.418-11.985 11.773.406-.128 3.743 2.585.082.282-8.04-2.66-.093-.051 1.437-22.54-.785-.093 2.656 5.383.188-.969 27.851-5.383-.187-.094 2.656 25.7.899.23-6.676m31.747-26.442 4.96-.789c3.692-.582 6.027 1.297 6.66 5.274.618 3.902-1.168 6.875-4.57 7.414l-5.04.797-2.01-12.696m26.03 23.872-1.984.312c-1.562.258-3.047-.383-4.531-1.969l-8.13-8.601c4.552-1.594 6.907-5.532 6.153-10.282-.91-5.75-5.082-8.218-11.96-7.128l-16.747 2.656.453 2.836 5.317-.844 4.328 27.316-5.32.84.418 2.621 16.03-2.539-.413-2.62-5.324.84-1.864-11.774 3.477-.551 9.398 10.219c2.203 2.418 2.817 2.613 5.938 2.117l5.176-.82-.415-2.63m43.758-20.538-2.41.93 1.567 4.085-11.262 4.328-9.832-25.617 5.027-1.934-1.031-2.68-15.156 5.821 1.03 2.68 5.028-1.93 9.918 25.817-5.031 1.933.95 2.48 23.808-9.14-2.606-6.774m33.297-13.285-4.62 2.774-14.243-23.703 4.621-2.778-1.48-2.46-13.915 8.363 1.48 2.46 4.618-2.777 14.242 23.703-4.62 2.778 1.37 2.281 13.914-8.367-1.367-2.274m27.399-57.304 3.937-3.676-1.957-2.102-10.562 9.848 1.964 2.098 3.997-3.72 14 15.024-30.723-3.36-6.781 6.321 1.96 2.102 3.68-3.43 2.32.387 17.59 18.855-3.941 3.68 1.816 1.941 10.555-9.847-1.812-1.946-3.993 3.723-14.453-15.496 31.895 3.656 1.574-1.469-21.066-22.59m32.543-18.98c-1.86-1.355-4.57-.926-5.922.938-1.39 1.918-.918 4.57.937 5.918a4.21 4.21 0 0 0 5.926-.934 4.252 4.252 0 0 0-.941-5.922M64.816 358.176l2.196 4.922-25.461 11.336-2.196-4.922-2.43 1.082 6.606 14.828 2.43-1.078-2.164-4.856 11.223-4.996 7.976 17.91-11.223 4.996-2.191-4.918-2.426 1.079 6.602 14.832 2.43-1.082-2.196-4.918 25.461-11.344 2.195 4.93 2.43-1.09-6.605-14.825-2.43 1.083 2.191 4.921-11.613 5.172-7.973-17.918 11.614-5.172 2.16 4.86 2.426-1.082-6.602-14.828-2.43 1.078m-41.375-53.348 2.258 14.27 2.84-.453-.84-5.325 17.735-2.808c5.742-.91 10.468 2.27 11.308 7.593.824 5.176-2.597 9.286-8.418 10.204l-17.804 2.82-.856-5.395-2.84.454 2.547 16.109 2.844-.457-.856-5.395 19.297-3.054c6.672-1.055 10.688-7.364 9.485-14.954-1.282-8.09-7.407-12.796-15.07-11.582l-17.946 2.848-.844-5.32-2.84.445m34.84-69.84-.66 5.344-27.445-3.367.652-5.352-2.848-.347-1.367 11.12 22.688 14.438-25.48 8.305-1.317 10.695 2.855.352.657-5.348 27.449 3.371-.656 5.348 2.64.324 1.758-14.332-2.64-.324-.657 5.348-22.383-2.75 26.985-8.774-25.364-16.21 23.809 2.925-.652 5.348 2.636.32 1.977-16.113-2.637-.32M42.5 193.438l1.828-4.758c1.258-3.29 3.805-4.309 7.16-3.024 3.418 1.309 4.805 4.305 3.52 7.66l-1.649 4.293-10.859-4.172m13.543 5.2 1.855-4.825c1.704-4.43 4.696-5.82 8.856-4.222 3.816 1.469 4.89 4.492 3.187 8.922l-1.824 4.761Zm17.512-1.508c2.441-6.375.906-11.195-4.254-13.176-5.031-1.93-9.465.602-12.14 6.957 1.882-4.89.362-9.555-3.661-11.097-4.695-1.805-9.102.66-11.29 6.363l-6.28 16.36 2.476.948 1.938-5.023 26.015 9.984-1.93 5.032 2.481.953 6.645-17.301m-3.075-59.024c3.465-4.94 11.5-5.27 18.094-.66 6.645 4.653 9.125 12.262 5.621 17.266-3.457 4.941-11.515 5.176-18.164.52-6.535-4.57-9.008-12.18-5.55-17.126m26.226 18.278c5.191-7.418 3.016-18.586-4.691-23.985-7.59-5.316-18.77-3.5-23.965 3.918-5.27 7.532-3.215 18.618 4.433 23.973 7.77 5.441 18.95 3.625 24.223-3.906m35.77-52.551-1.86 1.8 3.043 3.15-8.68 8.382-19.058-19.738 3.871-3.746-1.992-2.063-11.68 11.278 1.996 2.066 3.875-3.746 19.211 19.89-3.879 3.75 1.852 1.91 18.344-17.71-5.043-5.223M157.21 91.27l-14.538-23.274 4.812-3.004c5.606-3.5 13.125-1.086 17.235 5.488 4.113 6.579 2.91 14.282-2.754 17.82l-4.754 2.97m-7.676 8.187 14.442-9.027c8.402-5.254 10.968-15.246 5.945-23.282-4.91-7.855-15.25-10.039-23.535-4.859l-14.438 9.023 1.41 2.25 4.567-2.851 14.77 23.633-4.567 2.86 1.406 2.253m65.918-35.488-5.77 1.984-9.003-26.148 9.914-3.414 1.308 3.804 2.516-.867-2.715-7.879-2.512.871.47 1.352-24.997 8.61-.465-1.36-2.449.844 2.715 7.875 2.445-.84L185.602 45l9.918-3.414 9 26.144-5.774 1.993.867 2.511 16.707-5.757-.867-2.508M245.21 39.95l-13.468 2.624 1.043 5.356 13.469-2.614-1.043-5.367m60.562-16.511-14.43-.247-.046 2.872 5.387.093-.317 17.957c-.101 5.82-4.055 9.914-9.441 9.825-5.238-.094-8.688-4.176-8.586-10.067l.316-18.027 5.453.093.051-2.867-16.3-.289-.051 2.867 5.457.102-.34 19.531c-.117 6.758 5.398 11.809 13.082 11.942 8.187.144 13.883-5.078 14.015-12.832l.317-18.168 5.387.093.046-2.878m58.731 14.726 5.2 1.395.745-2.774-13.945-3.738-.746 2.777 5.273 1.41-5.316 19.844-13.442-27.84-8.945-2.398-.746 2.773 4.86 1.301.902 2.176-6.672 24.906-5.207-1.39-.684 2.566 13.946 3.738.687-2.566-5.27-1.414 5.477-20.47 13.809 28.981 2.078.559 7.996-29.836m31.934 44.512-4.758-2.531 12.984-24.41 4.762 2.527 1.344-2.54-14.332-7.62-1.352 2.539 4.762 2.53-12.985 24.415-4.758-2.531-1.246 2.347 14.336 7.621 1.243-2.347m53.585 2.894 2.41 1.813 1.731-2.293-8.316-6.27-1.735 2.297 3.274 2.461-20.59 12.281 5.96-23.3 3.614 2.722 1.727-2.293-11.13-8.386-1.73 2.293 2.813 2.117-8.434 32.675 1.375 1.043 29.031-17.16m18.434 52.508-1.777-1.973-2.828 2.547-8.176-9.074 9.347-8.414 6.149 6.832-2.664 2.406 1.773 1.973 7.422-6.68-1.832-1.925-2.562 2.308-6.153-6.84 8.914-8.023 7.883 8.758-2.773 2.5 1.726 1.922 5.98-5.387-1.777-1.977-1.066.957-15.094-16.754-1.976 1.774 3.605 4.012-20.715 18.644-3.605-4.008-1.969 1.781 17.203 19.11 4.965-4.469m39.008 16.485 2.437 4.398c1.809 3.266.84 6.105-2.683 8.055-3.453 1.918-6.86 1.257-8.531-1.758l-2.47-4.461 11.247-6.234m-13.531 32.632-.977-1.761c-.766-1.383-.672-2.993.309-4.93l5.3-10.582c3.055 3.73 7.563 4.598 11.77 2.27 5.09-2.829 5.98-7.59 2.601-13.684l-8.214-14.824-2.516 1.39 2.617 4.715-24.187 13.41-2.617-4.715-2.32 1.29 7.866 14.199 2.329-1.293-2.618-4.711 10.434-5.778 1.707 3.079-6.387 12.328c-1.52 2.894-1.492 3.539.035 6.3l2.547 4.586 2.32-1.289m6.196 19.586c-.64 3.153-.59 5.856.254 8.453 1.844 5.672 7.11 8.637 12.234 6.977 4.446-1.445 6.094-3.793 7.461-10.734.36-1.704.785-3.653 1.23-5.762.61-2.766 1.325-3.828 3.106-4.406 2.793-.91 5.266.629 6.305 3.843.601 1.844.652 3.188.09 6.32l-3.418 1.11.824 2.523 8.191-2.66-.816-2.53-1.711.558c.453-2.34.289-4.477-.442-6.727-1.78-5.469-7.074-8.508-11.992-6.91-4.027 1.312-5.754 4.14-6.812 11.125-1.02 6.601-2.2 9.027-4.79 9.867-2.667.867-5.374-.969-6.488-4.39-.757-2.32-.761-4.43-.011-7.7l3.55-1.156-.816-2.523-8.539 2.77.816 2.534 1.774-.582m13.379 53.34-.75-5.34 27.379-3.847.758 5.336 2.84-.399-2.255-16.074-2.851.398.75 5.332-27.387 3.848-.75-5.332-2.629.371 2.258 16.074 2.637-.367m.594 41.879.21-6.102 27.641.97-.363 10.484-4.028-.145-.085 2.656 8.324.29.094-2.657-1.434-.047.918-26.418 1.437.051.094-2.586-8.332-.293-.09 2.586 4.024.14-.367 10.477-27.637-.957.21-6.101-2.655-.098-.618 17.66 2.657.09m5.683 32.95 10.945 8.359-13.539 2.03 2.594-10.39m27.04 11.188c1.952.492 3.956-.715 4.433-2.598.48-1.945-.719-3.95-2.676-4.441-1.875-.47-3.875.73-4.367 2.687-.473 1.883.734 3.883 2.61 4.352Zm-3.071 12.34c1.95.492 3.953-.72 4.422-2.606a3.666 3.666 0 0 0-2.668-4.433c-1.88-.47-3.883.734-4.367 2.683-.47 1.883.73 3.887 2.613 4.356Zm-40.106-2.747.747-2.996 33.863-5.18.453-1.812-27.332-21.023.66-2.653-2.574-.64-2.434 9.754 2.578.64.977-3.898 6.773 5.168-3.156 12.687-8.387 1.239.77-3.067-2.582-.64-2.918 11.707 2.562.714m-14.933 34.782 2.574-5.532 25.063 11.684-4.43 9.504-3.64-1.695-1.122 2.406 7.543 3.523 1.125-2.41-1.3-.601 11.167-23.965 1.301.61 1.098-2.345-7.555-3.52-1.094 2.34 3.653 1.704-4.434 9.504-25.066-11.688 2.582-5.535-2.407-1.125-7.468 16.016 2.41 1.125"/>
</svg>
