<svg xmlns="http://www.w3.org/2000/svg" version="1.0" viewBox="0 0 1024 321">
  <path d="M143 1.1c-27.5 3.1-54.3 13.5-76.8 29.6-11.5 8.2-27.3 24-35.8 35.8C22 78.2 10.9 100.7 7 114c-7.7 26.5-8.7 52.6-3 79.7 2.8 13.5 6.3 23.1 13.6 37.8 24.6 49.8 75.3 83.7 130.4 87.3 29.3 2 54.8-2.9 80.7-15.3 45.2-21.6 77-62.4 87.5-112.3 2-9.2 2.3-13.6 2.3-31.7-.1-22.7-1.4-31.7-7.1-49.1-3.8-11.7-14.3-32.7-21.2-42.3-34.1-47.6-90.8-73.4-147.2-67zM180.4 91c8.7.6 19.9 1.9 25 3 11.4 2.5 24.1 8.5 29.6 14 5.2 5.2 11.8 15.4 16.7 25.6l3.7 7.9.4 16.7.4 16.8h-3.3c-2.3 0-4.3-1.1-7.4-3.9-4.2-3.9-10-7.3-16-9.5-2-.7-28.7-1.2-82.5-1.6l-79.5-.5-.3-23.5c-.3-25.6.2-29.6 4.6-34.3 3.9-4.1 6.7-5.4 15.2-6.5 31.3-4.5 65.4-6 93.4-4.2zm43.1 77.1c7.8 1.4 12.7 4 19 10 4.8 4.5 5.6 4.9 10.1 4.9 2.8 0 5.5.5 6.2 1.2 1.2 1.2 1.7 13.4.6 16.2-.5 1.3-2.3 1.6-9.5 1.6-6.3 0-9.1-.4-9.3-1.3-.2-.6-.9-3.1-1.5-5.5-2.5-9.1-11.4-15.5-21.6-15.5-10.2 0-19.1 6.4-21.6 15.5-.6 2.4-1.3 4.9-1.5 5.5-.3 1-8.5 1.3-36.7 1.3h-36.4l-.7-3.9c-.9-6-6.3-13.1-12-16-13-6.7-29.2.9-32.6 15l-1.2 5-4.7-.3c-4-.3-4.6-.6-4.9-2.7-.2-1.3.1-2.8.7-3.4.7-.7 1.1-6.2 1.1-14.3 0-9.7.3-13.4 1.3-13.7 2.6-1.1 149.3-.7 155.2.4zM106 189.2c7.6 5.2 9.7 12.3 5.8 19.8-2.5 4.8-8.9 9-13.7 9-3.6 0-10.3-3.6-12.6-6.7-2.9-4-3.2-12.9-.6-17.1 4.5-7.1 14.5-9.5 21.1-5zm120.1.2c9.3 6.3 9 19-.5 26-3.8 2.9-12.4 2.9-16.2 0-4.4-3.2-6.6-6.8-7.1-11.6-1.1-9.3 5.7-16.8 15.2-16.8 3.7 0 6 .7 8.6 2.4z"/>
  <path d="M77.4 113.3c-.2.7-.3 7.8-.2 15.7l.3 14.5h32l.3-13.5c.4-19.8 2.1-18-16.4-18-11.7 0-15.6.3-16 1.3zM118 128v16h32.1l-.3-15.8-.3-15.7-15.7-.3-15.8-.3V128zm40.7-15.3c-.4.3-.7 7.5-.7 16V144h32v-32h-15.3c-8.5 0-15.7.3-16 .7zm39.7.6c-.2.7-.3 7.8-.2 15.7l.3 14.5 23.8.3c21 .2 23.7.1 23.7-1.3 0-2.5-8.1-18.1-11.4-22.2-1.6-1.9-5.2-4.6-8-5.9-4.4-2.1-6.6-2.4-16.4-2.4-8.3 0-11.4.3-11.8 1.3zM93 197c-2.5 2.5-2.6 8.1-.2 10.3.9.8 2.9 1.9 4.4 2.2 2.2.6 3.3.1 5.9-2.4 2.5-2.5 3-3.7 2.5-5.9-1.4-5.8-8.6-8.2-12.6-4.2zm119.1.6c-4.2 5.4-1.3 11.8 5.4 11.8s9.6-6.4 5.4-11.8c-1.5-1.9-3-2.6-5.4-2.6-2.4 0-3.9.7-5.4 2.6zM376 84.6c-3.5.8-6.8 1.8-7.2 2.2-.5.5-.7 26.9-.6 58.8l.3 57.9 8.6.3c6.4.2 8.9-.1 9.8-1.1.8-1.1 1-16.7.9-60.3l-.3-58.9-2.5-.2c-1.4-.1-5.4.5-9 1.3zm54.3 36.9c-12.7 3.4-22.7 11.6-28.3 22.8-8.4 17-4.8 36.9 8.9 50.1 10.7 10.1 24.1 14.1 38 11.2 9.4-2 15.8-5.6 22.6-12.7 8.2-8.6 7.6-9.6-6.7-12-7-1.2-7.7-1.1-10.4.7-4.9 3.4-8.3 4.4-14.2 4.4-4.5 0-6.8-.7-10.9-3-4.4-2.5-9.3-7.5-9.3-9.4 0-.3 14-.7 31.2-.8l31.2-.3 1-4c1.3-5.5-.6-16.1-4.2-24-8.5-18-30-28.1-48.9-23zm20.8 21.6c3.6 1.8 9.9 8.1 9.9 9.9 0 .6-8 1-20.5 1-11.3 0-20.5-.3-20.5-.8 0-1.5 6.3-8.3 9.1-9.7 7-3.7 15.2-3.8 22-.4zm236.9-22c-10.1 2-22.4 10.7-27.6 19.6-13.3 22.6-4.7 51.1 18.7 61.7 11.9 5.5 23.9 5.5 35.7.1 5.5-2.5 5.5-2.5 6.9-.5 1.2 1.7 2.5 2 9.7 2 5 0 8.7-.5 9.4-1.2.9-.9 1.2-10.9 1.2-38.9 0-20.8-.3-38.4-.6-39.3-.5-1.3-2.4-1.6-9.9-1.6-8.4 0-9.4.2-10 1.9-.6 1.9-.8 1.9-5.9-.5-8.9-4.1-18-5.2-27.6-3.3zm21.1 22c7.4 3.7 11.9 11.4 11.9 20.2 0 14.1-9.9 23.3-24.1 22.5-7.9-.4-13.4-3.5-17.6-10-3.6-5.3-4.5-16.6-1.8-21.9 6.1-12.1 19.8-16.7 31.6-10.8zm76.2-22.1c-15.7 3.3-28.5 15.9-32.9 32.3-5 18.7 5 39.9 22.8 48.6 12.4 6 25.5 6.1 37.6.4 2.9-1.4 5.6-2.3 5.9-2 .2.3-.2 3.1-1.1 6.2-2 6.6-7.3 13-13.1 15.6-7.4 3.4-17.6 2.1-24.1-3-1.4-1.1-3.1-1.7-3.9-1.5-1.8.7-6.8 15.8-6 18.3.3 1 3.3 3.1 6.8 4.7 5.7 2.7 7.1 2.9 17.7 2.9 10.9 0 11.9-.2 18.3-3.2 8.3-4 17.1-12.5 20.9-20.3 4.5-9.5 4.9-14.4 4.6-57l-.3-39.5-9.3-.3c-8.8-.3-9.4-.1-9.9 1.8-.3 1.2-1.1 1.9-1.7 1.6-13.3-5.9-22.9-7.6-32.3-5.6zm20.8 22.1c8.8 4.4 14.1 15.7 11.9 25-4.8 19.9-30.9 24.6-41.4 7.5-4.2-6.8-4.8-16.1-1.4-22.5 6-11.2 19.6-15.7 30.9-10zm75.2-21.6c-17.4 4.7-29.3 17.7-32.5 35.5-2.3 13.1 2.7 27.4 13 37.2 7 6.7 12.2 9.5 21.5 11.4 13.7 2.9 27.2-1.2 37.8-11.2 13.8-13.2 17.3-32.3 9-50-8.4-17.8-29.9-27.9-48.8-22.9zm20.8 21.6c7.4 3.7 11.9 11.4 11.9 20.4 0 3.1-.6 7-1.3 8.8-7.7 18.3-34.7 18.3-42.4 0-1.8-4.3-1.7-13.5.3-18.1 5-12 19.5-17.1 31.5-11.1zm74.2-22.1c-2.3.5-5.6 1.6-7.4 2.5-2.5 1.3-3.6 1.5-5.3.6-1.3-.7-5.6-1.1-10.6-.9l-8.5.3-.3 38.9c-.2 28.4.1 39.2.9 40.3.9 1 3.4 1.3 9.8 1.1l8.6-.3.5-24.5c.5-24.3.5-24.5 3.2-29 6.2-10.7 21.4-12.6 29.4-3.8 5.1 5.6 5.4 7.1 5.4 32.1 0 16.8.3 23.6 1.2 24.5 1.8 1.8 18.2 1.6 19.8-.3.9-1 1.1-8 .8-26.7l-.3-25.3-3.1-6.6c-8.4-17.8-25.4-26.6-44.1-22.9zm-451.8 3.3c-.5 1.1 24.3 75.9 26 78.7.9 1.5 19.1 1.3 20.2-.3.6-.6 4.5-11.5 8.8-24 4.3-12.5 8.1-23 8.6-23.2 1.2-.8 1.3-.4 9.5 23.6 4.2 12.3 8.1 23 8.6 23.6.7.9 4.1 1.3 10.4 1.3 9.4 0 9.5 0 10.5-2.8 4.9-12.3 25.9-75.9 25.4-76.9-.3-1.1-2.7-1.3-9.7-1.1l-9.2.3-7.9 23c-4.3 12.6-8.3 23.4-8.8 24-1.5 1.5-2 .3-9.9-23.4-4-11.9-7.7-22.2-8.3-22.9-.6-.8-4-1.2-10.2-1.2-6.2 0-9.6.4-10.2 1.2-.6.7-2.3 5.1-3.8 9.8-7.1 21.6-12.8 37-13.9 37-.6 0-4.7-10.7-9.2-23.8l-8-23.7-9.2-.3c-7-.2-9.4 0-9.7 1.1z"/>
</svg>
