<svg xmlns="http://www.w3.org/2000/svg" xmlns:xlink="http://www.w3.org/1999/xlink" xml:space="preserve" version="1.0" viewBox="0 0 343.59 150">
  <defs>
    <path id="a" d="M0 0h343.589v150H0z"/>
  </defs>
  <clipPath id="b">
    <use xlink:href="#a" overflow="visible"/>
  </clipPath>
  <g clip-path="url(#b)">
    <defs>
      <path id="c" d="M3.955 1.726h335.682v146.548H3.955z"/>
    </defs>
    <clipPath id="d">
      <use xlink:href="#c" overflow="visible"/>
    </clipPath>
    <path fill="#00273C" d="M116.899 44.144h10.569v1.882h-8.455v6.625h8.406v1.883h-8.406v6.807h8.455v1.88h-10.569V44.144zm8.096-5.879.696 1.391-6.214 3.328-.619-1.239 6.137-3.48zm24.053 19.826c-1.239 2.938-4.563 5.466-8.766 5.466-5.645 0-9.952-4.356-9.952-9.875 0-5.441 4.203-9.876 9.927-9.876 4.717 0 7.682 3.147 8.792 5.57h-2.294c-.644-1.135-2.811-3.687-6.497-3.687-4.461 0-7.812 3.534-7.812 7.966 0 4.513 3.378 8.02 7.812 8.02 3.996 0 6.032-2.862 6.497-3.584h2.293zm1.939-4.357c0-5.878 4.564-9.928 9.952-9.928 5.594 0 9.952 4.282 9.952 9.876 0 5.593-4.331 9.875-9.952 9.875-5.646 0-9.952-4.356-9.952-9.797v-.026zm2.14-.051c0 4.486 3.377 7.993 7.837 7.993 4.512 0 7.811-3.635 7.811-7.993 0-4.358-3.299-7.993-7.836-7.993-4.486 0-7.812 3.559-7.812 7.966v.027zm21.375-9.539h2.141v17.198h8.184v1.88h-10.324V44.144zm13.01 0h10.57v1.882h-8.455v6.625h8.404v1.883h-8.404v6.807h8.455v1.88h-10.57V44.144zm-64.769 26.347c3.225 0 4.513.465 5.623 1.316 1.391 1.133 2.164 2.99 2.164 4.873 0 1.881-.8 3.84-2.011 4.82-1.289 1.057-2.578 1.521-5.363 1.521h-2.345v6.549h-3.842V70.49h5.774zm-1.933 9.152h2.27c.875 0 1.726-.076 2.5-.488.696-.361 1.263-1.213 1.263-2.424 0-1.211-.567-2.011-1.315-2.373-.772-.413-1.648-.489-2.603-.489h-2.114v5.774zm11.758.541c0-6.109 4.693-10.052 10.005-10.052 5.774 0 10.028 4.484 10.028 9.9 0 5.412-4.229 9.898-10.055 9.898-5.854 0-9.979-4.613-9.979-9.719v-.027zm3.842-.153c0 3.48 2.501 6.521 6.215 6.521 3.866 0 6.135-3.352 6.135-6.496 0-3.197-2.269-6.55-6.164-6.55-3.815 0-6.187 3.146-6.187 6.498v.027zm19.803-9.54h3.841v15.701h6.267v3.379h-10.108v-19.08zm16.401 12.245L166.76 70.49h4.151l3.608 8.664 3.637-8.664h4.125l-5.826 12.246v6.834h-3.841v-6.834zm15.986-8.867h-4.123v-3.378h12.064v3.378h-4.1V89.57H188.6V73.869zm12.017-3.378h10.699v3.378h-6.859V78.2h6.73v3.379h-6.73v4.613h6.859v3.379h-10.699v-19.08zm33.028 12.685c-1.16 3.943-4.873 6.754-9.334 6.754-5.826 0-10.002-4.613-10.002-9.926 0-5.078 3.943-9.873 9.979-9.873 5.488.023 8.607 4.072 9.357 6.857h-4.049c-.592-1.316-2.293-3.455-5.338-3.482-3.709 0-6.109 3.121-6.109 6.498 0 3.48 2.502 6.549 6.139 6.549 3.402 0 4.949-2.68 5.309-3.377h4.048zm3.146 6.394V70.49h3.842v7.658h7.35V70.49h3.842v19.08h-3.842v-8.043h-7.35v8.043h-3.842zm32.676-5.853-.076-13.226h3.684v19.08h-3.4l-8.793-13.201.076 13.201h-3.686v-19.08h3.428l8.767 13.226zm9.07-13.226h3.844v19.08h-3.844v-19.08zm35.75 0v11.73c0 .955.025 1.936.541 2.889.463.826 1.314 1.443 2.576 1.443 1.291 0 2.143-.592 2.555-1.365.541-.928.541-1.934.541-2.967v-11.73h3.84v11.73c0 2.838-.539 4.539-2.008 5.879-1.162 1.109-2.785 1.83-4.898 1.83-1.367 0-3.557-.359-4.979-1.83-1.752-1.676-2.01-3.324-2.01-5.879v-11.73h3.842zm14.471 0h10.701v3.378H332.6V78.2h6.73v3.379h-6.73v4.613h6.859v3.379h-10.701v-19.08zm-22.666 16.204c-.297 0-1.209-.098-1.896-.561a9.886 9.886 0 0 0 2.082-6.104c0-5.416-4.256-9.9-10.029-9.9-5.311 0-10.004 3.943-10.004 10.052v.027c0 3.578 2.025 6.912 5.254 8.588.002.004.006.004.01.006.209.107.424.213.643.305a9.986 9.986 0 0 0 4.088.879c1.693 0 3.361-.438 4.807-1.219.205-.109.4-.229.598-.35.875.59 2.289 1.568 4.525 1.568h.488v-3.293h-.566zm-16.006-6.664v-.027c0-3.352 2.373-6.498 6.186-6.498 3.896 0 6.162 3.353 6.162 6.55a6.965 6.965 0 0 1-.996 3.555l-2.033-2.023-2.312 2.348 1.963 1.953a5.876 5.876 0 0 1-2.756.664c-3.714 0-6.214-3.041-6.214-6.522m-171.893 20.364v6.385c0 .764 0 1.348.478 2.029.354.504 1.021.844 1.755.844.723 0 1.389-.326 1.73-.83.475-.668.475-1.252.475-2.043v-6.385h1.118v6.385c.014 1.172-.136 2.33-1.145 3.105-.558.477-1.306.762-2.179.762-.708 0-1.593-.203-2.218-.762-1.063-.857-1.145-2.002-1.145-3.105v-6.385h1.131zm17.359 8.414-.014-8.414h1.089v10.076h-1.089l-5.978-8.484.027 8.484h-1.089v-10.076h1.144l5.91 8.414zm5.865-8.414h1.116v10.076h-1.116v-10.076zm4.881 0h1.185l3.335 8.619 3.351-8.619h1.184l-4.003 10.076h-1.075l-3.977-10.076zm12.833 0h5.583v.994h-4.467v3.5h4.44v.992h-4.44v3.596h4.467v.994h-5.583v-10.076zm9.871 0h2.628c1.579 0 2.315.189 2.833.518.816.49 1.375 1.566 1.375 2.709.014.682-.178 1.402-.6 1.975-.598.816-1.32 1.008-2.247 1.104l2.505 3.771h-1.225l-2.846-4.398h.326c.708 0 1.69-.014 2.235-.518.531-.518.762-1.129.762-1.852 0-.75-.367-1.539-.992-1.947-.506-.326-1.132-.367-2.044-.367h-1.58v9.082h-1.13v-10.077zm11.482 7.271c.164 1.674 1.391 2.027 2.016 2.027 1.049 0 2.016-.803 2.016-1.92 0-1.416-1.213-1.729-2.385-2.109-.816-.244-2.572-.764-2.572-2.67-.027-1.781 1.457-2.775 2.998-2.775 1.25 0 2.693.693 2.857 2.6h-1.117c-.123-.654-.449-1.648-1.783-1.648-1.006 0-1.836.682-1.836 1.729-.016 1.227.979 1.527 2.502 2.045.953.367 2.453.896 2.453 2.748 0 1.648-1.24 2.955-3.119 2.955-1.688 0-3.092-1.061-3.158-2.98h1.128zm9.454-7.271h1.115v10.076h-1.115v-10.076zm7.339.994H194.8v-.994h6.1v.994h-2.492v9.082h-1.131v-9.082zm7.375-.994h5.582v.994h-4.467v3.5h4.438v.992h-4.438v3.596h4.467v.994h-5.582v-10.076zm4.276-3.106.367.736-3.281 1.756-.328-.652 3.242-1.84zm15.068 3.106c1.416 0 2.084.162 2.709.641.668.516 1.076 1.457 1.076 2.395 0 .955-.424 1.92-1.035 2.398-.666.516-1.348.68-2.654.68h-1.621v3.963h-1.131v-10.076h2.656zm-1.525 5.119h1.607c.844 0 1.361-.094 1.863-.422.438-.285.75-.926.75-1.633 0-.723-.312-1.361-.762-1.648-.504-.326-1.021-.422-1.879-.422h-1.58v4.125zm8.638 4.957h-1.211l4.205-10.076h1.09l4.166 10.076h-1.225l-1.17-2.832h-4.699l-1.156 2.832zm3.5-8.811-2.004 5.053h4.018l-2.014-5.053zm8.471-1.265h2.629c1.58 0 2.312.189 2.83.518.818.49 1.377 1.566 1.377 2.709.014.682-.178 1.402-.6 1.975-.6.816-1.32 1.008-2.246 1.104l2.506 3.771h-1.227l-2.846-4.398h.326c.709 0 1.689-.014 2.232-.518.531-.518.764-1.129.764-1.852 0-.75-.367-1.539-.994-1.947-.502-.326-1.131-.367-2.043-.367h-1.58v9.082h-1.129v-10.077zm10.947 0h1.115v10.076h-1.115v-10.076zm6.528 7.271c.164 1.674 1.389 2.027 2.014 2.027 1.049 0 2.016-.803 2.016-1.92 0-1.416-1.211-1.729-2.383-2.109-.816-.244-2.574-.764-2.574-2.67-.025-1.781 1.459-2.775 2.996-2.775 1.254 0 2.697.693 2.861 2.6h-1.117c-.121-.654-.449-1.648-1.785-1.648-1.008 0-1.838.682-1.838 1.729-.014 1.227.982 1.527 2.506 2.045.953.367 2.449.896 2.449 2.748 0 1.648-1.238 2.955-3.117 2.955-1.688 0-3.09-1.061-3.156-2.98h1.128zm12.627-.518h-3.689v-.994h3.689v.994zm4.693.518c.162 1.674 1.389 2.027 2.016 2.027 1.047 0 2.014-.803 2.014-1.92 0-1.416-1.209-1.729-2.381-2.109-.818-.244-2.574-.764-2.574-2.67-.027-1.781 1.457-2.775 2.994-2.775 1.254 0 2.697.693 2.861 2.6h-1.117c-.121-.654-.449-1.648-1.785-1.648-1.008 0-1.836.682-1.836 1.729-.014 1.227.98 1.527 2.504 2.045.953.367 2.451.896 2.451 2.748 0 1.648-1.238 2.955-3.119 2.955-1.688 0-3.09-1.061-3.158-2.98h1.13zm9.475 2.805h-1.213l4.207-10.076h1.09l4.166 10.076h-1.225l-1.17-2.832h-4.699l-1.156 2.832zm3.5-8.811-2.004 5.053h4.02l-2.016-5.053zm17.47 6.102c-.652 1.551-2.41 2.885-4.629 2.885-2.98 0-5.256-2.301-5.256-5.213 0-2.875 2.219-5.215 5.242-5.215 2.49 0 4.057 1.66 4.643 2.939h-1.211c-.342-.6-1.484-1.945-3.432-1.945-2.355 0-4.125 1.863-4.125 4.207 0 2.381 1.783 4.232 4.125 4.232 2.111 0 3.186-1.51 3.432-1.891h1.211zm4.145-7.367h1.129v9.082h3.84v.994h-4.969v-10.076zm9.476 10.076h-1.211l4.207-10.076h1.09l4.168 10.076h-1.227l-1.17-2.832H323.1l-1.159 2.832zm3.5-8.811-2 5.053h4.016l-2.016-5.053zm9.825 5.27-3.238-6.535h1.225l2.588 5.445 2.572-5.445h1.225l-3.24 6.535v3.541h-1.131v-3.541z" clip-path="url(#d)"/>
    <path fill="#00273C" d="M79.248 41.813c-5.069 5.98-11.61 13.721-17.444 20.945C39.106 34.701 17.993 12.199 4.008 1.735l-.009-.01.003.005-.004-.002.006.01c7.295 16.742 25.255 42.543 48.802 72.51-12.217 15.838-36.476 47.283-48.842 74.014l-.01.01c0-.002.005-.004.005-.004v.006l.004-.01c16.848-13.277 39.438-39.539 57.826-62.723 22.644 28.119 44.191 52.178 58.093 62.578l.007.01-.002-.006c.001 0 .002.006.007.006l-.008-.01c-7.25-16.645-25.705-44.17-49.104-74.072 9.172-11.791 12.517-15.985 21.539-28.719 9.795-13.824 25.649-33.604 34.156-29.466-12.698-7.211-30.807 6.577-47.229 25.951" clip-path="url(#d)"/>
    <path fill="#00273C" d="M33.815 66.186c-.264-.191-.591-.285-.982-.285-.503 0-1.064.174-1.68.52-.611.348-1.253.827-1.921 1.444a20.949 20.949 0 0 0-2.029 2.189 29.069 29.069 0 0 0-1.979 2.751 37.3 37.3 0 0 0-1.787 3.129 30.605 30.605 0 0 0-1.461 3.33 25.237 25.237 0 0 0-.981 3.357c-.171.799-.279 1.57-.328 2.32-.655.596-1.238 1.115-1.744 1.559a36.361 36.361 0 0 1-1.766 1.463c-.524.389-.829.623-1.252.855l.247.926c.414-.186.994-.604 1.549-1.023.508-.385 1.089-.896 1.771-1.484.355-.312.748-.66 1.174-1.043.026.654.119 1.232.282 1.723.196.58.453 1.059.772 1.434.32.375.688.648 1.109.82.418.176.858.264 1.316.264.547 0 1.085-.143 1.621-.422a7.752 7.752 0 0 0 1.517-1.057c.392-.344.78-.77 1.125-1.189l-.573-.609c-.082.096-.166.188-.25.281-.356.398-.728.752-1.106 1.064a6.306 6.306 0 0 1-1.151.764c-.383.197-.77.295-1.149.295-.57 0-1.011-.236-1.325-.707-.313-.469-.492-1.189-.523-2.164-.01-.324-.001-.699.012-1.045.015-.391.066-.75.139-1.127.288-.281.583-.605.881-.92.118-.107.217-.223.347-.348.225-.211.481-.467.772-.762.29-.297.649-.684 1.074-1.158a110.953 110.953 0 0 0 3.608-4.254c.402-.494.808-1.029 1.215-1.612.41-.581.802-1.179 1.177-1.796.374-.613.725-1.232 1.047-1.853.324-.621.608-1.216.847-1.779.24-.566.43-1.089.572-1.568.14-.482.208-.896.208-1.243-.002-.503-.132-.851-.395-1.04m-.899 2.935a17.424 17.424 0 0 1-1.074 2.265 30.505 30.505 0 0 1-1.661 2.645 61.093 61.093 0 0 1-2.141 2.888 71.128 71.128 0 0 1-2.499 3.002 85.002 85.002 0 0 1-2.748 2.98l-.005-.01-.002.004a21.97 21.97 0 0 1 1.085-3.723 35.91 35.91 0 0 1 1.679-3.708 34.242 34.242 0 0 1 2.005-3.372 32.477 32.477 0 0 1 2.064-2.76c.663-.789 1.282-1.412 1.852-1.872.573-.458 1.03-.688 1.378-.688.121 0 .258.055.347.207a.73.73 0 0 1 .105.379c.002.493-.127 1.082-.385 1.763m7.264-.06c.03.38-.074.816-.271 1.179-.197.366-.482.705-.806 1.028a6.472 6.472 0 0 1-1.094.871c-.406.256-.82.469-1.237.635l-.341-.573a7.56 7.56 0 0 0 1.346-.862c.417-.334.711-.657.878-.969-.382-.083-.657-.248-.824-.492a1.358 1.358 0 0 1-.251-.782c0-.372.13-.678.394-.923.262-.247.566-.368.916-.368.369 0 .679.133.923.394.245.263.339.518.367.862" clip-path="url(#d)"/>
    <path fill="#00273C" fill-rule="evenodd" d="M57.645 24.063c.125.033.353.085.458.11-.06.184-.131.334-.198.52-.067.18-.168.454-.282.597a10.787 10.787 0 0 1-.533-.118c.184-.321.366-.792.555-1.109m-6.072 2.89a3.318 3.318 0 0 0-.123.416c-.202.399-.407.793-.679 1.122-.061.017-.089.111-.143.104a2.026 2.026 0 0 0-.433-1.198c-.089-.117-.215-.215-.321-.321-.107-.107-.203-.221-.302-.33-.206-.225-.43-.426-.594-.679a1.906 1.906 0 0 1-.161-1.019c.063-.123.195-.176.332-.228.25-.012.458.02.659.057.201.099.334.257.51.406.226.193.431.387.652.594.239.227.481.449.631.764-.011.102-.026.2-.028.312m2.254 2.205c.133-.262.374-.535.528-.792.596.383 1.29.643 1.981.935.694.292 1.429.513 2.141.754.059.053.096.131.142.198-.276.457-.578.94-.868 1.416-.055.089-.094.18-.17.217.027.02-.02.02-.039.019-.134-.006-.349-.22-.49-.32-.999-.718-2.018-1.433-3.047-2.171-.095-.07-.238-.137-.178-.256m4.943 1.916c.027.563.044 1.222-.008 1.736-.019.181-.067.357-.104.528-.081.379-.149.679-.292.99-.196.429-.479.883-.83 1.151a1.87 1.87 0 0 1-.717.35 2.948 2.948 0 0 1-1 .047 4.606 4.606 0 0 1-.688-.169c-.206-.067-.382-.186-.566-.284a12.972 12.972 0 0 1-.802-.472c-.055-.034-.157-.073-.18-.14-.005-.019.036-.05-.018-.048.317-.008.55-.103.773-.207.061-.083.132-.158.198-.235.019-.121.043-.172.019-.265-.03-.114-.164-.152-.18-.263-.026-.206.193-.357.417-.312.103.021.225.102.35.151.217.087.436.168.716.217.117.021.228.067.339.084.117.018.223.001.34.01.177.014.224.041.321-.104.029-.043.096-.117.103-.151.013-.051-.032-.106-.028-.159.001-.035.025-.072.028-.114.006-.063-.02-.131-.009-.179.013-.059.066-.108.103-.169.105-.176.186-.345.311-.51.078-.056.339-.013.396-.084.063-.077-.017-.309-.009-.396.328-.49.637-1 .943-1.509.098.059.065.313.074.506m.303-.509c0-.149-.035-.389.066-.416.057-.016.175.027.264.038.444.055.83.133 1.311.151.134.005.437-.007.51.057.086.078.061.374.066.539.007.225.007.417.019.584.005.069.027.11.028.161.002.081-.013.163-.011.245.023.597.04 1.218.077 1.802.012.208-.013.423 0 .632.004.075.029.143.028.218-.012.521.024 1.076.046 1.612.024.527.015 1.054.039 1.576.019.403.03.808.028 1.217 0 .119.034.248-.028.359-.499.017-.976.018-1.443-.01-.461-.028-.902-.104-1.33-.169-.632-.096-1.247-.272-1.821-.434-.195-.055-.397-.102-.576-.171-.203-.078-.403-.191-.604-.292a14.784 14.784 0 0 1-1.688-.973c-.702-.476-1.314-1.085-1.841-1.716a15.363 15.363 0 0 1-2.613-4.5c.035-.013.055.041.066.056.145.198.29.422.453.615.369.437.744.882 1.123 1.32.378.435.79.823 1.227 1.217.323.29.641.568 1 .83.293.215.604.392.953.575.557.296 1.42.609 2.255.511 1.114-.133 1.667-1.011 2.047-1.916.053-.128.099-.279.14-.424.172-.578.228-1.224.228-2.048-.001-.392-.019-.809-.019-1.246m-4.755 2.849c-.055.062-.07.149-.141.199-.176-.091-.316-.232-.472-.35-.155-.114-.333-.214-.453-.368.102-.101.153-.254.235-.377.16.062.379.249.519.349.179.13.347.24.482.378-.026.084-.117.11-.17.169m-.831-3.651c.134.05.361.228.491.32.765.541 1.505 1.105 2.255 1.661.149.11.303.215.452.33.146.11.319.202.435.348a2.08 2.08 0 0 1-.312.472c-.178-.073-.318-.21-.471-.32-1.059-.768-2.16-1.561-3.199-2.331.123-.154.222-.329.349-.48m-.963.764c-.008-.08.123-.193.18-.171.083.034.175.124.265.188.243.178.531.393.764.567.321.242.666.51 1.029.745.171.111.336.255.509.378.438.31.839.597 1.292.923.158.114.359.207.179.417-.113-.023-.203-.105-.292-.169-.947-.699-1.923-1.395-2.896-2.095-.247-.179-.509-.382-.784-.576-.076-.053-.235-.124-.246-.207m.369.999c-.035-.061-.158-.165-.084-.207.002-.009.035-.031.038-.009.836.596 1.654 1.244 2.481 1.868.151.113.285.227.454.312.013.045.039.083.009.123-.184.034-.347-.117-.547-.199-.471-.19-.829-.529-1.216-.83-.141-.109-.279-.219-.416-.32-.141-.107-.297-.199-.415-.312-.11-.104-.214-.272-.304-.426m-.387 1.312c.072-.014.183.081.264.141.241.182.41.329.669.521.203.146.431.344.689.499.079.048.211.129.217.179.013.111-.195.267-.301.321-.234.121-.669.131-.915 0-.103-.055-.23-.204-.368-.33-.125-.114-.289-.22-.36-.332-.015-.025-.019-.067-.037-.103-.02-.039-.051-.062-.058-.085-.048-.167.01-.391.038-.52.03-.12.028-.265.162-.291M50.48 38.17c-.062.062-.106-.018-.143-.057-.11-.121-.269-.267-.358-.396-.133-.193-.234-.433-.359-.662a12.924 12.924 0 0 1-.925-2.113c-.084-.258-.172-.515-.235-.784-.094-.4-.225-.806-.264-1.254-.039-.444-.104-.958-.094-1.425.012-.642.099-1.271.141-1.887.09-.27.089-.627.198-.877.003-.008.007-.017.019-.02-.001-.007.004-.008.01-.008h.019c.016.214-.025.432-.047.651-.021.211-.052.426-.086.642a9.044 9.044 0 0 0-.094 1.368c0 .473.004.944.058 1.386.051.436.153.837.226 1.227.156.373.255.753.378 1.123.059.18.149.37.227.547.079.183.143.369.225.538.049.098.11.191.161.292.043.086.109.152.151.235.024.05.035.103.056.152.043.096.12.196.18.292.176.288.363.585.546.869.038.043.089.125.01.161m.762-.323c-.045.053-.083.139-.123.179-.042.047-.172.156-.217.161-.101.008-.304-.328-.396-.462a11.265 11.265 0 0 1-.812-1.377c-.051-.104-.115-.189-.159-.273-.255-.479-.472-1.108-.643-1.652-.128-.409-.25-.896-.33-1.387-.027-.162-.072-.326-.084-.48-.03-.37-.02-.781-.02-1.178 0-.396.001-.796.038-1.162.04-.376.059-.744.113-1.085.058-.354.121-.712.227-1.009.165.23.272.487.424.728.099.152.25.297.378.442.379.428.733.921 1.132 1.321l.822.822c.277.277.617.472.924.708-.129.217-.265.49-.339.772-.037.138-.04.548-.153.464-.118-.091-.256-.286-.347-.378-.151-.15-.293-.284-.417-.416-.28-.305-.51-.619-.744-.915-.123-.156-.224-.326-.34-.491-.233-.331-.449-.613-.679-.981-.046-.074-.238-.464-.368-.454-.141.013-.142.568-.142.756 0 .899.091 1.598.227 2.358.041.232.098.466.16.688.062.225.119.45.189.652.149.431.271.858.442 1.244.124.284.28.565.444.83.055.091.091.179.141.275.042.08.138.186.198.273.131.19.244.339.387.547.05.074.176.208.179.283.004.08-.055.131-.112.197m10.341 6.407c-.063-.008-.096-.098-.133-.16-.041-.068-.066-.146-.112-.198-.11-.242-.271-.455-.426-.661a20.809 20.809 0 0 0-.471-.613 5.322 5.322 0 0 0-.812-.811 2.55 2.55 0 0 0-.311-.227c-.119-.069-.258-.118-.386-.188-.616-.334-1.315-.592-2.048-.802-.291-.083-.566-.198-.849-.293-.569-.19-1.109-.397-1.594-.688-.482-.289-.96-.563-1.397-.878-.256-.234-.517-.465-.764-.708-.248-.242-.513-.461-.717-.744-.203-.283-.422-.551-.613-.85a14.646 14.646 0 0 1-.547-.915c-.353-.638-.558-1.381-.773-2.161-.214-.772-.337-1.626-.396-2.528-.003-.015.009-.015.01-.028.007-.001.008.004.008.01.717 1.955 1.661 3.603 2.896 5.019.208.236.406.471.633.688.219.21.456.409.688.623.23.213.503.375.773.547.265.168.533.333.822.5.427.246.852.478 1.349.632.162.051.323.106.49.16.641.208 1.38.36 2.169.462.186.024.372.065.576.086.404.04.775.044 1.254.064.16.009.543-.017.623.067.092 1.47.059 3.086.058 4.595m.169-5.387c.041-1.328.018-2.695.018-4.01 0-1.322.019-2.668.019-3.99 0-.178-.031-.364.048-.519.682-.012 1.284-.111 1.915-.189.089-.011.237-.06.292-.038.158.059.072.608.085.784.021.283.064.542.086.782.046.565.061 1.058.188 1.547.148.565.351 1.091.613 1.558.051.09.122.15.197.235.135.153.252.328.396.462.127.117.295.217.455.32.323.211.693.296 1.197.331.23.015.48.023.708-.02.358-.064.73-.249 1.019-.442.3-.202.609-.386.858-.604.54-.473 1.053-.873 1.52-1.405.17-.196.344-.388.519-.585.059-.07.098-.132.15-.208.043-.064.124-.122.179-.189a32.875 32.875 0 0 0 1.661-2.17c.015-.022.021-.079.066-.075-.354 1.349-1.002 2.496-1.717 3.546-.357.527-.711 1.04-1.123 1.511-.41.468-.822.918-1.283 1.349a8.745 8.745 0 0 1-1.529 1.104c-.831.483-1.808.833-2.868 1.085a9.243 9.243 0 0 1-1.112.197c-.536.062-1.242.074-1.877.105-.179.008-.489.066-.595 0-.108-.068-.092-.258-.085-.472m3.669-6.557c.043.067.317.051.397.095.076.042.161.187.226.273.048.065.185.211.199.273.02.084-.012.186-.01.293 0 .032.02.066.02.094-.003.055-.038.091-.03.151.011.073.146.3.237.32.066.015.134-.015.198-.019.111-.009.222.007.331-.01.115-.018.231-.064.348-.085.269-.048.484-.126.708-.217.059-.024.128-.039.188-.066.099-.044.227-.129.378-.085.103.031.217.148.207.292-.007.114-.171.2-.188.312-.035.247.157.33.217.472.125.021.22.147.35.188.059.019.141.023.217.039.168.035.335.048.537.008.01.035-.039.045-.056.058-.188.132-.382.273-.585.404-.226.146-.437.33-.67.462-.256.146-.585.297-.935.321-.654.045-1.221-.115-1.622-.396-.359-.252-.706-.686-.933-1.085-.105-.183-.182-.412-.274-.632-.272-.648-.285-1.46-.348-2.359a8.78 8.78 0 0 1-.02-1.076c.188.334.471.76.689 1.124.083.137.213.288.235.433a.973.973 0 0 1 0 .188c-.007.089-.042.181-.011.23m3.284.792c.094-.129.286-.239.462-.367.175-.127.361-.308.509-.368.074-.03.097.137.123.189.042.083.106.114.142.179-.113.165-.296.262-.454.377-.156.116-.296.26-.471.35a2.69 2.69 0 0 0-.311-.36m3.001 4.369c-.3.265-.601.54-.905.793a10.51 10.51 0 0 1-2.058 1.339c-.379.188-.77.374-1.178.519-.418.148-.836.292-1.255.444-.412.149-.84.272-1.208.49-.09.054-.192.095-.284.141-.273.14-.541.305-.802.472a4.93 4.93 0 0 0-1.236 1.029c-.18.196-.373.377-.5.631-.093.185-.206.358-.302.546-.026.055-.042.16-.132.151-.059-.037-.047-.13-.047-.217 0-1.314-.022-2.82 0-4.159 1.689-.072 3.232-.17 4.557-.604.637-.208 1.274-.423 1.829-.746.401-.23.796-.497 1.18-.753.133-.089.271-.167.378-.264.224-.206.445-.417.669-.623.441-.408.832-.881 1.218-1.359.575-.711 1.05-1.502 1.527-2.33.157-.273.302-.562.435-.859.203-.457.425-.867.528-1.415.004-.007.01-.015.008-.028.016-.003.017.01.028.01a22.836 22.836 0 0 1-.179 1.698 12.188 12.188 0 0 1-.528 2.302c-.078.227-.188.444-.281.661a7.071 7.071 0 0 1-.671 1.216c-.055.08-.144.139-.207.228-.114.157-.235.328-.378.471-.074.075-.135.153-.206.216M74.8 28l.037-.019h.02c.199.526.286 1.141.368 1.783.062.49.079 1 .056 1.518-.007.175.001.35-.01.52-.022.341-.082.672-.132 1-.05.321-.114.637-.178.943-.126.599-.344 1.167-.558 1.69-.216.53-.444 1.052-.716 1.528-.206.359-.398.719-.642 1.047-.036.047-.084.105-.123.161-.034.046-.067.138-.152.103-.052-.098.073-.22.133-.302.2-.276.386-.573.566-.886.232-.402.471-.83.651-1.292.264-.679.56-1.39.736-2.179.058-.264.125-.542.151-.812.083-.881.229-1.924.104-2.935-.039-.304-.07-.657-.143-.98-.032-.141-.066-.28-.104-.453-.01-.058-.124-.397-.064-.435m-3.5 3.556c.18-.148.36-.289.527-.426.365-.298.655-.634.963-.943.674-.672 1.197-1.417 1.67-2.141.005-.01.007-.025.018-.028.008.001.01.009.02.009.086.447.237.894.311 1.376.149.984.111 2.158.009 3.171-.099.988-.348 1.796-.66 2.575-.152.38-.293.761-.452 1.104a8.607 8.607 0 0 1-1.218 1.887c-.156-.119-.279-.268-.405-.416.562-.652 1.012-1.403 1.387-2.235.035-.078.072-.153.104-.237.031-.078.082-.149.113-.226.054-.131.072-.269.113-.396.079-.246.168-.502.237-.784.032-.137.081-.273.104-.406.111-.616.139-1.24.215-1.906a9.515 9.515 0 0 0 .028-1.528c-.008-.179-.042-.385-.131-.396-.129-.018-.179.202-.227.291-.084.154-.197.316-.302.473-.103.153-.21.308-.321.452-.34.444-.635.903-1.02 1.302-.251.261-.482.546-.754.792-.065.059-.128.133-.189.199-.055.061-.093.172-.197.169-.082-.074-.057-.222-.076-.348a2.179 2.179 0 0 0-.217-.633c-.038-.074-.146-.212-.141-.283.004-.11.396-.392.491-.468m-1.124 1.461c.146-.105.291-.256.452-.33.006-.003.015 0 .02 0 .097-.014.128.067.179.161.084.157.186.271.123.508-.033.118-.09.288-.151.378-.024.034-.065.07-.094.113-.134.195-.453.454-.689.518-.057.018-.127.021-.189.039a.94.94 0 0 1-.848-.179c-.037-.031-.136-.125-.133-.189.004-.069.131-.128.217-.179.235-.141.464-.348.669-.5.163-.12.299-.234.444-.34m.095-1.509c-.008.017-.029.02-.038.038-.052.127-.216.322-.32.415-.12.107-.282.192-.426.293a95.38 95.38 0 0 1-.838.596c-.236.163-.431.33-.707.452-.036.013-.065.001-.086.01-.078.074-.232.081-.376.113-.056.013-.114.061-.15.011-.012-.097.093-.137.15-.181.677-.498 1.376-1.016 2.057-1.528.252-.188.495-.397.745-.556-.002.001.044-.013.038 0 .041-.005.041.034.075.038-.038.099-.072.203-.124.299m.227-1.302c.063.037.176.067.179.143.001.062-.18.153-.255.207-1.241.892-2.456 1.784-3.698 2.67-.086.062-.167.147-.273.16-.134-.109.001-.229.066-.284.176-.145.336-.257.528-.386.437-.294.875-.655 1.311-.962.534-.375 1.056-.764 1.585-1.151.187-.138.369-.277.557-.397m-.85-.576c.086-.054.167.125.227.218.066.101.141.187.179.235-1.184.897-2.396 1.769-3.604 2.641-.096-.089-.196-.245-.302-.376-.033-.042-.096-.086-.094-.123.001-.047.145-.134.207-.18.82-.587 1.682-1.193 2.482-1.774.3-.217.588-.441.905-.641m-.368-.763c.039.056.109.149.104.197-.006.057-.153.143-.217.188-1.143.825-2.375 1.684-3.491 2.492-.214-.255-.361-.562-.546-.84-.187-.281-.356-.57-.538-.85.068-.085.213-.095.311-.151a18.53 18.53 0 0 0 1.991-.669c.319-.127.639-.247.943-.386.152-.071.302-.148.452-.219.206-.093.409-.218.595-.33.111.132.265.378.396.568m5.067-2.885c-.161.262-.4.448-.594.679-.2.221-.405.438-.623.642-.21.327-.432.694-.435 1.198-.043.035-.083-.085-.14-.095-.272-.328-.48-.722-.679-1.123a3.634 3.634 0 0 0-.124-.414c-.002-.112-.016-.21-.028-.312.313-.543.808-.955 1.283-1.358.173-.148.3-.301.508-.406.334-.075.869-.122.991.17.042.399-.03.758-.159 1.019m-6.274-.642c.382-.213.744-.469 1.104-.717a28.904 28.904 0 0 0 2.066-1.576c.398-.254.713-.632 1.292-.679h.01c.614-.028 1.057.335 1.349.708.313.4.663.809.613 1.397-.14.029-.258-.047-.396-.067-.679-.1-1.215.382-1.556.669-.184.144-.351.3-.529.452-.175.151-.333.328-.51.473-.359.294-.726.574-1.104.858-.374.28-.773.531-1.17.792-.392.257-.823.478-1.246.708-.844.462-1.827.78-2.858 1.067-.51.141-1.058.251-1.622.34-1.119.175-2.485.218-3.66.066a14.097 14.097 0 0 1-3.142-.784c-.479-.178-.941-.363-1.358-.595l-.632-.348a15.469 15.469 0 0 1-1.793-1.142c-.188-.143-.385-.271-.566-.416-.537-.43-1.031-.919-1.565-1.367-.353-.284-.846-.759-1.538-.699-.156.014-.271.093-.434.086-.086-.292.072-.598.179-.784.09-.165.181-.327.293-.472.307-.393.736-.87 1.433-.858.366.005.62.167.887.339.187.12.37.261.528.388.346.274.682.557 1.009.81.335.259.695.525 1.057.764.369.242.721.511 1.104.718.778.418 1.601.81 2.5 1.141a9.06 9.06 0 0 0 1.424.396c.506.098 1.039.196 1.604.217.631.024 1.242.028 1.792-.038.544-.063 1.042-.172 1.548-.273.498-.099.959-.258 1.415-.406.449-.145.865-.355 1.264-.555.419-.209.82-.397 1.208-.613m-1.405.047c.058.096.163.146.189.273-.085.132-.25.185-.388.255-.561.282-1.189.489-1.867.688-.165.05-.332.11-.5.143-.352.067-.716.15-1.075.197-.382.05-.788.042-1.188.066a6.152 6.152 0 0 1-.624.009c-.201-.008-.413.004-.612-.009-.193-.013-.393-.06-.585-.085a11.04 11.04 0 0 1-3.53-1.113c.078-.165.212-.355.377-.462.687.164 1.407.324 2.161.444.878.14 1.789.305 2.792.246a20.94 20.94 0 0 0 2.454-.273c.188-.036.378-.075.565-.114a9.87 9.87 0 0 0 1.558-.481c.128-.05.202.137.273.216m-8.454.031c.083-.305.187-.627.289-.925.042-.12.051-.178.089-.229.222.051.537.074.74.104-.007.203-.079.398-.128.602-.047.203-.094.409-.152.601-.211-.046-.608-.096-.838-.153m1.399.242c.035-.282.101-.639.16-.941.019-.089.025-.268.077-.303.179.015.667.062.855.039-.02.415-.097.915-.155 1.322a13.837 13.837 0 0 1-.937-.117m1.43.171c.011-.299.059-.694.094-1.006.011-.103.028-.282.069-.341.213-.008.595.003.825-.02.029.251.054.728.051 1.336a5.065 5.065 0 0 1-.507.034c-.187.004-.381.009-.532-.003m1.484-1.412c.157-.023.577-.045.771-.074.112.416.185.884.253 1.288-.217.03-.671.099-.911.112a1.91 1.91 0 0 1-.039-.28c-.028-.324-.074-.733-.074-1.046m1.285-.131c.155-.023.444-.066.597-.095.153.382.319.802.438 1.218-.155.034-.51.107-.685.131-.055-.037-.072-.138-.09-.217-.076-.321-.23-.707-.26-1.037m1.904-.129c.066.101.121.179.173.26.103.175.264.407.347.569-.166.089-.655.227-.849.282-.066-.102-.141-.328-.231-.512-.092-.185-.187-.478-.261-.661.221-.056.507-.15.621-.192.034-.012.163.199.2.254m-.228-.508c-.565.265-1.337.348-2.084.444-1.822.232-4.069.162-5.642-.255-.005-.066.057-.107.084-.161.087-.163.179-.324.255-.508.099-.243.162-.507.302-.717.862.027 1.805.017 2.631.047.021.07-.014.158.02.226.169.093.397.038.679.048.306.01.586.028.718-.133.029-.047.007-.15.028-.207.417-.028.868-.027 1.302-.048.353-.017.708-.008 1.037-.037.016-.002.021-.012.038-.009.092.012.145.196.188.301.146.353.308.698.444 1.009M62.149 8.918c-.003-.007.003-.008.009-.008.117.031.21.02.303.066.238.117.272.524.113.726-.055.068-.14.099-.218.151-.723.245-.906-.924-.207-.935m-.086.756c.308.056.469-.152.434-.435-.063-.087-.206-.145-.358-.113-.259-.005-.268.467-.076.548m2.577 3.505c.103.043.046.248.103.339.167.038.338.071.528.086.117-.031.08-.215.179-.265.073.058.004.208-.019.302a7.359 7.359 0 0 1-.084.311v.104a.836.836 0 0 0-.066.378c-.019.035-.029.077-.048.113-.054.509-.068 1.075 0 1.555.007.052.062.134 0 .181-.063-.044-.043-.171-.075-.246-.124-.623-.123-1.346.028-1.925-.068-.082-.271-.075-.396-.067-.058.095-.029.213-.029.321.001.172-.061.385-.085.594-.034.302-.043.582-.094.85-.009.054-.008.158-.084.179-.059-.063.009-.143.02-.208.039-.247.041-.548.064-.85.031-.375.077-.728.077-1.114 0-.207-.062-.402-.057-.604.008.001.008-.004.008-.01-.001-.016.009-.026.03-.024m.565.763a.377.377 0 0 0 .066-.169c-.059-.122-.3-.063-.442-.104-.237.216.186.269.376.273m-6.594-.743c.062.012.037.126.019.168-.005.23-.041.458-.028.728.012.271.044.563.065.848.023.296.028.595.066.849.011.072.078.152.02.218-.077-.022-.075-.121-.086-.18-.047-.249-.059-.549-.093-.849-.023-.206-.085-.414-.085-.585 0-.105.026-.221-.019-.321-.109-.03-.323-.018-.396.048.003.156.042.359.095.499.004.412.027.95-.048 1.369-.008.05-.037.1-.047.15-.011.055.012.131-.047.161-.075-.014-.02-.127-.008-.169.049-.372.056-.778.027-1.171-.014-.187-.011-.379-.076-.509a.857.857 0 0 0-.066-.378c.003-.151-.051-.271-.084-.405-.024-.099-.078-.22-.028-.311.111.035.07.226.179.264.195-.007.348-.055.529-.077.071-.08.002-.304.111-.347m-.632.602c.019.057.03.123.066.161.141-.03.425-.006.443-.143.01-.063-.017-.099-.065-.131-.144.043-.397-.025-.444.113m10.406.605c.038.163.088.358.103.509.02.199.017.376.02.538.002.146.068.285.076.453.007.188.01.376.037.585.011.079.042.156.047.235.013.166.007.348-.01.5-.004.044-.054.1 0 .141.058-.03.087-.173.094-.235.023-.196.063-.442.047-.632-.002-.047-.031-.086-.037-.132-.016-.115.016-.234 0-.35-.007-.045-.033-.086-.038-.133-.04-.344-.096-.673-.161-.971a.132.132 0 0 0-.076-.057c.028-.011.035-.041.038-.076-.036-.137.016-.343-.112-.405h-.019c0 .013-.012.015-.009.03m-13.576-.01c-.001.012-.012.013-.01.028a1.666 1.666 0 0 0-.103.358c-.01.052-.023.135.037.151.104-.116.063-.376.132-.527-.011-.011-.033-.011-.056-.01m-.142.575c-.035.089-.064.267-.093.435-.027.148-.076.297-.086.434-.007.115-.028.187-.037.263-.014.113.013.231 0 .34-.007.048-.035.094-.038.142-.013.191.022.436.046.631.01.075.042.196.095.227.066-.063.041-.18.038-.265-.019-.495.027-.999.057-1.415.063-.083.041-.209.047-.368.006-.162.14-.411 0-.452a.053.053 0 0 0-.029.028m9.727 1.387c.038-.082.086-.204.096-.283-.095.019-.143.216-.096.283m-5.641-.255c.011.075.056.246.13.255-.027-.094-.02-.273-.13-.255m5.887.406c-.003-.009.003-.009.008-.009.341-.03.501.12.604.33-.008.126-.002.247-.038.34-.069.179-.316.354-.529.311-.106-.021-.294-.129-.348-.217-.113-.182-.064-.43.037-.623.079-.055.156-.11.266-.132m-.189.567c.058.163.229.257.471.207a.367.367 0 0 0 .198-.462c-.083-.141-.241-.206-.49-.179-.005 0-.012.001-.01.01-.121.076-.188.205-.169.424m-6.066-.547a.608.608 0 0 1 .491.131c.11.199.158.505 0 .671a1.137 1.137 0 0 1-.236.15.564.564 0 0 1-.179.019c-.306-.024-.519-.314-.442-.707a.841.841 0 0 0 .064-.123.519.519 0 0 1 .302-.141m.217.122c-.145-.052-.287.017-.405.084-.066.071-.086.19-.084.33a.461.461 0 0 0 .217.235c.241.051.413-.043.471-.207.015-.212-.052-.389-.199-.442m3.387 4.718c.031.055.007.116.008.188.007.29.13.735-.064.85-.168.005-.43.035-.566-.02-.099-.253-.02-.675-.028-.99.101-.14.509-.101.65-.028m-.086.292c-.038-.081-.18-.055-.273-.039v.669c.083.013.25.031.293-.028.018-.188-.036-.385-.02-.602m4.378-15.489c-.148-.392-.41-.671-.622-1-.157-.143-.294-.303-.444-.452a10.825 10.825 0 0 0-1.132-.784c-.764-.335-1.746-.633-2.887-.565-.721.042-1.364.206-1.934.386-.264.133-.578.276-.839.406-.077.038-.237.069-.217.188.078.087.187-.019.264-.058.274-.135.582-.277.849-.404.714-.249 1.645-.433 2.594-.368.843.057 1.524.285 2.123.547.384.229.739.487 1.085.753.109.104.205.224.312.332.107.107.214.223.312.339.261.313.451.669.613 1.084.084.424.264.864.291 1.323.005.098-.019.186.019.274a3.854 3.854 0 0 0-.01.624c.143-.956-.071-1.942-.377-2.625m-.652 5.067c.066-.149.128-.305.189-.462.118-.306.252-.654.303-1 .028-.199.042-.403.074-.613.031-.194.07-.401.085-.603a4.11 4.11 0 0 0-.131-1.254c-.108-.426-.188-.746-.377-1.076-.103-.178-.192-.362-.302-.518-.234-.333-.486-.655-.783-.86a5.06 5.06 0 0 0-2.33-.953c-.086-.01-.167-.048-.254-.056a3.75 3.75 0 0 0-.662-.008c-.843.069-1.604.16-2.179.471.178.338.397.634.482 1.065.002.132.063.271.056.444.085-.058.198-.052.255-.123.093-.114.063-.32.065-.444.001-.068.025-.133.02-.198a.958.958 0 0 0-.15-.386c-.051-.081-.157-.142-.179-.217-.073-.243.114-.383.368-.368.176.107.312.351.348.604.047.311-.069.604-.094.848.129.013.255-.059.388-.074a1.02 1.02 0 0 0 .282-.633c.022-.244-.083-.386-.123-.546-.034-.144-.011-.269.077-.34.106-.023.229-.03.357-.028.163.078.194.265.181.509-.013.181-.103.356-.135.48-.041.074-.079.15-.123.227-.042.071-.11.148-.104.235.082.086.279.008.388 0 .117-.127.276-.254.312-.529.02-.172-.037-.37-.03-.539.014-.299.218-.447.5-.32.054.062.084.141.123.218-.011.135-.057.259-.094.377-.039.121-.061.25-.113.358-.082.169-.262.273-.302.462.054.066.154.086.273.084.241-.152.386-.387.462-.707.038-.159.042-.317.104-.434.175-.336.686-.124.547.303-.042.128-.156.282-.255.404-.166.209-.343.358-.518.519.096.051.143.167.273.161.106-.004.248-.152.33-.235.099-.101.212-.23.273-.34.126-.224.147-.521.398-.575.176-.04.307.08.33.217.015.089-.039.288-.076.368-.064.141-.299.304-.434.396-.058.039-.102.093-.151.123-.101.058-.257.072-.292.197.024.075.154.168.225.171.14.005.319-.123.455-.207.129-.083.297-.192.377-.293.107-.138.129-.312.282-.378.378-.163.535.319.312.557-.14.071-.231.203-.414.301-.102.055-.215.09-.35.133-.123.039-.314.051-.312.17.003.107.164.145.235.207a1.36 1.36 0 0 0 .831-.311c.12-.096.209-.208.331-.235.33-.076.437.344.235.499-.197.168-.496.265-.812.321-.087.015-.194-.004-.273.047-.051.146.074.261.16.331.168-.01.279.012.396 0 .247-.028.37-.202.547-.274.19-.077.404.003.426.179.019.16-.139.356-.237.406-.104.054-.21.058-.33.067-.196.011-.378.084-.557-.011.013.126.068.21.113.302.354.142.615-.12.86-.133.153-.007.268.062.282.179.054.427-.594.369-.953.293-.176.251.063.367.301.386.195.017.37-.066.511-.046.348.049.203.487-.077.529-.271.039-.499-.134-.651-.189.017.093-.001.223.038.292.236.187.854-.104.84.293-.005.169-.161.227-.292.292-.104-.017-.19-.004-.275-.028-.099-.028-.181-.11-.282-.094-.034.032-.048.059-.048.094.003.232.407.152.595.227.188.074.252.353.038.416-.291.085-.477-.142-.671-.188-.061.076-.028.194-.028.301 0 .333.056.523.133.774l.066.207c.023.072.017.164.084.199.14-.087.174-.27.237-.417m-6.038-5.688c-.055-.462-.31-.819-.508-1.16-.043-.072-.062-.154-.151-.181a.375.375 0 0 0-.358.171c.399.255.755.643.848 1.198.055.096.031.271.141.312.054-.073.041-.242.028-.34m4.549 5.651c.173.147.292.226.519.33.086.041.307.129.367.066.065-.065-.034-.202-.056-.292-.042-.17-.1-.374-.113-.51-.034-.331.013-.663.028-.99.015-.328.028-.632-.019-.963a4.18 4.18 0 0 0-.527-1.557 5.356 5.356 0 0 0-.746-.905c-.331-.251-.705-.484-1.161-.623-.149-.045-.32-.1-.48-.113-.586-.047-1.195-.001-1.604.179-.211.094-.433.174-.604.284-.215.138-.368.353-.548.48-.233.326-.499.621-.632 1.047.066.185.196.308.301.453.122.077.234.163.35.245.659.282 1.345.537 2.189.632.191-.21.422-.401.782-.416.279-.01.57.146.689.36.141.25.175.575.075.915.317.511.738.993 1.19 1.378m-2.887-2.01c-.058-.034-.185-.025-.284-.047-.471-.107-.902-.202-1.292-.387-.167-.079-.335-.125-.481-.198-.067-.033-.136-.095-.207-.141-.27-.177-.507-.383-.66-.661-.01 0-.011-.007-.02-.01a.063.063 0 0 0-.028.02c-.106.248-.284.503-.358.802-.028.114-.109.622-.047.735.05.092.274.12.425.142.721.103 1.432.231 2.254.16.284-.024.563-.035.755-.143.025-.115.009-.234-.057-.272m1.557-.086c-.093-.252-.353-.41-.726-.367a.655.655 0 0 0-.566.603c-.004.098-.001.265.056.378.021.041.077.067.123.114.104.104.193.192.35.226a.705.705 0 0 0 .763-.954m-1.482.68c-.464.032-.927.044-1.387.048-.691.004-1.352-.104-1.962-.208a.072.072 0 0 0-.028.02c-.076.057-.106.246-.16.358-.062.129-.113.253-.161.359-.109.247-.256.483-.264.744.304.089.61.036.915.02.209-.011.408-.004.604-.028.188-.024.374-.067.557-.104.269-.053.537-.129.765-.217.084-.032.176-.045.254-.077.096-.036.188-.095.283-.14.296-.138.588-.288.774-.519-.061-.088-.103-.196-.19-.256m14.246.365c-.298.132-.585.31-.888.462-.604.304-1.26.526-1.829.866-.569.341-1.145.651-1.708.991-.557.336-1.056.735-1.585 1.113-.126.092-.25.175-.367.302-.09.098-.289.286-.303.377-.012.092.038.243.058.358.058.354.135.741.187 1.057.725-.844 1.483-1.621 2.227-2.434.173-.188.407-.36.623-.537a17.937 17.937 0 0 1 1.679-1.236c.231-.148.438-.296.679-.424.114-.062.211-.141.322-.208.417-.255.839-.517 1.282-.736.047-.022.159-.043.143-.131h-.02c-.129.066-.338.107-.5.18m-2.198 4.066c.418-.289.829-.581 1.16-.944.245-.218.462-.471.679-.726.102-.12.219-.253.302-.396.089-.149.197-.281.283-.424.087-.146.138-.317.227-.462.248-.409.454-.839.698-1.246h-.019c-.424.219-.854.397-1.217.669-.309.232-.64.456-.961.651-.052.031-.107.045-.161.077-.052.029-.093.086-.142.123-.16.118-.339.192-.491.312-.173.442-.299.902-.481 1.329a2.6 2.6 0 0 0-.151.454c-.171.329-.375.675-.51 1.009.317-.096.547-.262.784-.426m-19.113.471c.017-.107.072-.272.057-.358-.016-.085-.215-.272-.302-.368-.118-.127-.245-.215-.368-.302-.537-.383-1.034-.779-1.585-1.113-.563-.341-1.143-.654-1.698-.99-.287-.173-.599-.305-.905-.445-.313-.14-.624-.274-.924-.424-.461-.227-.899-.488-1.406-.642-.009 0-.012.008-.019.011v.028c.227.161.501.245.726.406.114.082.23.146.35.217.12.069.25.132.368.207.114.072.215.162.34.225.124.064.253.127.358.209.217.166.449.305.671.462.221.16.44.313.66.472.22.16.43.326.641.499.418.344.795.712 1.151 1.113.354.401.745.767 1.094 1.18.166.158.306.342.462.509.013.041.048.059.067.094.022.012.053.106.075.057.058-.32.128-.691.187-1.047m-7.586-4.273c.057.1.097.209.151.312.056.107.138.199.189.312.054.12.117.213.179.32.083.144.134.304.217.444.084.143.196.268.284.416.084.145.197.273.301.396.219.256.43.514.669.735.229.237.487.448.756.651.366.274.733.559 1.206.715-.161-.351-.347-.678-.519-1.019-.207-.594-.423-1.179-.631-1.773-.266-.165-.524-.351-.784-.508a11.506 11.506 0 0 1-.971-.662c-.362-.271-.796-.429-1.208-.659h-.019c-.006 0-.011.001-.01.008.06.102.129.205.19.312m16.198-.062c.075.117.137.225.188.301.151.176.278.376.462.519.321.335.729.584 1.18.792.078.007.173.039.264.058.087.017.207.063.255-.02-.037-.073-.131-.081-.199-.103-.215-.076-.466-.153-.651-.265-.079-.047-.156-.115-.235-.168-.575-.392-.967-.946-1.369-1.501h-.018c-.154.092.046.267.123.387m-1.189-.124c-.211.129-.405.284-.631.406-.912.495-2.22.782-3.622.688-.087-.005-.231-.061-.255.076.409.12.884.074 1.311.039.225-.02.445-.022.651-.066l.585-.132c.786-.176 1.446-.492 1.953-.915.032-.016.09-.085.019-.095h-.011zm.517 2.022a61.602 61.602 0 0 0-.045-1.512c-.003-.079.03-.194-.056-.246-.107-.014-.117.058-.169.095-.207.145-.5.226-.661.396.019.42.027.853.029 1.291v.222c.008.916 0 1.852.055 2.73.22.072.644.09.858 0 .07-.168.028-.356.028-.539 0-.188-.004-.382-.008-.575-.012-.542-.021-1.091-.031-1.639v-.223zm13.663-.082c-.33.385-.67.771-1 1.152-.109.127-.218.276-.338.386-.192.175-.412.316-.615.482a6.777 6.777 0 0 1-.632.471c-.136.303-.296.585-.434.887-.029.025-.062.045-.084.076-.294.561-.63 1.08-.944 1.622.141-.035.224-.128.321-.208.193-.074.37-.192.547-.301.179-.11.371-.195.538-.312.334-.235.693-.445.972-.726.118-.12.232-.277.349-.416.117-.14.255-.282.35-.425.134-.206.245-.445.368-.669.123-.225.248-.445.358-.679.222-.471.413-.974.547-1.509-.154.004-.193.123-.303.169m-25.416 3.53c-.02-.037-.066-.048-.084-.086-.144-.293-.296-.578-.435-.877a6.905 6.905 0 0 1-.631-.472c-.203-.167-.433-.31-.624-.491-.117-.111-.221-.25-.33-.377-.336-.388-.674-.767-1-1.15-.107-.048-.149-.159-.292-.171a.027.027 0 0 0-.02.028c.097.266.171.521.255.774.167.503.417.959.661 1.396.121.219.233.454.368.66.093.144.234.276.348.416.119.143.23.303.35.424.146.149.344.288.529.425.088.066.184.131.282.188.103.061.189.144.283.199.158.09.323.169.482.264.157.094.31.211.49.264.082.082.189.188.312.199-.32-.534-.648-1.058-.944-1.613m21.633-.927c.26-.362.565-.708.745-1.168.09-.234.158-.482.235-.727.077-.241.196-.462.255-.708-.019-.014-.032-.025-.048 0-.506.378-.995.773-1.5 1.152-.153.217-.251.475-.396.688-.066.097-.162.196-.198.293-.021.058-.019.123-.039.179-.021.068-.065.131-.093.199-.033.073-.04.152-.066.226-.021.055-.074.098-.094.151-.017.041-.014.091-.028.132-.079.211-.196.406-.265.624a5.264 5.264 0 0 0 1.492-1.041m-19.85.199c-.015-.161-.116-.285-.16-.424-.019-.058-.015-.123-.038-.18-.038-.096-.135-.19-.199-.283-.151-.223-.242-.472-.396-.689-.512-.381-1.001-.785-1.519-1.16-.002-.012-.011-.006-.02 0 0 .01-.007.011-.01.018a2.1 2.1 0 0 0 .123.36c.145.335.239.734.368 1.065.182.467.495.82.745 1.17.389.398.888.732 1.397 1.001.025.012.063.039.094.028-.137-.291-.234-.625-.385-.906m12.17-2.217c.133.583.067 1.363.094 1.982-.096.541-.141 1.068-.292 1.548-.027.084-.07.167-.094.253-.083.289-.187.517-.283.764.142.126.296.233.444.35.148.119.294.244.462.34.173-.096.308-.232.461-.35.076-.055.14-.108.227-.179.066-.052.194-.119.207-.207.023-.149-.117-.339-.16-.511-.091-.362-.132-.809-.18-1.188a6.726 6.726 0 0 1 .577-2.66c-.481-.061-.95-.132-1.453-.171-.011-.002-.033.027-.01.029m-7.019.161c.148.345.302.768.406 1.188-.004.164.082.325.104.51.036.309.036.646.065.971-.005.237-.075.452-.094.671-.004.046.006.093 0 .141-.042.318-.206.591-.247.896.281.261.58.503.906.717.235-.146.443-.355.67-.52.071-.051.217-.109.226-.179.008-.051-.062-.175-.094-.246a3.014 3.014 0 0 1-.188-.508c-.027-.093-.071-.183-.094-.255-.155-.487-.202-1.044-.292-1.556.029-.62-.045-1.42.103-1.992-.496.011-.986.108-1.471.162m3.426 2.764c.046.019.081.052.123.066.128.044.303.079.452.095.418.043.78.052 1.133-.067.202-.067.359-.194.509-.32.187-.158.276-.261.377-.492.1-.229.243-.54.217-.858-.027-.326-.195-.619-.35-.83-.126-.173-.338-.39-.594-.358-.055.09.114.101.142.169.086.034.13.108.198.16.064.141.165.213.227.34.182.372.148.82 0 1.131-.113.237-.371.542-.633.633-.795.277-1.807.131-2.273-.396-.092-.173-.244-.394-.264-.651a1.46 1.46 0 0 1 .273-.981c.117-.147.371-.207.396-.416-.359.018-.55.204-.745.388-.195.283-.323.89-.208 1.329.037.137.151.385.217.491.119.19.339.291.481.444.098.06.204.077.322.123m-1.784-2.575c.001.075-.045.12-.057.189-.024.14.007.316 0 .48-.008.164-.02.331-.009.472.044.611.117 1.165.245 1.679.068.272.137.53.199.774.106.206.229.4.264.68-.07.097-.203.129-.284.217-.099.071-.195.145-.292.217-.098.07-.187.145-.283.217-.092.069-.179.177-.321.188-.134-.034-.181-.153-.292-.207-.21-.156-.426-.329-.641-.492-.058-.042-.189-.114-.199-.179-.007-.052.043-.137.066-.197.075-.201.13-.416.197-.605a9.13 9.13 0 0 0 .104-1.331c-.006-.647-.194-1.25-.358-1.745-.021-.063-.046-.168-.132-.168-.013.204.071.412.094.641a8.293 8.293 0 0 1-.171 2.557 9.66 9.66 0 0 1-.151.603c-.051.183-.162.402-.187.575-.037.248.094.421.168.615.191.483.343.896.557 1.338.196.406.407.859.661 1.236.065.098.21.296.311.321.167.04.405 0 .614 0 .61 0 1.233.024 1.819 0 .065-.071.03-.15.114-.198.13-.077.374.009.529-.057.034-1.427.027-2.891.047-4.332-.136-.083-.278-.227-.179-.414.015-.03.063-.063.038-.094-.295-.062-.596-.119-.858-.227-.242-.099-.531-.284-.681-.463-.18-.217-.372-.586-.405-.942a2.265 2.265 0 0 1 .358-1.387c.026-.035.089-.078.066-.133a7.92 7.92 0 0 0-.951.172m4.491-.057c.006.062.113.127.161.207.032.054.059.138.095.207.037.074.084.144.094.208.016.103 0 .226 0 .339 0 .117.013.246 0 .35-.019.141-.088.284-.114.425-.008.047.001.099-.008.142-.026.109-.099.196-.105.292-.328.512-.865.815-1.622.896a.443.443 0 0 1-.01.283c-.035.096-.133.151-.15.217-.035.133-.004.374-.01.537-.038 1.095.008 2.205-.028 3.256-.005.169-.028.356.057.499.108.027.278-.007.387.02.079.046.065.186.151.225.8.016 1.513-.052 2.302-.057.241-.18.383-.455.538-.715.322-.544.522-1.109.811-1.699.063-.129.148-.271.208-.416.084-.202.165-.38.159-.623a8.209 8.209 0 0 1-.339-1.17c-.092-.413-.182-.864-.197-1.32a9.192 9.192 0 0 1 .028-1.245c.024-.227.108-.431.094-.633-.086 0-.111.108-.133.17-.076.23-.149.455-.207.698a4.63 4.63 0 0 0-.151 1.057c-.001.448.045.9.103 1.321.085.274.182.535.265.812-.161.176-.382.29-.557.453a1.705 1.705 0 0 0-.284.217c-.129.039-.153.185-.311.198-.129-.023-.212-.121-.302-.188-.093-.07-.177-.149-.283-.208-.083-.074-.168-.136-.274-.217-.073-.055-.246-.136-.273-.217-.038-.114.032-.269.075-.376.047-.12.116-.21.161-.312.15-.57.316-1.164.377-1.811.04-.412.063-.768.057-1.227-.003-.187.032-.388-.066-.509a12.297 12.297 0 0 1-.67-.114.045.045 0 0 0-.029.028m2.812.359c-.099.018-.11.203-.133.339-.126.754-.063 1.556.077 2.388.052.318.135.553.207.867.03.128.076.269.123.416.054.171.123.434.284.292.023-.096-.044-.162-.077-.245-.118-.305-.193-.679-.255-1.056-.156-.961-.124-1.979-.036-2.925-.043-.041-.119-.089-.19-.076m-9.632 3.018c-.065.396-.144.781-.255 1.066-.02.049-.168.271 0 .283.134.01.194-.287.226-.386.05-.158.101-.316.124-.49a7.628 7.628 0 0 0 .32-1.841 7.607 7.607 0 0 0 0-.943c-.009-.101-.043-.235-.067-.378-.021-.136-.023-.297-.141-.312-.052-.005-.151.035-.17.086.092.907.111 2.01-.037 2.915m10.952-2.66c-.18-.092-.479-.104-.689-.179-.048-.017-.078-.049-.123-.056-.038-.006-.102.041-.133.046-.052.23-.087.585-.028.812.32.021.689.041 1.011.028.13-.133.138-.389.217-.575-.058-.054-.152-.069-.255-.076m-11.264-.218c-.033.01-.045.039-.077.048-.238.063-.493.11-.717.188-.097.009-.191.023-.245.075.079.186.086.444.217.577.321.011.691-.009 1.01-.028.059-.229.024-.583-.03-.812a.432.432 0 0 0-.158-.048m11.575.322c.003.258-.034.579-.056.831-.008.087.005.179 0 .263-.021.28-.03.562 0 .84.061.581.164 1.122.34 1.585.055.146.082.34.244.386.029-.004.054.008.086 0 .123-.023.214-.35.264-.509.001-.004.009-.011.009-.009.082-.37.055-.688.039-1.076-.032-.688-.199-1.337-.302-1.849-.082-.132-.1-.304-.227-.388-.102-.064-.231-.063-.378-.103-.012.005-.02.013-.019.029m-13.066.084c-.072.045-.165.234-.217.359-.061.146-.085.314-.123.453a5.21 5.21 0 0 0-.104.472 7.515 7.515 0 0 0-.123 1.027c-.008.188-.038.374-.029.538.008.14.037.412.076.547.052.176.154.478.273.5.2.037.277-.217.35-.406.18-.478.294-1.067.348-1.632.034-.348.018-.555 0-.84-.006-.093.011-.19 0-.292-.024-.227-.05-.498-.065-.708-.003-.032.037-.114-.03-.114-.055.022-.312.069-.356.096m15.813.567c-.104.101-.222.18-.332.274-.116.101-.186.238-.283.367-.277.375-.632.706-.877 1.085.034.109-.022.251.01.358.216.018.324-.103.462-.208.218-.166.399-.331.537-.546.149-.267.282-.524.416-.812.071-.152.146-.312.189-.48-.017-.035-.083-.085-.122-.038m-4.039.056c.01.188-.005.402.028.567.171.046.449.032.642.028.086.028.258.032.321-.02.027-.144.047-.389.008-.537-.297-.048-.648-.044-.971-.066-.013.006-.024.014-.028.028m-11.085.056c-.044.148-.009.371 0 .528.08.085.219.033.339.028.207-.007.451.028.631-.028a2.77 2.77 0 0 0 .02-.585c-.313 0-.688.017-.99.057m-2.454.605c-.101-.137-.185-.275-.292-.368-.046-.041-.125-.083-.188-.142-.075-.068-.131-.161-.199-.151-.132.019-.03.2.02.312.163.376.321.723.518 1.037.151.243.313.382.528.547.144.112.275.229.471.208.033-.107-.023-.249.011-.359-.226-.34-.609-.738-.869-1.084m19.455-.275c-.129.057-.262.151-.406.217-.048.023-.107.026-.151.048-.128.063-.262.168-.406.255-.292.173-.509.345-.792.528-.143.091-.342.175-.406.264-.03.04-.048.095-.076.141-.188.317-.406.621-.575.944-.202.193-.374.465-.539.688-.048.064-.117.129-.113.188.269-.066.521-.151.792-.217.318-.175.688-.299 1.019-.462.148-.165.38-.252.519-.424.047-.058.066-.13.133-.169.058-.185.2-.321.293-.482.096-.168.184-.33.291-.49.103-.154.213-.314.302-.481.09-.167.195-.333.265-.52-.026-.047-.112-.043-.15-.028m-22.096.086c-.014.101.058.187.104.264.152.253.286.505.442.746.208.319.413.641.595.98.066.042.086.113.132.171.14.17.371.259.519.424.351.137.678.326 1.038.462.245.093.513.134.783.218-.191-.291-.416-.631-.669-.889-.17-.334-.385-.627-.566-.933-.027-.045-.047-.102-.076-.143-.065-.088-.278-.189-.396-.263-.292-.186-.508-.359-.792-.529-.143-.086-.282-.188-.416-.255-.05-.024-.109-.031-.16-.056-.151-.072-.29-.178-.444-.217h-.057c-.018.001-.011.028-.037.02m20.831 3.802a10.125 10.125 0 0 0 2.623-1.576c.235-.321.483-.629.735-.943.251-.313.42-.694.613-1.075-.003-.008-.008-.012-.02-.01-.09.054-.219.059-.32.114-.105.056-.214.186-.321.282-.108.098-.214.206-.32.293-.224.185-.439.409-.661.557-.297.197-.619.324-.906.529-.141.101-.306.163-.452.263-.144.099-.255.224-.406.322a.321.321 0 0 1-.095.112c-.014.043-.041.072-.046.124-.183.228-.335.488-.491.745-.07.081-.186.167-.217.255.08.016.19.005.284.008m-23.387-3.5c.175.382.377.736.604 1.065.25.306.502.61.736.935a10.169 10.169 0 0 0 2.622 1.576c.094-.004.204.008.283-.01-.029-.093-.155-.172-.217-.264-.165-.249-.309-.521-.499-.745.01-.062-.034-.067-.038-.113a.309.309 0 0 1-.094-.114c-.19-.132-.354-.306-.567-.424-.109-.062-.206-.116-.311-.189-.094-.067-.208-.129-.312-.188-.211-.12-.457-.207-.642-.358-.186-.154-.353-.311-.537-.462-.123-.093-.231-.202-.35-.312-.112-.103-.224-.242-.358-.311-.097-.049-.213-.068-.33-.113.002.01-.002.026.01.027m18.793.038c-.07.175-.087.566.075.651.237.009.49-.001.709.009.074.004.151.032.207-.019.008-.094-.02-.219-.028-.34-.01-.12.005-.255-.066-.321-.297.026-.62-.014-.897.02m-11.113.028c-.015.001-.016.016-.028.019 0 .215-.048.43-.048.613.059.052.141.022.217.02.225-.01.479-.001.699-.01.163-.083.144-.476.075-.651-.274-.034-.597.005-.887-.019a.038.038 0 0 0-.028.028m6.159 1.037c.052-.044.099-.096.095-.197-.184-.264-.469.212-.095.197m6.067.048c-.017-.075-.071-.306-.188-.265-.235.083-.577-.052-.85.028.015.234.04.54.227.633.278-.024.601-.005.869-.039.004-.116-.03-.221-.058-.357m-12.283-.245c-.012.004-.023.01-.028.018-.117.135-.15.403-.17.604.268.034.589.014.868.038.188-.091.212-.397.227-.631-.271-.059-.628.027-.897-.029m14.123.434c-.081.047-.203.11-.312.188-.14.101-.3.203-.292.416-.034.116-.119.227-.104.358.081.003.152-.058.197-.113.098-.116.203-.28.275-.405.083-.147.221-.267.253-.435-.008 0-.01-.008-.017-.009m-15.538.67c-.009-.042.003-.083-.01-.123-.059-.193-.458-.373-.595-.472-.009 0-.012.007-.019.01.021.138.178.31.255.442.041.072.092.125.141.189.103.137.155.31.33.322.017-.143-.08-.246-.102-.368m12.943-.227c.012.256.137.397.217.584.188-.002.397.003.576 0 .079-.001.213.015.254-.056-.007-.101-.07-.202-.113-.302-.043-.102-.076-.216-.161-.273-.253.044-.58-.063-.773.047m-11.679-.028c-.014.004-.024.014-.039.018-.074.082-.105.203-.15.312-.045.109-.129.203-.132.311.061.057.183.047.273.048.169.001.356-.003.538 0 .131-.175.246-.365.274-.643-.194-.11-.528-.001-.764-.046m18.717.518c-.421.148-.692.447-1.057.662-.34.199-.708.354-1.057.546a8.525 8.525 0 0 1-1.093.509c-.093.126-.168.273-.265.396-.102.317-.285.566-.453.803-.028.041-.079.07-.076.122.252.025.487-.113.745-.141a8.65 8.65 0 0 0 1.936-1.208c.093-.079.179-.172.273-.255.091-.082.199-.158.284-.244.165-.175.303-.385.452-.577.153-.195.298-.396.434-.603-.041-.03-.096-.019-.123-.01m-2.991.105a.448.448 0 0 1-.123.084c-.267.121-.573.232-.869.35-.146.056-.3.106-.452.159-.152.053-.294.131-.444.171-.185.049-.372.077-.547.16-.086.104-.323.346-.094.453-.052.445-.331.662-.491 1 .256.03.402-.084.595-.161.128-.051.256-.104.375-.16.254-.119.523-.21.736-.34.181-.11.323-.275.491-.368.202-.215.414-.417.605-.642.094-.115.187-.227.273-.35.083-.12.203-.229.245-.386-.079-.091-.199.023-.3.03m-20.453.905c-.181-.089-.37-.172-.539-.274-.276-.166-.51-.39-.772-.546-.107-.064-.303-.144-.396-.104.203.314.435.609.66.886.078.096.144.207.227.293.166.175.368.332.557.491a8.262 8.262 0 0 0 1.933 1.216c.258.029.494.168.746.143.004-.054-.049-.086-.076-.123-.176-.247-.353-.492-.452-.802-.098-.124-.171-.269-.265-.396-.564-.198-1.105-.528-1.623-.784m1.113-.867c.009.156.144.258.226.376.261.376.581.691.888 1.009.168.094.311.26.491.368.213.131.482.221.736.341.12.057.249.107.378.16.193.077.35.193.593.16-.159-.339-.443-.557-.49-1.009.043-.027.104-.035.104-.104-.017-.162-.126-.23-.199-.339-.176-.087-.368-.109-.557-.161-.143-.038-.283-.118-.434-.168-.312-.107-.601-.227-.887-.34-.205-.081-.417-.141-.557-.255-.096-.01-.144-.069-.253-.066-.02.001-.019.024-.039.028m14.944.263c-.077.219-.2.392-.247.641-.069.062-.11.162-.151.255a.481.481 0 0 0-.047.161 8.183 8.183 0 0 0 1.18-.312c.129-.046.265-.077.376-.132.193-.094.339-.241.521-.322.069-.118.255-.17.273-.31-.633.008-1.272.011-1.905.019m-12.17.066c.499.639 1.443.884 2.368 1.066-.051-.123-.11-.317-.207-.424-.052-.241-.169-.417-.246-.633-.633-.001-1.296-.024-1.915-.009m13.226.803c-.425.259-.992.377-1.546.508-.048.007-.074-.008-.114-.01-.089.188-.163.385-.246.576-.081.189-.208.355-.264.537.065.105.219.005.34.02.63-.237 1.248-.488 1.689-.915.109-.152.242-.281.348-.436a.753.753 0 0 0 .17-.215c.048-.081.13-.154.133-.247-.185.01-.326.139-.51.182m-10.84.585c-.381-.099-.713-.168-1.056-.293-.321-.117-.628-.298-.953-.406-.014.005-.024.014-.038.019.165.35.441.59.659.887.441.427 1.059.678 1.688.915.122-.017.289.093.34-.028a15.176 15.176 0 0 1-.508-1.104c-.043.004-.08.014-.132.01m13.454-.19c-.225.137-.392.328-.615.452-.136.078-.297.136-.452.208-.155.073-.301.153-.462.208-.219.074-.499.184-.745.245-.092.023-.199.038-.264.075-.055.031-.104.103-.16.16-.156.155-.308.376-.473.5-.199.151-.379.226-.575.368.208.195.67.099.981.066.275-.029.495-.103.718-.17.12-.037.249-.063.339-.103.091-.042.182-.124.274-.181.098-.061.211-.101.301-.159.138-.089.259-.229.396-.34.27-.218.481-.523.662-.811.096-.154.208-.312.225-.491-.012-.047-.103-.044-.15-.027m-14.746 1.594c-.103-.104-.2-.266-.32-.33-.134-.07-.334-.091-.51-.151l-.499-.17c-.157-.054-.303-.136-.454-.207-.16-.076-.33-.131-.461-.208-.101-.058-.203-.155-.312-.236-.14-.104-.273-.265-.434-.208-.045.093.04.181.076.255.041.081.085.161.132.235.189.296.395.61.66.83.14.116.269.251.406.339.089.058.199.102.292.161.095.059.189.138.283.179.091.042.22.067.34.104.23.069.451.141.717.169.323.036.787.128.981-.066-.199-.118-.379-.256-.585-.367a9.333 9.333 0 0 0-.312-.329m12.509-1.509c-.121.078-.212.213-.311.312-.632.631-1.473.94-2.473 1.216-.039.075-.094.131-.123.217.205.012.271.158.312.332.101.042.215.09.331.084.116-.006.222-.083.33-.143.114-.062.224-.102.32-.151.121-.061.243-.167.359-.263.116-.097.244-.178.348-.274.099-.09.188-.224.284-.339.133-.16.271-.274.34-.444.069-.068.126-.158.179-.246.052-.083.143-.175.123-.292-.008.001-.012-.008-.019-.009m-10.339 1.604c-.565-.159-1.1-.322-1.565-.576-.231-.126-.467-.251-.662-.406-.199-.159-.339-.373-.537-.538-.012 0-.015-.012-.029-.008-.055.093.068.222.124.311.062.101.116.183.169.246.064.139.188.259.301.396.102.123.203.268.321.376.105.097.234.179.349.275.118.097.238.203.359.264.098.049.206.088.32.15.113.062.22.139.34.141.113.003.222-.043.321-.084.041-.172.108-.319.311-.33-.026-.086-.082-.144-.122-.217m4.019.112c-.234.012-.494-.017-.679.039-.025.336-.007.747.009 1.104.006.117-.008.25.047.34.296.035.689.011.982-.019.019-.022.034-.047.056-.066-.004-.435-.007-.949-.056-1.369-.097-.055-.23-.034-.359-.029m3.085.21c-.789.021-1.7.001-2.519.056-.027.101-.015.251-.01.387.007.135 0 .283.076.349.828-.015 1.719-.048 2.575-.066.141-.114.178-.496.084-.698-.057-.048-.138-.032-.206-.028m-6.897.151c-.098.125-.13.476-.046.641.227.044.472.039.716.039.755 0 1.522.028 2.265.028.075-.179.072-.53.047-.746a43.727 43.727 0 0 0-2.982.038M54.334 9.311c.072-.055.206-.119.203-.186-.001-.051-.086-.135-.129-.094-.43.335-.878.652-1.307.988-.131.126-.186.045-.248.229.029.044.063.083.12.094.51-.32.866-.657 1.361-1.031m.078.281c-.422.33-.858.656-1.27.975-.082.063-.058.032-.102.129.217.515.56.971 1.081 1.167.455-.31.773-.558 1.209-.874.148-.108.32-.192.438-.336-.172-.581-.484-.999-.78-1.436l-.018.001a3.485 3.485 0 0 0-.558.374m1.571 1.23c-.568.37-1.205.79-1.745 1.243-.066.055-.146.096-.156.146-.025.127.05.198.131.228.367-.251.627-.48.972-.749.173-.124.362-.253.548-.382.172-.118.393-.175.416-.423-.034-.045-.077-.08-.166-.063m.188.51c-.63.376-1.104.733-1.643 1.187.232.357.51.662.73 1.034.158-.137.312-.096.537-.176.473-.17.962-.328 1.368-.547-.334-.496-.647-1.016-.992-1.498m4.93 1.177.003-.044v-.223c.022-.385-.005-.792-.003-1.181-.087-.002-.157.063-.235.095-.241.091-.5.182-.754.263-.347.062-.722.196-1.104.255-.354.055-.74.06-1.095.074a2.504 2.504 0 0 1-.529-.036c-.162-.027-.333-.034-.472-.104-.063-.26.119-.483.218-.708.193-.433.418-.896.594-1.331a.63.63 0 0 1-.141-.245c-.008-.508.084-.936.273-1.311.054-.107.102-.225.169-.359.082-.163.16-.461.406-.274.172-.355.371-.67.633-.943.084-.089.188-.158.254-.265a2.24 2.24 0 0 0-.264-.961 1.31 1.31 0 0 0-.255-.36c-.076-.076-.235-.23-.358-.245-.087-.01-.183.051-.284.02-.101-.033-.202-.169-.179-.293.013-.068.18-.156.255-.208.273-.193.596-.32.923-.453.459-.186.96-.323 1.454-.388.601-.078 1.177-.052 1.736-.008.257.019.521.1.764.16.252.061.486.146.689.226 1.278.5 2.261 1.426 2.746 2.773.164.456.306.955.348 1.482.077.941-.146 1.709-.368 2.423-.157.312-.287.638-.452.943a5.457 5.457 0 0 1-.537.816c-.135.175-.919.007-.919.007-.227-.052-.527-.121-.796-.301-.268-.182-.866-.748-1.275-1.286-.003-.011-.012-.005-.02 0-.005.001-.011.001-.008.01-.007.26 0 .593 0 .906 0 .317.011.782.015.88.004.097-.004.251.101.266.501.091 1.022.042 1.486.17.09-.148.156-.372.398-.311 0 0 .593.073.82.094.199.019.479.074.717.137 0 0 .107-.154.123-.199.016-.047.42-.617.609-.906.094-.143.193-.274.235-.41.028-.089-.003-.197.019-.284a.38.38 0 0 1 .165-.195c.065-.034.184-.021.221-.072.031-.039.043-.153.072-.231.087-.238.19-.434.306-.623.062-.103.162-.227.249-.353.086-.124.144-.317.251-.362.056-.024.182.003.257-.021.147-.044.171-.298.331-.308.113-.008.217.112.292.17.1.075.193.133.272.188.472.331.722.535 1.167.884.089.069.242.135.25.214.006.061-.067.199-.091.241-.058.099-.172.137-.194.223-.016.064.004.141-.013.207-.058.226-.244.5-.384.666a1.78 1.78 0 0 1-.271.246c-.102.081-.192.182-.281.237-.082.052-.21.066-.227.137-.017.078.066.155.05.249-.032.189-.273.222-.39.334-.134.126-.229.336-.346.507-.118.172-.239.304-.347.474.24.184.443.107.553.013l-.001-.001c.885-.791 1.963-1.421 3.019-2.057.356-.214.722-.415 1.104-.584 1.154-.515 2.31-1.062 3.48-1.584.196-.087.402-.156.585-.265l.265-.16c.082-.05.175-.131.282-.114-.03.149-.169.213-.254.312a1.427 1.427 0 0 0-.217.35c-.116.245-.264.485-.388.736-.247.5-.525.993-.772 1.481.079-.019.161-.062.246-.104.076-.039.152-.127.253-.094.051.149-.041.295-.084.425-.133.405-.235.834-.387 1.225a6.223 6.223 0 0 1-.349.727c-.129.238-.248.482-.377.698-.055.093-.155.159-.169.273.109.096.208-.025.292-.075.096-.057.191-.126.311-.104.034.134-.031.274-.084.388-.161.332-.331.691-.519 1.009-.251.424-.597.787-.84 1.198.069.071.216.015.255.104.04.092-.094.255-.161.359-.083.126-.144.232-.208.33-.148.229-.323.417-.472.604a4.45 4.45 0 0 1-.508.566c-.189.167-.385.321-.586.481-.101.081-.192.167-.301.235a8.49 8.49 0 0 1-1.056.557 4.764 4.764 0 0 1-1.247.368c-.158.023-.367.027-.508.084-.12.049-.22.155-.331.227a3.343 3.343 0 0 1-1.17.481c-.301.058-.633.129-.991.113-.336-.016-.604-.13-.953-.142-.176-.006-.348.158-.565.123-.049.015-.062.091-.104.038-.031.055-.035.103-.067.169-.032.072-.106.123-.112.181-.01.101.129.379.168.471.072.165.127.312.189.454.382.871.999 1.627 1.557 2.273.063.014.097.059.151.084.87-.423 1.611-.974 2.377-1.5.741-.52 1.383-1.23 2.207-1.661.113-.059.268-.141.396-.17.207-.046.431-.034.613-.01.546.075.938.461 1.197.784.203.252.383.517.511.812.129.301.155.699.188 1.132.035.468-.067.819-.208 1.113-.14.292-.378.51-.604.716a6.108 6.108 0 0 0-.651.671c-.252.317-.471.743-.386 1.33.017.119.078.223.065.331-.132.014-.228-.113-.31-.189-.091-.084-.192-.162-.274-.245-.176-.176-.304-.394-.433-.604a3.798 3.798 0 0 1-.567-1.508l-.001-.003a7.073 7.073 0 0 0-.593.416c-.538.406-1.083.878-1.764 1.245.096.121.155.223.255.35.082.105.167.279.263.33.112.061.312.037.368.133.064.111-.037.268-.018.406.014.111.12.208.189.302.09.124.141.227.263.283.069.032.164.045.255.085.085.038.182.05.245.086.059.032.153.153.161.225.002.038-.023.078-.039.123-.015.045-.015.102-.028.133-.022.051-.087.113-.123.16-.043.059-.101.101-.123.15-.044.1-.078.234-.123.359a1.756 1.756 0 0 1-.359.585c-.091.103-.264.245-.274.405-.004.086.042.113.038.189.098.071.205.133.331.113.129-.021.197-.179.35-.161-.064-.21-.191-.355-.199-.622.326-.362.728-.631 1.095-.935.553-.454 1.034-.989 1.5-1.547.155-.184.317-.361.453-.557.208-.294.415-.594.613-.905.065-.102.148-.192.208-.293.073-.123.111-.337.339-.292.168.033.238.417.301.631.072.248.141.486.199.728.121.519.187 1.063.244 1.612.063.582.008 1.21-.037 1.765-.022.276-.072.548-.114.812-.045.28-.077.54-.141.782-.192.743-.41 1.438-.698 2.095a15.485 15.485 0 0 1-1.292 2.416c-.103.152-.288.469-.444.48-.082.006-.173-.073-.255-.112-.313-.153-.493-.412-.744-.613v.001c-.602.504-1.187 1.016-1.849 1.471-.66.454-1.4.803-2.226 1.094-.413.145-.843.254-1.247.416-.19.077-.375.179-.566.264-.195.089-.4.152-.585.246-.731.372-1.473.713-2 1.312-.692.682-1.131 1.624-1.423 2.717-.017.058-.025.147-.095.179-.088-.016-.076-.114-.094-.171a6.567 6.567 0 0 0-.585-1.244c-.133-.227-.25-.447-.396-.652-.42-.585-.958-1.157-1.548-1.575-.403-.288-.873-.473-1.377-.708-.248-.115-.521-.18-.783-.265-.271-.086-.544-.157-.812-.235-.521-.154-1.019-.375-1.49-.596a9.031 9.031 0 0 1-2.49-1.678c-.203-.165-.355-.382-.576-.529v-.001c-.068.002-.161.173-.208.235a1.334 1.334 0 0 1-.453.426c-.154.096-.317.2-.472.046-.094-.095-.19-.248-.282-.377-.817-1.143-1.437-2.493-1.869-4.018-.048-.172-.083-.35-.122-.529a11.798 11.798 0 0 1-.235-2.991c.008-.155.042-.341.066-.509.083-.598.169-1.172.284-1.746.034-.172.101-.362.159-.565.055-.188.059-.508.237-.519.113-.008.192.112.254.217.064.11.121.211.17.292.137.232.26.422.358.575.265.413.53.738.802 1.067.573.687 1.154 1.335 1.859 1.877.095.051.199.134.312.226.094.078.246.148.273.255.01.039-.015.079.01.113-.093.181-.161.387-.246.576.144-.004.22.149.358.169.125.018.235-.045.331-.122-.024-.112.002-.228-.028-.32-.023-.069-.104-.152-.161-.237-.054-.082-.117-.165-.159-.235-.13-.208-.214-.45-.304-.631-.043-.09-.151-.165-.217-.273-.028-.048-.058-.121-.094-.189-.089-.167-.081-.325.076-.425.034-.021.101-.034.161-.056.054-.02.104-.05.15-.066.092-.029.164-.031.235-.075.093-.057.146-.154.228-.264.067-.093.172-.19.188-.293.022-.146-.079-.288-.02-.406.055-.108.267-.083.377-.151.098-.059.217-.274.293-.377.104-.141.185-.25.282-.377-.811-.495-1.538-1.076-2.294-1.625a3.946 3.946 0 0 1-.554 1.496c-.129.211-.268.42-.442.593-.084.084-.182.161-.273.246-.086.079-.167.203-.302.208-.043-.084.02-.164.037-.235.163-.706-.192-1.25-.519-1.596-.407-.429-.923-.812-1.15-1.32-.124-.274-.189-.67-.151-1.065.018-.21.007-.407.037-.585.087-.51.328-.908.595-1.255.328-.43.864-.923 1.622-.859.375.033.634.203.888.35.258.149.485.334.716.519.691.553 1.368 1.095 2.114 1.594.356.24.741.472 1.15.708.113.066.32.207.416.199.104-.009.258-.22.331-.312a10.559 10.559 0 0 0 1.453-2.396c.032-.077.171-.389.161-.482-.013-.111-.15-.124-.209-.235-.034-.063-.041-.205-.074-.235-.037-.034-.223-.046-.301-.066-.121-.03-.192-.078-.284-.085-.161-.014-.333.038-.481.075-.455.115-1.028.044-1.472-.037a3.15 3.15 0 0 1-1.169-.482c-.116-.076-.234-.198-.376-.245-.153-.051-.32-.052-.472-.075a4.806 4.806 0 0 1-1.247-.368c-.48-.215-.964-.458-1.367-.784a16.118 16.118 0 0 1-.585-.491 4.582 4.582 0 0 1-.511-.566 11.549 11.549 0 0 1-.679-.933c-.079-.123-.2-.268-.16-.359.038-.084.173-.039.254-.094-.037-.12-.133-.21-.207-.312-.207-.288-.447-.583-.632-.895-.186-.314-.353-.668-.519-1.011-.055-.114-.117-.253-.084-.386.251-.039.35.252.585.198.044-.078-.04-.14-.075-.188-.126-.168-.21-.381-.321-.576-.074-.128-.153-.25-.217-.386-.062-.133-.121-.271-.188-.406-.205-.408-.299-.893-.452-1.349-.048-.145-.14-.301-.095-.462.101-.024.18.048.255.085.079.039.153.087.235.123-.015-.14-.116-.247-.179-.368-.192-.361-.396-.736-.585-1.114-.127-.251-.271-.497-.388-.746a1.411 1.411 0 0 0-.216-.348c-.085-.101-.225-.164-.255-.312.114-.025.199.073.282.123.616.359 1.346.625 2.02.943.768.364 1.549.71 2.321 1.057.379.171.734.378 1.094.595 1.049.63 2.14 1.249 3.019 2.046.116.101.334.181.589-.042.037-.032.089-.087.089-.087-.106-.169-.178-.26-.296-.432-.117-.171-.212-.381-.345-.507-.119-.113-.358-.145-.391-.334-.017-.094.068-.171.05-.249-.017-.071-.144-.085-.226-.137-.089-.055-.179-.156-.28-.237a1.697 1.697 0 0 1-.272-.246c-.141-.165-.327-.44-.383-.666-.017-.066.002-.143-.014-.207-.021-.086-.137-.124-.194-.223-.024-.042-.096-.18-.09-.241.007-.079.161-.145.251-.214.445-.349.695-.553 1.167-.884.078-.055.172-.113.271-.188.074-.058.179-.178.292-.17.161.01.183.264.333.308.075.024.2-.002.257.021.106.045.165.238.25.362.086.125.187.25.25.353.114.189.217.385.304.623.03.078.043.192.072.231.04.051.158.039.223.072.051.025.145.12.165.195.019.086-.01.195.018.284.042.136.141.268.234.41.19.289.594.859.609.906.016.045.079.151.079.151l.007.02c.067-.009.14-.015.21-.024.368-.049.746-.111 1.16-.141.086-.006.165-.031.217-.019.154.034.161.229.255.32.359-.047.712-.096 1.075-.141.11-.014.214-.061.321-.076.194-.033.376-.005.562-.063m9.315-2.167c.058-.011.09-.05.121-.094-.062-.184-.118-.104-.249-.229-.428-.335-.877-.653-1.306-.988-.043-.041-.128.043-.129.094-.003.067.131.131.202.186.495.374.852.711 1.361 1.031m-1.997-1.124-.019-.001c-.296.437-.609.855-.779 1.436.117.144.29.229.437.336.437.316.755.564 1.21.874.52-.196.864-.652 1.082-1.167-.044-.097-.02-.066-.102-.129-.412-.319-.849-.646-1.271-.975a3.398 3.398 0 0 0-.558-.374m-1.178 1.667c.022.248.242.305.416.423.186.129.375.258.548.382.346.269.605.498.973.749.079-.03.156-.101.129-.228-.01-.051-.089-.091-.156-.146-.54-.453-1.175-.873-1.744-1.243-.089-.017-.131.018-.166.063m-.99 1.897c.406.22.871.423 1.345.594.222.08.379.04.537.176.22-.372.498-.676.73-1.034-.54-.454-1.014-.81-1.644-1.187-.345.483-.634.957-.968 1.451m4.929 11.15c.079-.014.183.13.237.193l.374.452c.062.077.163.183.156.244-.004.039-.054.094-.103.094-.101.002-.194-.148-.228-.192-.108-.14-.247-.32-.364-.463-.056-.066-.278-.293-.072-.328m.382.012c-.057-.075-.167-.184-.163-.258.007-.092.213-.257.313-.271.26-.037.306.23.406.398.07.117.21.175.31.297.074.088.173.275.054.297-.135.025-.22-.272-.369-.255-.011.001-.05.015-.06.043-.054.134.2.207.171.362-.038.216-.254-.047-.312-.126-.141-.191-.202-.289-.35-.487m.269-.066c.144-.015.035-.249-.078-.232-.173.025 0 .24.078.232m-6.775 3.645c-.025.08.035.218.059.305.063.224.096.36.16.596.024.091.055.235.132.259.107.032.426-.071.412-.196-.017-.135-.178-.019-.277-.061-.057-.022-.132-.214-.109-.293.027-.096.212-.082.21-.197-.001-.132-.169-.03-.265-.07-.097-.039-.077-.135-.097-.244.053-.093.188-.075.235-.173-.077-.148-.428-.021-.46.074m1.538-.517c-.01.083.076.207.117.288.105.207.163.335.271.553.042.085.1.22.181.229.111.01.404-.153.365-.273-.042-.128-.176.015-.283-.004-.061-.013-.17-.185-.164-.266.007-.099.192-.123.168-.235-.028-.129-.172.004-.275-.016-.102-.02-.102-.118-.142-.219.034-.102.169-.11.197-.217-.103-.133-.424.06-.435.16m3.946-1.474c.059.07.117.191.206.2.082.009.182-.072.242-.119.058-.043.173-.135.071-.222-.126-.012-.15.111-.281.089-.107-.02-.218-.244-.317-.378-.096-.131-.198-.348-.329-.37-.051-.008-.098.078-.1.099-.008.07.104.175.155.245.136.184.206.281.353.456m-4.491 2.419c.063.045.215.159.153.258-.07.113-.244-.15-.304.017-.031.089.028.199.151.229.161.039.335-.073.375-.193.075-.23-.1-.368-.223-.459-.062-.045-.189-.101-.261-.176-.115-.123-.021-.25.146-.121.215-.082.004-.327-.183-.294a.352.352 0 0 0-.183.123c-.209.301.148.486.329.616m2.429-.911c.046.079.094.221.187.227.067.004.152-.071.218-.113.067-.044.168-.097.16-.17-.019-.176-.244.021-.33.009-.111-.016-.212-.274-.293-.416-.096-.171-.183-.378-.312-.416-.146.078-.01.269.058.377.112.181.21.333.312.502m.272-.889c-.051-.126-.178-.396.02-.425.095-.014.209.123.273.179.146.128.308.293.452.434.062.061.213.154.208.235-.003.043-.045.081-.067.085-.132.035-.205-.143-.311-.141-.198.001-.161.208-.123.396-.035.031-.048.083-.094.084-.086.004-.132-.2-.151-.254-.079-.244-.113-.364-.207-.593m.245.057c.001.089.038.191.113.179.13-.019-.013-.268-.113-.179m.823-.272c.055.067.109.14.16.179.186.146.56.019.566-.217.003-.128-.25-.424-.35-.434-.027-.001-.239.048-.217.161.015.079.121.038.188.066.048.02.23.254.057.283-.138.022-.26-.175-.33-.255-.092-.106-.251-.236-.235-.35.011-.088.107-.093.217-.066.146-.078.034-.251-.114-.254-.138-.004-.303.151-.33.273-.03.138.141.313.235.434.05.063.106.126.153.18m.793-1.207c-.046-.069-.121-.19-.105-.291.02-.133.162-.227.288-.238.153-.015.212.09.3.196.061.073.113.131.186.22.123.146.32.328.293.498-.022.14-.229.299-.385.272-.132-.024-.298-.272-.4-.42-.055-.082-.115-.149-.177-.237m.099-.241c-.012.133.149.246.235.354.086.109.173.308.285.311.054 0 .094-.054.098-.081.019-.099-.153-.258-.234-.362-.082-.106-.203-.339-.313-.312-.026.006-.065.03-.071.09m-17.271 1.444c.117-.149.181-.23.289-.375.064-.084.192-.306.012-.283-.087.011-.153.15-.207.218-.109.141-.219.304-.329.45-.044.058-.16.161-.152.249.007.07.246.267.332.25.183-.039-.077-.24-.074-.316.002-.056.079-.125.129-.193m-.835-1.591c-.035-.197-.242.035-.283.085-.068.083-.098.124-.161.199-.059.07-.234.375-.368.35-.155-.029.001-.234.048-.293.044-.057.096-.125.15-.189.063-.073.304-.292.292-.396-.005-.067-.07-.083-.113-.075-.013.001-.011.004-.018.008-.131.081-.223.231-.35.388-.12.146-.282.266-.301.424a.331.331 0 0 0 .386.358c.073-.014.147-.117.208-.179.153-.153.231-.258.367-.424.045-.055.158-.167.143-.256m-.945-.039c-.126.136-.296.361-.472.358-.122-.001-.29-.151-.301-.273-.016-.161.183-.368.292-.51.117-.152.253-.381.416-.405.136-.022.365.116.376.311.012.199-.19.384-.311.519m-.142-.133c.11-.124.331-.351.142-.444-.142.028-.231.195-.34.35-.069.096-.215.223-.208.292.003.025.045.071.086.076.117.012.237-.181.32-.274m-.55-.366c-.129.017-.176-.111-.3-.096-.067.009-.134.11-.187.172-.034.042-.094.185-.168.191-.042.004-.093-.044-.099-.07-.012-.061.074-.124.111-.195.015-.034.096-.157.129-.197.061-.077.112-.185.181-.276.087-.114.142-.288.264-.318.131-.034.407.136.4.354-.004.12-.197.416-.331.435m-.026-.274c.131-.032.19-.338.01-.284-.124.039-.226.338-.01.284m1.916 1.798c-.04.042-.059.118-.091.166-.068.105-.238.306-.341.271-.183-.066.175-.318.168-.418-.012-.186-.201.004-.247.057-.057.061-.245.223-.267.047-.008-.071.096-.172.141-.222.057-.065.107-.12.168-.191.141-.169.208-.302.318-.403a.297.297 0 0 1 .154-.069c.096-.009.304.12.328.276a.45.45 0 0 1-.078.281c-.051.074-.168.114-.253.205m.003-.529c-.104.027-.241.318-.011.283.127-.021.19-.331.011-.283m19.35-1.331c.131.177.237.327.348.505.042.067.123.226.196.238.052.007.193-.072.244-.11.045-.032.203-.192.186-.241-.057-.16-.238.083-.343.067-.084-.015-.188-.178-.186-.245.005-.118.172-.144.16-.254-.017-.167-.216.025-.306.014-.104-.014-.191-.125-.179-.225.014-.103.105-.107.134-.21-.073-.161-.399.132-.409.201-.01.076.104.192.155.26m-14.094 4.006c-.148.031-.16.3-.22.503-.056.182-.118.324-.14.452-.016.082-.003.179.019.21.053.068.398.19.413.042.012-.103-.224-.128-.235-.237-.012-.128.064-.246.154-.252.094-.008.191.081.202-.059.008-.097-.091-.076-.168-.127-.127-.084.002-.347.104-.36.1-.015.229.066.239-.039.013-.106-.285-.15-.368-.133m-.703-.13c.008.113-.066.24-.117.311-.042.058-.146.096-.16.173-.034.179-.091.56-.246.534-.208-.032.134-.468-.041-.516-.149-.041-.181.376-.34.354-.183-.025.066-.432.112-.528.045-.1.091-.186.131-.262.062-.122.099-.314.224-.337.124-.024.425.137.437.271m-.239.014c-.034-.195-.281-.009-.246.163.073.155.269-.029.246-.163m.543.017c-.12.016-.131.184-.176.297-.058.148-.126.314-.18.468-.052.153-.152.354.019.363.084.002.113-.125.151-.226.069-.182.135-.377.206-.559.043-.113.163-.366-.02-.343m1.287 1.35c-.006-.045.024-.103.032-.148.044-.248.113-.517.153-.782-.145-.208-.211.07-.246.224-.04.17-.103.395-.132.548-.02.092-.064.231-.055.289.02.109.448.235.477.089.025-.142-.211-.095-.229-.22m.619-.896c-.146-.004-.163.256-.188.41-.038.247-.067.517-.1.72-.003.156.497.213.497.054-.001-.098-.137-.058-.226-.114-.061-.039-.067-.227-.013-.294.05-.062.292-.013.304-.106.016-.137-.261-.063-.284-.223a.312.312 0 0 1 .046-.205c.075-.101.264.023.332-.104-.003-.12-.259-.134-.368-.138m-2.833-.784c.011-.066-.169-.139-.237-.174-.14-.073-.273-.179-.363-.087.01.112.123.11.13.206.004.063-.062.145-.098.222-.037.076-.069.156-.098.221-.048.103-.316.533-.096.543.129.005.251-.371.289-.447.067-.137.17-.424.29-.447.06-.01.168.049.183-.037m10.849-.538c-.046-.048-.21.057-.277.092-.141.072-.304.118-.282.245.098.056.161-.037.244.013.054.033.082.135.125.208.041.073.087.146.123.208.057.098.25.568.386.393.082-.103-.155-.42-.196-.495-.073-.133-.248-.385-.195-.495.023-.055.134-.108.072-.169m-5.328 2.396c-.093-.004-.121.154-.198.149-.12-.007-.114-.244-.123-.346a1.68 1.68 0 0 1 .007-.454c.085-.117.164.02.253.052.176-.161-.019-.323-.182-.313-.328.021-.281.464-.272.808a.954.954 0 0 0 .058.324c.082.18.451.197.528.009.038-.089.023-.225-.071-.229m.996.076c-.092-.031-.123-.185-.094-.268.033-.09.258-.09.258-.179.001-.11-.122-.045-.237-.084-.079-.025-.14-.178-.112-.278.035-.12.316-.091.317-.211.004-.14-.382-.055-.432-.03-.136.066-.087.225-.064.401.014.106.031.218.041.3.028.203.015.413.137.565.125.031.436-.007.441-.129.008-.135-.155-.055-.255-.087m.974-.678c-.042-.21-.074-.425-.161-.54-.272-.017-.046.283-.09.408-.203.026-.276-.552-.473-.278.012.169.063.4.098.609.017.107.032.54.168.549.037.001.079-.031.092-.066.059-.167-.109-.357-.053-.471.12-.002.124.161.214.213.046.099.117.179.18.265.19-.03.111-.233.081-.399-.02-.101-.036-.198-.056-.29m.785.14c-.102-.006-.111.187-.206.18-.114-.009-.154-.298-.174-.385-.036-.146-.138-.341-.01-.427.068.016.083.076.174.072.137-.075.021-.235-.089-.274-.211-.072-.376.072-.368.309.004.141.072.262.113.436.033.146.056.304.09.369.105.204.589.211.575-.186-.042-.057-.06-.093-.105-.094m-3.621.167c-.049-.056-.198-.222-.162-.312.055-.134.163.048.241.048.043 0 .084-.041.093-.065.052-.133-.1-.286-.23-.294-.139-.008-.301.12-.32.285-.027.25.188.372.288.528.037.057.13.186-.012.265-.114-.042-.052-.139-.183-.137-.192.003-.052.267.011.306.152.093.388.015.438-.091.125-.253-.071-.424-.164-.533m-1.21-.36c.054-.171.209.056.27.052.035-.001.076-.049.084-.087.031-.149-.141-.261-.252-.259-.249.007-.329.236-.277.449.04.161.326.385.275.536-.008.026-.061.059-.08.059-.09 0-.081-.155-.196-.15-.095.006-.095.144-.073.203.045.134.241.212.393.148.264-.112.137-.46.015-.614-.038-.05-.203-.194-.159-.337m2.365-.257c-.104.024-.07.23-.068.354.001.085.017.202.023.316.008.173-.008.545.128.555.169.012.075-.507.068-.619-.008-.144.02-.644-.151-.606m-8.212-1.894c-.072.203-.134.357-.223.579-.038.096-.064.252-.148.251-.155-.001-.018-.256-.021-.292-.005-.085-.107-.158-.195-.156-.083 0-.278.226-.321.058-.02-.071.114-.189.167-.242.066-.067.152-.144.212-.202.156-.148.271-.291.454-.385.007-.003.007-.006.02-.009.241-.046.106.257.055.398m-.161.033c-.087-.152-.301.182-.128.186.082.002.093-.115.128-.186m.946.829c-.082.012-.156-.067-.252-.063-.147.005-.223.345-.369.328-.136-.015-.033-.197.018-.273.134-.204.219-.332.337-.537.052-.092.114-.224.214-.24.12-.017.38.16.387.314.007.161-.191.453-.335.471m.007-.528c-.094.02-.22.285-.077.311.171.029.244-.345.077-.311m.806.224c-.051.329-.138.599-.225.926-.024.089-.061.237-.142.23-.125-.008-.04-.148-.055-.267-.008-.064-.078-.141-.146-.146-.15-.014-.254.25-.362.089.03-.167.207-.311.348-.468.063-.069.127-.151.188-.218.103-.116.262-.355.394-.146m-.269.348c-.083-.062-.187.076-.185.133.008.163.247.018.185-.133" clip-path="url(#d)" clip-rule="evenodd"/>
  </g>
</svg>
