<?xml version="1.0" standalone="no"?>
<!DOCTYPE svg PUBLIC "-//W3C//DTD SVG 20010904//EN"
 "http://www.w3.org/TR/2001/REC-SVG-20010904/DTD/svg10.dtd">
<svg version="1.0" xmlns="http://www.w3.org/2000/svg"
 width="1348.000000pt" height="1450.000000pt" viewBox="0 0 1348.000000 1450.000000"
 preserveAspectRatio="xMidYMid meet">

<g transform="translate(0.000000,1450.000000) scale(0.100000,-0.100000)"
fill="#000000" stroke="none">
<path d="M6054 12872 c-96 -13 -106 -51 -14 -52 59 0 218 -32 299 -59 74 -25
176 -77 240 -120 89 -60 225 -210 207 -228 -3 -3 -23 -1 -43 4 -112 32 -153
37 -341 41 -210 4 -239 0 -212 -33 7 -8 21 -15 31 -15 28 0 194 -57 267 -91
34 -16 64 -29 67 -29 14 0 186 -113 183 -120 -5 -14 -261 -181 -298 -195 -19
-7 -62 -20 -95 -30 -62 -19 -68 -21 -150 -55 -54 -22 -52 -22 -140 -70 -197
-109 -381 -279 -510 -469 -19 -29 -35 -55 -35 -57 0 -2 -13 -25 -29 -51 -32
-52 -98 -200 -111 -248 -5 -16 -16 -55 -25 -85 -18 -63 -55 -279 -55 -327 0
-24 -30 -82 -108 -210 -60 -98 -112 -185 -116 -193 -4 -8 -12 -24 -19 -35 -7
-11 -28 -47 -47 -80 -19 -33 -40 -69 -47 -80 -7 -11 -15 -27 -20 -35 -4 -8
-31 -55 -60 -103 -29 -48 -53 -90 -53 -92 0 -3 -17 -33 -38 -67 -21 -35 -60
-103 -86 -153 -27 -49 -52 -94 -56 -100 -4 -5 -23 -39 -42 -75 -20 -36 -44
-81 -55 -100 -11 -19 -36 -64 -55 -100 -19 -36 -46 -85 -60 -110 -23 -42 -47
-87 -155 -290 -110 -206 -193 -368 -372 -726 -186 -371 -246 -494 -341 -699
-123 -267 -111 -251 -285 -389 -160 -128 -584 -529 -585 -553 0 -6 -6 -13 -12
-15 -12 -4 43 -97 79 -136 7 -7 27 -33 44 -57 18 -25 40 -45 48 -45 9 0 70 54
135 120 65 66 119 120 120 120 1 0 46 44 101 98 55 54 141 131 190 172 50 41
92 77 95 80 16 18 184 152 235 188 33 23 89 63 125 89 36 26 121 81 190 122
431 262 817 374 1172 341 124 -11 226 -30 273 -49 11 -5 43 -17 70 -26 165
-56 330 -169 445 -304 58 -68 68 -82 120 -176 48 -86 41 -71 96 -215 7 -19 20
-69 29 -110 10 -41 21 -91 26 -110 13 -52 29 -248 31 -385 3 -172 -20 -433
-54 -600 -5 -27 -14 -77 -18 -110 -10 -68 -25 -136 -70 -310 -17 -66 -35 -138
-40 -161 -5 -22 -13 -51 -18 -65 -6 -13 -25 -71 -42 -129 -18 -58 -34 -112
-37 -120 -3 -8 -19 -51 -35 -95 -16 -44 -32 -92 -35 -108 -3 -15 -9 -30 -14
-33 -5 -3 -9 -16 -9 -29 0 -22 5 -24 68 -30 37 -4 85 -11 107 -16 58 -13 131
-11 142 4 6 6 13 23 16 37 3 14 15 50 26 80 18 47 52 159 81 265 4 17 18 66
30 110 12 44 26 94 30 110 5 17 17 62 28 100 10 39 27 106 36 150 10 44 24
107 31 140 7 33 18 83 25 110 6 28 14 79 18 115 4 35 12 65 19 67 6 2 35 -31
64 -74 124 -185 235 -307 288 -315 50 -7 87 9 105 46 19 39 20 70 6 163 -20
135 -39 358 -31 366 4 4 36 -18 72 -49 180 -156 264 -214 313 -214 22 0 76 40
76 57 1 4 5 27 9 50 9 46 -4 131 -37 248 -21 76 -40 161 -66 295 -10 47 -22
107 -28 133 -10 47 -13 69 -43 297 -37 273 -47 443 -52 858 -4 348 -2 444 11
545 9 68 16 144 16 169 0 82 13 84 138 22 l109 -54 11 -52 c15 -68 32 -166 43
-246 4 -35 11 -67 13 -71 3 -5 10 -44 16 -87 5 -44 16 -128 25 -189 24 -171
44 -348 55 -490 6 -71 13 -137 16 -145 3 -8 9 -94 14 -190 5 -96 14 -250 20
-342 14 -202 8 -1130 -9 -1323 -6 -71 -18 -209 -26 -305 -9 -96 -20 -203 -26
-238 -5 -35 -7 -67 -4 -72 9 -14 40 -12 99 4 28 8 78 22 111 31 105 29 103 26
109 97 22 263 28 373 36 668 5 197 5 500 0 735 -8 376 -14 506 -41 850 -7 77
-13 163 -15 190 -9 119 -47 459 -75 680 -13 100 -36 245 -55 354 -18 99 -15
106 65 116 53 7 150 36 201 59 139 65 270 189 270 256 0 50 -39 75 -147 95
-160 29 -294 106 -424 241 -31 33 -60 70 -64 83 l-7 24 68 -7 c38 -4 123 -11
189 -16 66 -5 136 -14 155 -20 19 -5 50 -10 69 -10 39 0 130 -25 179 -49 52
-25 166 -135 250 -240 42 -53 79 -98 82 -101 3 -3 24 -27 45 -55 22 -27 48
-59 58 -70 10 -11 28 -36 40 -55 12 -19 27 -41 35 -49 8 -8 25 -30 38 -50 13
-20 49 -70 79 -111 30 -41 63 -86 73 -100 60 -87 111 -120 186 -120 46 0 61 5
97 33 23 17 46 39 50 47 5 8 26 44 47 80 36 61 121 230 172 345 13 28 37 82
55 120 18 39 36 81 39 95 4 14 11 34 16 45 19 44 84 244 97 300 7 33 20 87 28
120 8 33 19 90 25 126 5 36 14 95 19 130 19 113 14 412 -9 541 -23 131 -41
205 -64 268 -10 25 -21 57 -26 72 -4 14 -20 50 -36 80 -15 29 -34 67 -42 83
-103 201 -303 401 -501 503 -47 24 -89 52 -93 62 -4 10 -12 65 -18 122 -6 56
-16 123 -21 148 -22 92 -70 251 -80 265 -4 6 -21 46 -39 90 -18 44 -38 86 -44
94 -5 7 -15 21 -21 31 -77 134 -217 317 -287 374 -12 11 -48 40 -78 66 -118
100 -287 194 -445 247 -85 29 -146 44 -295 75 -83 17 -448 17 -504 0 -51 -15
-60 -8 -39 30 63 108 323 275 548 353 19 7 19 7 -2 18 -24 11 -87 2 -213 -28
-36 -9 -81 -19 -100 -24 -76 -18 -215 -72 -250 -96 -20 -14 -73 -61 -118 -105
-45 -44 -86 -80 -91 -80 -4 0 -19 21 -33 48 -142 273 -187 316 -394 373 -69
19 -109 22 -309 25 -126 1 -253 -1 -281 -4z m1748 -817 c154 -29 287 -70 368
-114 76 -41 136 -75 140 -80 3 -4 32 -28 65 -53 66 -51 134 -119 186 -188 18
-25 36 -47 39 -50 8 -8 34 -49 70 -115 52 -94 46 -81 93 -200 39 -99 77 -247
77 -303 0 -50 -16 -59 -114 -68 -107 -9 -238 -51 -379 -120 -27 -13 -55 -24
-62 -24 -15 0 -25 22 -25 57 0 28 -20 103 -57 212 -116 345 -375 650 -699 826
-87 46 -223 105 -245 105 -10 0 -20 4 -23 9 -3 4 -24 11 -46 15 -31 5 -40 11
-40 26 0 15 7 20 24 20 14 0 37 5 51 10 24 9 123 31 195 43 66 11 306 6 382
-8z m-882 -340 c77 -6 192 -30 222 -46 10 -5 25 -9 34 -9 33 0 241 -109 320
-167 156 -117 290 -277 373 -448 53 -108 50 -101 93 -255 29 -105 32 -419 4
-525 -40 -156 -79 -255 -139 -355 -52 -85 -144 -205 -198 -257 -123 -117 -314
-232 -472 -283 -132 -42 -203 -52 -367 -52 -182 -1 -303 20 -435 73 -389 157
-647 459 -751 879 -26 103 -26 404 0 500 21 81 45 159 56 185 41 95 59 130
107 207 30 49 94 130 141 180 169 178 327 272 587 348 52 15 270 39 315 34 19
-2 69 -6 110 -9z m2085 -1166 c5 -5 18 -9 30 -9 11 -1 38 -12 60 -26 22 -13
48 -27 58 -30 9 -4 17 -10 17 -14 0 -5 10 -12 21 -15 20 -7 66 -45 123 -101
44 -45 96 -104 96 -110 0 -3 14 -23 30 -44 17 -21 30 -45 30 -54 0 -9 7 -19
15 -22 8 -4 15 -14 15 -24 0 -11 4 -21 9 -25 5 -3 12 -19 16 -35 4 -17 11 -30
16 -30 5 0 9 -10 9 -23 0 -13 7 -32 15 -43 8 -10 15 -35 15 -54 0 -20 6 -42
12 -48 13 -13 19 -54 39 -272 8 -85 8 -140 -1 -210 -6 -52 -15 -126 -19 -165
-4 -38 -13 -83 -19 -98 -7 -16 -12 -45 -12 -67 0 -21 -7 -51 -15 -66 -8 -16
-15 -41 -15 -56 0 -16 -4 -28 -9 -28 -5 0 -12 -17 -16 -37 -4 -21 -10 -42 -15
-48 -4 -5 -10 -23 -13 -40 -2 -16 -10 -46 -17 -65 -7 -19 -15 -39 -16 -45 -2
-5 -8 -17 -13 -25 -5 -8 -13 -26 -19 -40 -11 -26 -46 -109 -61 -145 -30 -70
-88 -179 -98 -182 -6 -2 -57 59 -114 137 -57 77 -107 140 -111 140 -4 0 -8 5
-8 11 0 6 -6 16 -12 23 -7 8 -20 23 -28 36 -27 39 -58 76 -165 195 -95 106
-97 108 -200 185 -101 76 -198 113 -336 129 -36 4 -72 12 -80 17 -8 4 -61 12
-119 16 -58 4 -136 12 -175 17 -38 6 -126 10 -195 11 -124 0 -125 0 -137 26
-14 31 -1 60 32 68 56 15 365 308 365 346 0 5 4 10 9 12 13 4 101 140 101 156
0 6 3 12 8 12 4 0 22 33 40 73 18 39 40 85 48 100 8 16 14 38 14 50 0 12 7 31
15 41 8 11 15 34 15 51 0 17 4 35 10 41 5 5 14 37 19 69 16 103 29 137 58 161
15 13 34 23 41 24 6 0 12 4 12 10 0 5 11 12 25 16 14 3 25 10 25 15 0 5 8 9
19 9 10 0 24 7 31 15 7 8 20 15 30 15 10 0 23 7 30 15 7 8 22 15 34 15 11 1
32 7 46 15 14 8 36 14 51 15 14 0 29 4 35 9 18 19 279 19 299 0z m-3646 -501
c5 -13 23 -58 40 -100 73 -183 173 -330 326 -484 84 -85 150 -141 220 -187
126 -82 166 -103 320 -166 11 -5 47 -17 80 -26 33 -10 71 -21 85 -26 83 -26
243 -41 396 -36 87 3 176 9 198 13 l38 6 -8 -43 c-20 -101 -4 -383 25 -437 15
-28 14 -91 -3 -160 -17 -65 -40 -231 -56 -407 -12 -120 -16 -927 -6 -944 3 -5
10 -73 16 -152 11 -161 26 -309 42 -414 5 -38 14 -104 19 -145 4 -41 15 -120
24 -175 25 -158 28 -195 19 -194 -5 0 -45 42 -89 92 -123 140 -149 165 -180
173 -32 8 -55 -3 -73 -37 -10 -19 -12 -69 -8 -230 4 -113 3 -209 -1 -213 -7
-7 -12 2 -72 124 -18 36 -44 88 -58 115 -21 39 -28 72 -34 155 -19 250 -28
338 -37 380 -6 25 -18 79 -27 120 -49 218 -167 472 -287 616 -207 249 -492
418 -835 494 -84 19 -342 36 -418 27 -234 -25 -314 -39 -450 -82 -96 -29 -122
-38 -150 -50 -16 -7 -57 -23 -90 -36 -33 -13 -127 -57 -208 -98 -81 -40 -150
-71 -153 -69 -2 3 15 45 39 94 25 49 113 229 197 399 255 521 308 625 425 840
15 28 54 102 88 165 33 63 63 120 67 125 4 6 36 64 71 130 34 66 78 147 96
180 18 33 37 69 43 80 5 11 28 52 50 90 23 39 48 84 56 100 8 17 28 53 45 80
16 28 34 59 39 70 6 11 20 36 31 55 12 19 35 60 51 90 69 127 81 139 97 98z
m1971 -1007 c0 -16 7 -36 15 -45 8 -8 15 -22 15 -31 0 -9 7 -31 16 -48 9 -18
21 -40 26 -50 37 -75 55 -105 75 -127 13 -14 23 -29 23 -33 0 -13 100 -121
151 -162 49 -40 114 -82 137 -89 12 -4 22 -12 22 -17 0 -5 8 -9 19 -9 10 0 24
-7 31 -15 7 -8 23 -15 36 -15 17 0 24 -6 24 -20 0 -17 -7 -20 -57 -22 -121 -4
-238 4 -260 18 -12 8 -31 14 -41 14 -11 0 -25 7 -32 15 -7 8 -17 15 -23 15
-16 0 -127 117 -127 133 0 8 -7 20 -15 27 -8 7 -15 22 -15 34 0 11 -7 30 -15
40 -8 11 -15 37 -15 57 0 21 -4 41 -10 44 -6 4 -10 68 -10 161 0 130 2 154 15
154 10 0 15 -10 15 -29z"/>
<path d="M6725 10961 c-108 -15 -225 -101 -274 -204 -99 -210 10 -454 235
-522 98 -30 213 -12 306 48 65 41 95 76 133 153 27 54 29 68 29 159 -1 128
-21 175 -113 265 -52 51 -78 69 -121 82 -69 21 -130 27 -195 19z"/>
<path d="M8645 10413 c-11 -3 -24 -9 -29 -14 -6 -5 -17 -9 -25 -9 -42 -1 -88
-95 -76 -153 8 -34 42 -97 59 -109 6 -4 23 -8 38 -8 21 0 32 9 49 39 23 41 41
51 97 51 17 0 32 5 32 10 0 6 7 10 15 10 11 0 15 11 15 43 0 33 -7 50 -33 80
-18 20 -38 37 -44 37 -6 0 -13 4 -15 9 -4 11 -57 20 -83 14z"/>
<path d="M11370 3411 c-97 -20 -225 -107 -298 -205 -42 -56 -107 -183 -123
-241 -4 -16 -17 -61 -28 -100 -27 -99 -47 -246 -66 -490 -8 -115 -20 -266 -26
-335 -6 -69 -15 -264 -19 -435 -5 -170 -12 -402 -16 -514 l-7 -204 -34 -38
c-39 -43 -106 -79 -146 -79 -89 0 -134 206 -123 570 3 113 9 257 12 320 l6
116 -29 31 c-83 88 -235 26 -288 -118 -18 -50 -20 -79 -20 -359 -1 -350 4
-329 -97 -426 -75 -72 -125 -104 -164 -104 -41 0 -54 12 -64 56 -18 75 -8 421
20 746 10 112 9 132 -5 162 -29 61 -48 71 -134 71 -70 0 -80 -3 -122 -33 -60
-43 -79 -86 -90 -202 -5 -52 -14 -130 -20 -172 -16 -109 -6 -545 14 -618 25
-89 38 -123 69 -166 42 -60 74 -79 161 -100 76 -17 80 -17 153 1 92 23 199 84
273 156 l53 52 24 -29 c13 -16 23 -34 24 -40 0 -7 26 -36 58 -65 59 -54 138
-89 204 -89 52 0 189 39 262 74 41 20 80 36 86 36 7 0 30 -16 53 -35 105 -90
323 -100 527 -23 136 51 305 224 371 378 12 30 33 75 46 99 13 24 23 50 23 58
0 13 19 23 133 72 170 74 237 115 324 197 37 35 70 64 73 64 16 0 30 -21 45
-70 10 -30 33 -102 52 -160 71 -217 78 -273 40 -350 -26 -52 -55 -70 -117 -70
-70 0 -119 40 -170 140 -44 85 -96 108 -168 71 -81 -42 -97 -149 -39 -269 80
-166 223 -232 472 -219 131 7 202 34 271 102 29 27 55 60 59 73 3 12 11 22 16
22 5 0 9 27 9 60 0 33 4 60 10 60 6 0 10 20 10 45 0 25 -4 45 -10 45 -6 0 -10
31 -10 74 0 41 -4 76 -8 78 -5 2 -23 48 -40 103 -18 55 -39 117 -47 138 -8 20
-22 55 -30 77 -29 76 -47 125 -56 145 -5 11 -18 45 -29 75 -11 30 -24 64 -29
75 -5 11 -16 39 -26 62 -9 23 -33 56 -51 74 -32 31 -39 33 -107 34 -93 0 -117
-17 -193 -133 -62 -95 -112 -147 -189 -197 -66 -42 -92 -48 -105 -25 -6 10
-10 28 -10 40 0 34 -37 96 -79 131 -48 42 -154 74 -210 65 -102 -16 -188 -83
-235 -181 -55 -116 -24 -278 65 -342 24 -18 55 -41 69 -51 l24 -19 -39 -77
c-44 -87 -127 -178 -195 -215 -31 -16 -68 -25 -115 -28 -65 -5 -73 -3 -102 21
-49 41 -63 105 -63 288 l0 154 33 40 c33 40 45 57 116 161 59 87 179 314 226
428 24 58 36 86 50 120 29 69 45 113 61 165 8 30 19 64 24 75 4 11 15 47 23
80 44 173 53 217 68 315 5 36 14 94 20 130 13 76 7 325 -9 390 -6 25 -18 59
-27 77 -19 38 -101 113 -124 113 -9 0 -21 4 -26 9 -14 13 -114 20 -155 12z
m53 -330 c29 -11 47 -56 47 -120 0 -58 -17 -190 -35 -261 -7 -30 -19 -80 -25
-110 -12 -51 -65 -223 -88 -280 -5 -14 -18 -50 -27 -80 -16 -48 -90 -226 -166
-397 -52 -118 -55 -45 -14 327 8 80 20 190 24 245 9 97 16 145 48 345 23 146
44 206 95 271 26 34 78 68 105 69 6 0 23 -4 36 -9z m305 -1567 c26 -18 28 -38
7 -88 -18 -43 -35 -52 -65 -36 -47 25 -48 100 -1 125 33 18 32 18 59 -1z"/>
<path d="M1180 2951 c-159 -33 -306 -97 -393 -172 -42 -36 -118 -146 -137
-199 -76 -216 -42 -420 95 -569 59 -65 197 -151 395 -248 259 -126 312 -153
347 -179 17 -13 36 -24 42 -24 23 0 169 -156 190 -204 28 -66 29 -176 1 -231
-55 -108 -155 -164 -348 -194 -97 -15 -129 -14 -204 5 -89 23 -141 49 -200
103 -101 90 -147 195 -152 341 -3 91 -4 94 -35 122 -37 33 -49 34 -115 11 -53
-20 -124 -82 -151 -135 -79 -151 -28 -405 112 -562 70 -79 129 -119 263 -179
71 -33 263 -66 381 -67 93 0 319 35 374 59 11 5 40 17 65 27 57 22 175 99 216
139 47 46 108 135 128 185 10 25 23 56 29 70 5 14 12 73 15 132 5 117 -7 172
-60 282 -43 89 -122 182 -209 247 -40 30 -170 107 -219 130 -398 188 -552 287
-628 404 -23 34 -27 51 -26 110 0 58 5 77 27 112 71 112 175 166 342 178 116
9 198 -5 288 -49 87 -42 146 -96 183 -167 25 -49 28 -64 28 -165 1 -96 4 -115
20 -133 24 -27 100 -29 169 -4 53 19 137 93 137 121 0 9 5 50 10 91 12 90 -1
182 -36 257 -32 68 -145 182 -232 234 -81 48 -234 110 -271 110 -14 0 -51 7
-81 15 -75 20 -252 18 -360 -4z"/>
<path d="M8420 2913 c-122 -19 -264 -71 -366 -135 -135 -86 -234 -279 -234
-457 0 -249 130 -408 467 -571 389 -188 474 -237 558 -325 77 -79 105 -141
105 -231 0 -145 -76 -229 -256 -285 -102 -32 -308 -32 -379 0 -103 45 -164 98
-218 184 -47 76 -67 142 -71 238 -4 100 -18 136 -58 144 -111 25 -240 -84
-273 -230 -14 -63 -14 -79 0 -155 35 -201 118 -331 278 -433 31 -20 60 -37 63
-37 3 0 24 -9 47 -19 23 -10 62 -24 87 -31 25 -6 61 -16 80 -22 19 -5 102 -12
185 -15 185 -7 349 19 472 73 17 8 33 14 36 14 23 0 145 88 202 145 71 72 118
150 149 249 23 71 21 224 -3 302 -24 76 -58 149 -77 165 -8 6 -14 16 -14 21 0
6 -30 42 -67 80 -100 102 -152 134 -498 306 -228 112 -372 212 -431 298 -35
51 -38 61 -38 123 0 60 4 74 33 119 36 56 83 98 146 129 54 27 174 53 245 53
54 0 161 -21 199 -40 9 -4 34 -16 55 -26 59 -29 129 -96 161 -156 29 -53 31
-70 35 -274 0 -32 57 -58 109 -51 61 8 150 56 184 98 24 31 30 50 36 121 8 85
-1 202 -17 235 -36 71 -52 95 -106 152 -163 170 -380 251 -666 249 -74 0 -146
-2 -160 -5z"/>
<path d="M6645 2870 c-22 -10 -47 -25 -56 -32 -26 -21 -49 -75 -49 -114 0 -33
-8 -110 -26 -261 l-5 -41 -116 -7 c-64 -4 -131 -13 -147 -20 -37 -16 -66 -62
-66 -104 0 -41 34 -107 63 -123 12 -6 72 -14 132 -17 l110 -6 -5 -205 c-15
-635 -3 -856 59 -1085 13 -49 68 -158 93 -185 80 -88 158 -115 333 -115 131 0
141 2 230 46 54 27 110 98 120 151 5 28 2 48 -15 82 -42 88 -123 109 -220 56
-66 -35 -93 -37 -144 -7 -98 55 -142 273 -140 687 1 207 20 579 30 589 3 3
164 11 357 17 433 12 426 11 472 143 31 91 11 146 -58 156 -38 6 -370 -6 -646
-22 l-104 -6 7 39 c13 84 19 330 8 351 -28 51 -143 69 -217 33z"/>
<path d="M2404 1872 c-70 -29 -77 -42 -85 -156 -16 -219 -29 -386 -40 -501 -6
-66 -11 -220 -12 -342 l-2 -221 28 -30 c54 -56 146 -64 230 -21 70 36 90 67
172 269 25 63 50 124 55 135 12 28 96 246 104 268 3 10 12 17 19 15 9 -4 14
-75 20 -279 6 -186 13 -284 22 -304 7 -16 15 -37 18 -46 3 -9 22 -30 43 -45
33 -26 46 -29 110 -29 65 0 76 3 110 30 45 37 81 106 123 240 18 55 36 109 41
120 5 11 27 76 51 145 23 69 46 136 51 150 10 24 11 24 18 5 5 -11 9 -37 9
-59 1 -39 15 -135 33 -216 5 -25 13 -65 19 -90 5 -25 19 -65 30 -90 12 -25 28
-60 36 -78 21 -44 92 -116 134 -135 71 -33 126 -41 202 -28 68 12 172 53 227
91 29 20 52 14 103 -24 64 -49 113 -61 242 -61 113 1 124 3 185 32 36 17 91
54 123 82 55 48 77 56 77 27 0 -20 74 -92 121 -117 37 -20 59 -24 134 -24 81
0 95 3 142 29 29 16 60 37 69 47 16 17 18 16 59 -26 34 -35 52 -45 90 -51 79
-11 173 2 210 30 31 24 33 29 39 113 13 167 26 428 26 512 0 79 2 86 35 131
45 62 112 122 153 139 26 11 41 11 71 2 32 -9 41 -18 55 -55 9 -24 16 -67 15
-97 -3 -73 6 -96 40 -104 36 -8 120 25 143 56 21 29 38 157 38 282 0 98 -21
196 -51 238 -24 34 -77 59 -124 59 -79 0 -140 -45 -297 -218 -32 -35 -61 -61
-66 -58 -6 3 -6 24 -1 48 13 67 10 136 -6 167 -17 33 -78 61 -134 61 -57 0
-136 -29 -177 -64 -35 -30 -36 -33 -44 -131 -13 -139 -31 -450 -37 -636 -5
-148 -7 -157 -32 -195 -35 -51 -93 -84 -152 -84 -37 0 -52 6 -82 33 -32 27
-39 43 -52 105 -8 40 -13 90 -10 110 8 56 24 752 18 789 -8 49 -53 73 -139 73
-93 0 -149 -29 -183 -94 -24 -46 -24 -46 -76 -46 -65 0 -196 -25 -250 -48
-275 -115 -409 -345 -378 -648 6 -54 18 -124 26 -154 20 -66 11 -80 -64 -104
-60 -20 -114 -8 -154 34 -23 24 -27 39 -35 141 -5 63 -10 238 -10 389 0 151
-4 302 -10 334 -16 102 -49 150 -122 181 -50 20 -86 19 -140 -5 -68 -30 -95
-62 -136 -160 -6 -14 -22 -50 -35 -80 -13 -30 -34 -80 -47 -110 -12 -30 -26
-64 -30 -75 -66 -155 -81 -185 -92 -179 -4 3 -8 53 -8 112 -1 103 -12 242 -28
348 -15 94 -60 144 -132 144 -63 0 -111 -20 -154 -64 -40 -42 -58 -73 -111
-191 -15 -33 -45 -97 -66 -143 -22 -46 -39 -87 -39 -91 0 -8 -5 -20 -48 -110
-33 -69 -37 -34 -24 188 16 260 15 351 -3 375 -43 56 -121 71 -201 38z m2359
-507 c-3 -227 -33 -348 -103 -429 -78 -88 -158 -87 -227 1 -47 60 -63 113 -63
206 0 123 26 193 104 275 65 69 160 112 241 109 l50 -2 -2 -160z"/>
</g>
</svg>
