<svg xmlns="http://www.w3.org/2000/svg" xml:space="preserve" viewBox="0 0 512 512">
  <path fill="#fc0101" d="M464.18 318.54c-7.67-.57-15.92-2.56-22.6-5.26-1.42-.57-2.56-6.25-3.27-6.54l-1.56-7.53c-.14-6.82-.43-14.21-.57-16.63l-.14-4.26h5.4l.71 5.26c2.56 19.75 13.07 29.7 31.26 29.7 12.08 0 19.47-4.55 23.31-14.07 1.14-2.98 1.42-4.55 1.42-11.8 0-8.24 0-8.38-1.85-12.22-3.41-6.82-6.82-9.24-23.73-15.92-4.97-1.99-10.94-4.55-13.22-5.68-14.78-7.53-22.17-18.05-22.17-31.98 0-17.76 9.95-30.55 27.14-35.24 5.97-1.56 20.61-1.42 26.86.28 5.83 1.71 13.64 4.69 14.5 5.68.28.43.71 5.4.99 11.65.14 5.97.43 12.36.57 14.07l.28 3.13h-5.68l-1.28-6.25c-2.84-14.5-9.52-22.17-21.03-24.16-9.38-1.56-20.61 1.99-25.15 7.96-3.41 4.55-4.41 8.1-4.41 15.35 0 5.68.14 6.54 1.71 9.66 2.13 4.12 5.12 6.82 10.66 9.66 3.84 1.99 17.05 7.25 18.19 7.25.99 0 12.93 5.97 15.92 7.96 8.53 5.68 13.22 13.36 14.92 24.02.85 5.26.85 6.96.28 11.8-1.42 10.94-4.55 17.76-11.37 24.16-8.95 8.38-19.47 11.23-36.09 9.95zm-209.48-.71c-18.76-3.55-27.71-13.5-30.13-33.54-.43-3.13-.57-21.74-.57-48.6V192.2h-14.22v-5.4h46.62v5.4l-7.53.14-7.53.14-.14 38.65c-.28 50.17.28 58.27 4.69 67.22 4.26 8.81 12.65 13.22 25.01 13.22 14.07 0 21.89-5.26 26.15-17.62 2.7-7.82 2.98-12.08 2.98-58.27V192.2h-14.22v-5.4h34.1v5.4h-12.79l-.12 47.32c-.14 46.9-.14 47.47-1.56 52.16-3.84 13.93-11.37 21.6-24.59 25.3-6.11 1.56-19.75 1.98-26.15.85zm73.19-3.41.14-2.56 7.11-.14 7.11-.14.14-59.69.14-59.69-7.25-.14-7.25-.14-.14-2.56-.14-2.56h28.99c18.33 0 30.55.28 33.25.71 10.23 1.56 17.2 6.11 21.03 13.64 3.27 6.4 4.26 14.5 2.7 22.03-1.56 8.1-4.97 13.07-11.65 17.34-4.55 2.98-7.53 4.12-13.07 5.4-2.56.57-4.97 1.28-5.26 1.56-.28.28 1.28.57 3.55.85 22.74 2.27 32.83 12.36 32.83 32.97 0 11.37-2.7 18.62-9.38 25.3-4.12 4.12-8.95 6.82-15.92 8.67-4.41 1.28-5.83 1.28-35.81 1.56l-31.12.14v-2.55zm53.86-3.84c10.09-2.7 16.77-9.66 19.04-19.75 1.42-6.4.99-18.05-.99-23.02-2.27-6.11-6.11-10.94-10.8-13.64-4.69-2.7-8.1-3.27-19.04-3.27h-10.23v60.54h9.38c6.25.13 10.23-.15 12.64-.86zm-.14-66.37c9.81-3.13 15.49-12.93 15.35-26.29-.14-13.93-7.11-24.02-17.91-25.58-1.71-.28-6.82-.43-11.23-.28l-8.1.14v26.29c0 14.5.14 26.43.43 26.72.71.85 18.48 0 21.46-1z"/>
  <path fill="#010101" d="M86.44 353.78c-1.85-.57-1.99-.71-1.99-3.69 0-3.13 0-3.27-1.85-3.55-3.55-.71-9.52-3.41-12.36-5.68-10.37-8.24-13.93-21.03-9.24-33.4 2.98-7.96 11.23-14.92 20.18-17.34 4.26-1.14 4.12-2.42-.43-2.7l-3.55-.28v-5.96l3.69-.14 3.69-.14v-15.06c0-8.24-.14-15.06-.28-15.06s-4.55 3.55-9.95 7.82c-5.26 4.26-10.37 8.38-11.23 9.1-.85.71-1.56 1.56-1.56 1.85 0 .28.85 1.56 1.99 2.84 1.99 2.27 1.99 2.42.99 3.98-.57.85-1.71 1.85-2.56 2.13-1.42.57-1.85.28-3.98-2.27-1.71-1.99-2.56-2.56-2.98-2.13-.43.43-.14 1.71 1.28 4.69 1.71 3.55 1.99 4.83 2.13 10.09.28 4.97 0 6.82-.99 10.09-2.84 9.24-9.52 15.92-18.62 18.76-3.27.99-5.12 1.14-9.81.99-6.54-.28-10.23-1.56-15.63-5.26-1.85-1.28-3.55-2.27-3.84-2.27-.28 0-1.42.85-2.42 1.71-1.85 1.56-2.13 1.71-3.69.85-1.56-.85-3.41-3.55-3.41-5.12 0-.43.99-1.56 2.13-2.56l2.13-1.85-1.56-3.69c-6.96-16.06.14-33.54 15.92-39.37 2.84-.99 4.69-1.28 9.66-1.28 7.25.14 10.94 1.14 16.91 5.26 4.83 3.27 5.97 2.7 2.84-1.28-2.13-2.7-2.27-2.84-1.28-4.41.57-.85 1.71-1.85 2.56-2.13 1.42-.57 1.85-.28 3.98 2.27l2.42 2.84 12.65-10.37c6.96-5.68 12.65-10.66 12.65-10.94s-5.54-5.12-12.36-10.66l-12.36-10.09-1.56 1.56c-2.13 1.99-1.99 3.13.14 4.83 2.13 1.56 2.13 1.85.14 4.26l-1.56 1.85-1.84-1.87c-2.27-2.13-2.42-2.13-3.98-.43-2.42 2.84-2.42 3.13-.28 4.69 1.14.71 1.99 1.71 1.99 2.13 0 .71-2.27 3.84-2.84 3.84s-11.51-8.81-11.8-9.52c-.14-.28 2.56-1.99 6.11-3.84 3.41-1.85 6.25-3.69 6.25-3.84 0-.28-.71-.99-1.71-1.71l-1.71-1.28-5.68 3.27c-3.13 1.85-5.83 3.13-5.97 3.13-.14-.14.71-3.13 1.85-6.54l1.99-6.4-1.56-1.14c-.85-.71-1.71-1.14-2.13-.99-.28.14-1.42 3.13-2.56 6.68-1.14 3.55-2.13 6.54-2.27 6.68-.28.28-12.08-9.38-12.08-9.81 0-.57 2.7-3.69 3.13-3.69.28 0 1.42.71 2.56 1.56l2.13 1.56 1.71-1.85c.99-.99 1.71-1.99 1.71-2.27s-.99-1.28-2.13-2.27l-2.13-1.85 1.42-1.85c1.71-2.27 1.99-2.27 4.26-.43.99.85 1.99 1.42 2.13 1.42.57 0 3.55-3.41 3.55-3.98 0-.28-2.27-2.13-4.97-4.26-5.54-4.26-5.97-5.26-3.55-8.24 3.13-3.69.14-5.54 35.1 22.88 18.9 15.35 23.59 19.19 23.87 19.19.14 0 .28-6.82.28-15.21v-15.21h-5.96v5.96h-5.4v-5.96H67v5.96h-5.4v-16.2l2.84 1.14c1.56.57 4.55 1.85 6.54 2.7 2.13.85 3.98 1.56 4.26 1.56.28 0 .43-.99.43-2.27v-2.27l-6.54-2.56-6.54-2.56 6.54-2.7 6.54-2.7v-2.27c0-1.28-.14-2.27-.28-2.27s-2.98 1.14-6.4 2.42c-3.27 1.28-6.4 2.56-6.82 2.7-.57.28-.71-1.56-.71-7.82v-8.1h5.4v5.96h5.96v-5.96h5.4v5.96h5.96V158.5l2.27-.57c1.56-.43 2.84-.43 4.12 0l1.85.71v36.52c0 30.84.14 36.52.85 36.24.71-.28 16.91-13.22 44.62-35.95 4.97-4.12 9.52-7.67 9.95-7.96 1.14-.71 2.98.14 4.12 1.85 2.42 3.55 2.27 3.84-3.13 8.24-2.84 2.27-4.97 4.26-4.97 4.55 0 .71 2.56 3.98 3.13 3.98.28 0 1.42-.71 2.56-1.56l2.13-1.56 1.71 1.99 1.71 1.99-2.27 2.13-2.27 2.13 1.85 1.99c1.28 1.42 2.13 1.85 2.56 1.42 3.98-2.98 3.84-2.98 5.26-1.42.71.85 1.42 1.71 1.56 2.13.14.71-11.23 10.37-11.94 9.95-.28-.14-1.28-3.13-2.42-6.82-1.14-3.69-2.27-6.54-2.56-6.54s-1.28.57-1.99 1.14l-1.42 1.14 1.99 6.54c1.14 3.55 1.85 6.54 1.71 6.54s-2.98-1.56-6.11-3.27l-5.83-3.27-1.71 1.71-1.71 1.71 3.69 1.99c1.99 1.14 4.97 2.84 6.54 3.69l2.84 1.56-6.11 5.12-6.11 5.12-1.71-2.13-1.71-2.13 2.27-1.85 2.27-1.85-1.71-2.13c-.85-1.14-1.85-2.13-1.99-2.13-.14 0-1.28.85-2.56 1.85l-2.27 1.85-1.56-2.13-1.56-2.13 2.27-1.99 2.27-1.99-1.71-2.13c-1.42-1.85-1.85-1.99-2.7-1.42-2.56 1.85-24.59 19.75-24.59 20.04 0 .14 1.56 1.56 3.41 2.98s7.67 6.25 13.07 10.52c5.26 4.26 9.66 7.82 9.81 7.82.14 0 1.14-1.14 2.13-2.7 2.27-3.13 3.55-3.41 5.97-.85l1.85 1.85-1.56 1.85c-1.99 2.42-2.98 4.55-2.42 4.97.28.28.71.14 1.14-.14 3.98-2.98 8.67-5.68 11.23-6.4 14.64-4.12 27.85 1.42 34.25 14.35l2.56 5.12v7.53c0 7.67 0 7.96-3.55 15.77-.14.28.85 1.42 2.13 2.42 1.99 1.42 2.27 1.99 1.99 3.27-.43 1.56-2.27 3.98-3.98 4.83-.85.43-1.56.14-3.41-1.56l-2.42-2.13-2.7 2.13c-5.54 4.26-11.23 6.11-18.19 6.11-8.24 0-14.07-2.42-19.47-7.96-4.12-4.26-6.4-8.24-7.67-13.5-1.56-6.68-.99-12.51 1.85-19.19 1.14-2.56 1.28-3.55.85-4.12-.43-.43-.99-.28-1.85.71-3.55 4.55-3.27 4.41-5.26 3.27-.99-.57-2.13-1.56-2.56-2.13-.71-1.28-.57-1.56 2.42-5.4l1.14-1.56-11.23-9.1c-6.11-4.97-11.51-9.24-11.8-9.38-.43-.14-.57 4.69-.43 14.78l.14 15.06 3.55.14c3.84.14 4.41.71 4.41 3.41s-.57 3.13-4.41 3.41c-4.97.28-4.69 1.42.99 3.13 7.39 2.13 12.79 6.11 16.91 12.51 5.12 7.82 5.68 18.9 1.42 27.71-2.84 5.97-10.66 12.65-17.05 14.5-6.11 1.85-5.97 1.71-5.97 4.97 0 2.7-.14 2.98-1.85 3.55-2.24.55-1.96.55-4.66-.16zm-1.7-17.05c.14-2.42.28-2.7 2.13-3.27 1.14-.28 2.7-.28 3.84 0 1.71.57 1.99.71 2.27 3.55.28 2.7.43 2.98 1.71 2.84 2.84-.28 8.67-3.69 11.51-6.68 4.26-4.69 5.83-8.67 5.97-15.06 0-2.98-.28-6.4-.71-7.53-2.84-8.38-13.22-10.8-17.62-4.12-2.7 3.98-1.14 10.23 2.98 12.36 1.85.99 6.11.99 8.24 0 .85-.43.99-.14.99 2.84 0 3.13-.14 3.27-1.85 3.98-4.26 1.42-10.66 0-13.22-2.98-.85-.99-1.56-1.71-1.71-1.71-.14 0-1.14.85-2.27 1.99-3.27 3.13-8.1 4.12-12.93 2.7l-2.27-.71v-3.55c0-2.84.14-3.13.99-2.7.57.28 2.7.57 4.69.57 3.27 0 3.84-.14 5.54-1.71 3.69-3.55 3.55-9.38 0-12.79-5.4-5.12-14.5-.85-16.49 7.82-2.13 8.95 1.42 18.76 8.67 23.73 2.98 1.99 8.53 4.26 9.1 3.55.01-.28.3-1.7.44-3.12zM37.7 311.15c6.25-2.27 11.94-7.53 13.22-12.65 1.14-4.12.28-7.53-2.7-10.37-2.27-2.27-2.84-2.56-5.26-2.56-4.69 0-8.24 2.84-8.95 7.39-.43 3.13 1.56 7.11 4.55 8.53l2.27 1.14-2.42 1.85c-1.28.99-2.84 1.85-3.27 1.85-.43 0-1.99-1.14-3.41-2.42-3.27-2.98-4.69-6.68-4.26-10.23l.43-2.56-2.98-.43c-4.41-.57-8.95-4.26-10.66-8.95-.57-1.42-.43-1.85 1.56-3.55 1.28-1.14 2.42-1.99 2.56-1.99.14 0 .71.99.99 2.27.85 3.13 4.69 5.68 8.1 5.68 4.69 0 8.53-3.98 8.53-8.67 0-5.12-4.41-8.81-10.37-8.81-10.94 0-20.46 12.79-18.47 25.01.71 4.12 1.99 7.67 2.84 7.67.28 0 1.42-.71 2.42-1.56 1.71-1.42 1.85-1.42 3.55-.57.99.57 2.27 1.85 2.84 2.98l.99 2.13-2.13 1.99c-1.28 1.14-2.13 2.13-2.13 2.27 0 .71 6.4 4.26 8.81 4.83 4.11 1.15 9.65 1.01 13.35-.27zm118.66-.86c1.99-.85 4.12-2.13 4.69-2.84.99-1.14.99-1.28-.85-2.84-2.27-1.85-2.42-3.41-.71-5.54 2.27-2.84 3.27-3.13 5.97-.99l2.27 1.85 1.28-2.84c1.14-2.42 1.28-3.98 1.28-8.81 0-5.26-.14-6.25-1.71-9.38-2.56-5.12-6.82-9.66-10.8-11.08-6.96-2.56-12.93-.99-15.49 4.26-1.85 3.69-1.42 6.25 1.71 9.24 3.84 3.84 8.81 3.84 12.36-.28.99-1.14 1.85-2.7 1.85-3.55 0-1.85.43-1.85 3.13.43 2.56 2.13 2.7 2.7 1.14 5.83-1.99 3.84-6.11 6.68-10.23 6.82l-2.42.14.43 2.56c.57 3.84-.71 7.25-3.98 10.37-1.56 1.56-3.27 2.84-3.69 2.84-.57 0-1.99-.85-3.27-1.85l-2.27-1.85 1.71-.71c2.84-1.28 4.41-3.55 4.69-6.82.43-3.84-.99-6.68-4.12-8.24-4.55-2.27-8.95-1.14-11.51 3.41-3.55 6.11-.14 14.35 7.82 19.04 4.12 2.42 7.11 3.13 12.22 2.98 3.81-.44 5.8-.87 8.5-2.15z"/>
</svg>
