<?xml version="1.0" encoding="utf-8"?>
<!-- Generator: Adobe Illustrator 27.0.0, SVG Export Plug-In . SVG Version: 6.00 Build 0)  -->
<svg version="1.1" id="Layer_1" xmlns="http://www.w3.org/2000/svg" xmlns:xlink="http://www.w3.org/1999/xlink" x="0px" y="0px"
	 viewBox="0 0 512 512" style="enable-background:new 0 0 512 512;" xml:space="preserve">
<style type="text/css">
	.st0{fill:#FC0101;}
	.st1{fill:#010101;}
</style>
<g id="XMLID_24_">
	<path id="XMLID_34_" class="st0" d="M464.18,318.54c-7.67-0.57-15.92-2.56-22.6-5.26c-1.42-0.57-2.56-6.25-3.27-6.54l-1.56-7.53
		c-0.14-6.82-0.43-14.21-0.57-16.63l-0.14-4.26h2.7h2.7l0.71,5.26c2.56,19.75,13.07,29.7,31.26,29.7c12.08,0,19.47-4.55,23.31-14.07
		c1.14-2.98,1.42-4.55,1.42-11.8c0-8.24,0-8.38-1.85-12.22c-3.41-6.82-6.82-9.24-23.73-15.92c-4.97-1.99-10.94-4.55-13.22-5.68
		c-14.78-7.53-22.17-18.05-22.17-31.98c0-17.76,9.95-30.55,27.14-35.24c5.97-1.56,20.61-1.42,26.86,0.28
		c5.83,1.71,13.64,4.69,14.5,5.68c0.28,0.43,0.71,5.4,0.99,11.65c0.14,5.97,0.43,12.36,0.57,14.07l0.28,3.13h-2.84h-2.84l-1.28-6.25
		c-2.84-14.5-9.52-22.17-21.03-24.16c-9.38-1.56-20.61,1.99-25.15,7.96c-3.41,4.55-4.41,8.1-4.41,15.35c0,5.68,0.14,6.54,1.71,9.66
		c2.13,4.12,5.12,6.82,10.66,9.66c3.84,1.99,17.05,7.25,18.19,7.25c0.99,0,12.93,5.97,15.92,7.96c8.53,5.68,13.22,13.36,14.92,24.02
		c0.85,5.26,0.85,6.96,0.28,11.8c-1.42,10.94-4.55,17.76-11.37,24.16C491.32,316.97,480.8,319.82,464.18,318.54z M254.7,317.83
		c-18.76-3.55-27.71-13.5-30.13-33.54c-0.43-3.13-0.57-21.74-0.57-48.6V192.2h-7.11h-7.11v-2.7v-2.7h23.31h23.31v2.7v2.7l-7.53,0.14
		l-7.53,0.14l-0.14,38.65c-0.28,50.17,0.28,58.27,4.69,67.22c4.26,8.81,12.65,13.22,25.01,13.22c14.07,0,21.89-5.26,26.15-17.62
		c2.7-7.82,2.98-12.08,2.98-58.27V192.2h-7.11h-7.11v-2.7v-2.7h17.05h17.05v2.7v2.7h-6.54h-6.25L307,239.52
		c-0.14,46.9-0.14,47.47-1.56,52.16c-3.84,13.93-11.37,21.6-24.59,25.3C274.74,318.54,261.1,318.96,254.7,317.83z M327.89,314.42
		l0.14-2.56l7.11-0.14l7.11-0.14l0.14-59.69l0.14-59.69l-7.25-0.14l-7.25-0.14l-0.14-2.56l-0.14-2.56h28.99
		c18.33,0,30.55,0.28,33.25,0.71c10.23,1.56,17.2,6.11,21.03,13.64c3.27,6.4,4.26,14.5,2.7,22.03c-1.56,8.1-4.97,13.07-11.65,17.34
		c-4.55,2.98-7.53,4.12-13.07,5.4c-2.56,0.57-4.97,1.28-5.26,1.56c-0.28,0.28,1.28,0.57,3.55,0.85
		c22.74,2.27,32.83,12.36,32.83,32.97c0,11.37-2.7,18.62-9.38,25.3c-4.12,4.12-8.95,6.82-15.92,8.67
		c-4.41,1.28-5.83,1.28-35.81,1.56l-31.12,0.14L327.89,314.42z M381.75,310.58c10.09-2.7,16.77-9.66,19.04-19.75
		c1.42-6.4,0.99-18.05-0.99-23.02c-2.27-6.11-6.11-10.94-10.8-13.64c-4.69-2.7-8.1-3.27-19.04-3.27h-10.23v30.27v30.27h9.38
		C375.36,311.57,379.34,311.29,381.75,310.58z M381.61,244.21c9.81-3.13,15.49-12.93,15.35-26.29
		c-0.14-13.93-7.11-24.02-17.91-25.58c-1.71-0.28-6.82-0.43-11.23-0.28l-8.1,0.14v26.29c0,14.5,0.14,26.43,0.43,26.72
		C360.86,246.06,378.63,245.21,381.61,244.21z"/>
	<path id="XMLID_39_" class="st1" d="M86.44,353.78c-1.85-0.57-1.99-0.71-1.99-3.69c0-3.13,0-3.27-1.85-3.55
		c-3.55-0.71-9.52-3.41-12.36-5.68c-10.37-8.24-13.93-21.03-9.24-33.4c2.98-7.96,11.23-14.92,20.18-17.34
		c4.26-1.14,4.12-2.42-0.43-2.7l-3.55-0.28v-2.98v-2.98l3.69-0.14l3.69-0.14v-15.06c0-8.24-0.14-15.06-0.28-15.06
		s-4.55,3.55-9.95,7.82c-5.26,4.26-10.37,8.38-11.23,9.1c-0.85,0.71-1.56,1.56-1.56,1.85c0,0.28,0.85,1.56,1.99,2.84
		c1.99,2.27,1.99,2.42,0.99,3.98c-0.57,0.85-1.71,1.85-2.56,2.13c-1.42,0.57-1.85,0.28-3.98-2.27c-1.71-1.99-2.56-2.56-2.98-2.13
		c-0.43,0.43-0.14,1.71,1.28,4.69c1.71,3.55,1.99,4.83,2.13,10.09c0.28,4.97,0,6.82-0.99,10.09c-2.84,9.24-9.52,15.92-18.62,18.76
		c-3.27,0.99-5.12,1.14-9.81,0.99c-6.54-0.28-10.23-1.56-15.63-5.26c-1.85-1.28-3.55-2.27-3.84-2.27c-0.28,0-1.42,0.85-2.42,1.71
		c-1.85,1.56-2.13,1.71-3.69,0.85c-1.56-0.85-3.41-3.55-3.41-5.12c0-0.43,0.99-1.56,2.13-2.56l2.13-1.85l-1.56-3.69
		c-6.96-16.06,0.14-33.54,15.92-39.37c2.84-0.99,4.69-1.28,9.66-1.28c7.25,0.14,10.94,1.14,16.91,5.26c4.83,3.27,5.97,2.7,2.84-1.28
		c-2.13-2.7-2.27-2.84-1.28-4.41c0.57-0.85,1.71-1.85,2.56-2.13c1.42-0.57,1.85-0.28,3.98,2.27l2.42,2.84l12.65-10.37
		c6.96-5.68,12.65-10.66,12.65-10.94s-5.54-5.12-12.36-10.66l-12.36-10.09l-1.56,1.56c-2.13,1.99-1.99,3.13,0.14,4.83
		c2.13,1.56,2.13,1.85,0.14,4.26l-1.56,1.85L51.63,231c-2.27-2.13-2.42-2.13-3.98-0.43c-2.42,2.84-2.42,3.13-0.28,4.69
		c1.14,0.71,1.99,1.71,1.99,2.13c0,0.71-2.27,3.84-2.84,3.84s-11.51-8.81-11.8-9.52c-0.14-0.28,2.56-1.99,6.11-3.84
		c3.41-1.85,6.25-3.69,6.25-3.84c0-0.28-0.71-0.99-1.71-1.71l-1.71-1.28l-5.68,3.27c-3.13,1.85-5.83,3.13-5.97,3.13
		c-0.14-0.14,0.71-3.13,1.85-6.54l1.99-6.4l-1.56-1.14c-0.85-0.71-1.71-1.14-2.13-0.99c-0.28,0.14-1.42,3.13-2.56,6.68
		c-1.14,3.55-2.13,6.54-2.27,6.68c-0.28,0.28-12.08-9.38-12.08-9.81c0-0.57,2.7-3.69,3.13-3.69c0.28,0,1.42,0.71,2.56,1.56
		l2.13,1.56l1.71-1.85c0.99-0.99,1.71-1.99,1.71-2.27c0-0.28-0.99-1.28-2.13-2.27l-2.13-1.85l1.42-1.85
		c1.71-2.27,1.99-2.27,4.26-0.43c0.99,0.85,1.99,1.42,2.13,1.42c0.57,0,3.55-3.41,3.55-3.98c0-0.28-2.27-2.13-4.97-4.26
		c-5.54-4.26-5.97-5.26-3.55-8.24c3.13-3.69,0.14-5.54,35.1,22.88c18.9,15.35,23.59,19.19,23.87,19.19c0.14,0,0.28-6.82,0.28-15.21
		v-15.21h-2.98h-2.98v2.98v2.98h-2.7h-2.7v-2.98v-2.98h-2.98h-2.98v2.98v2.98h-2.7h-2.7v-8.24v-7.96l2.84,1.14
		c1.56,0.57,4.55,1.85,6.54,2.7c2.13,0.85,3.98,1.56,4.26,1.56c0.28,0,0.43-0.99,0.43-2.27v-2.27l-6.54-2.56l-6.54-2.56l6.54-2.7
		l6.54-2.7v-2.27c0-1.28-0.14-2.27-0.28-2.27c-0.14,0-2.98,1.14-6.4,2.42c-3.27,1.28-6.4,2.56-6.82,2.7
		c-0.57,0.28-0.71-1.56-0.71-7.82v-8.1h2.7h2.7v2.98v2.98h2.98h2.98v-2.98v-2.98h2.7h2.7v2.98v2.98h2.98h2.98v-6.82v-6.82l2.27-0.57
		c1.56-0.43,2.84-0.43,4.12,0l1.85,0.71v36.52c0,30.84,0.14,36.52,0.85,36.24c0.71-0.28,16.91-13.22,44.62-35.95
		c4.97-4.12,9.52-7.67,9.95-7.96c1.14-0.71,2.98,0.14,4.12,1.85c2.42,3.55,2.27,3.84-3.13,8.24c-2.84,2.27-4.97,4.26-4.97,4.55
		c0,0.71,2.56,3.98,3.13,3.98c0.28,0,1.42-0.71,2.56-1.56l2.13-1.56l1.71,1.99l1.71,1.99l-2.27,2.13l-2.27,2.13l1.85,1.99
		c1.28,1.42,2.13,1.85,2.56,1.42c3.98-2.98,3.84-2.98,5.26-1.42c0.71,0.85,1.42,1.71,1.56,2.13c0.14,0.71-11.23,10.37-11.94,9.95
		c-0.28-0.14-1.28-3.13-2.42-6.82c-1.14-3.69-2.27-6.54-2.56-6.54s-1.28,0.57-1.99,1.14l-1.42,1.14l1.99,6.54
		c1.14,3.55,1.85,6.54,1.71,6.54s-2.98-1.56-6.11-3.27l-5.83-3.27l-1.71,1.71l-1.71,1.71l3.69,1.99c1.99,1.14,4.97,2.84,6.54,3.69
		l2.84,1.56l-6.11,5.12l-6.11,5.12l-1.71-2.13l-1.71-2.13l2.27-1.85l2.27-1.85l-1.71-2.13c-0.85-1.14-1.85-2.13-1.99-2.13
		c-0.14,0-1.28,0.85-2.56,1.85l-2.27,1.85l-1.56-2.13l-1.56-2.13l2.27-1.99l2.27-1.99l-1.71-2.13c-1.42-1.85-1.85-1.99-2.7-1.42
		c-2.56,1.85-24.59,19.75-24.59,20.04c0,0.14,1.56,1.56,3.41,2.98c1.85,1.42,7.67,6.25,13.07,10.52c5.26,4.26,9.66,7.82,9.81,7.82
		c0.14,0,1.14-1.14,2.13-2.7c2.27-3.13,3.55-3.41,5.97-0.85l1.85,1.85l-1.56,1.85c-1.99,2.42-2.98,4.55-2.42,4.97
		c0.28,0.28,0.71,0.14,1.14-0.14c3.98-2.98,8.67-5.68,11.23-6.4c14.64-4.12,27.85,1.42,34.25,14.35l2.56,5.12v7.53
		c0,7.67,0,7.96-3.55,15.77c-0.14,0.28,0.85,1.42,2.13,2.42c1.99,1.42,2.27,1.99,1.99,3.27c-0.43,1.56-2.27,3.98-3.98,4.83
		c-0.85,0.43-1.56,0.14-3.41-1.56l-2.42-2.13l-2.7,2.13c-5.54,4.26-11.23,6.11-18.19,6.11c-8.24,0-14.07-2.42-19.47-7.96
		c-4.12-4.26-6.4-8.24-7.67-13.5c-1.56-6.68-0.99-12.51,1.85-19.19c1.14-2.56,1.28-3.55,0.85-4.12c-0.43-0.43-0.99-0.28-1.85,0.71
		c-3.55,4.55-3.27,4.41-5.26,3.27c-0.99-0.57-2.13-1.56-2.56-2.13c-0.71-1.28-0.57-1.56,2.42-5.4l1.14-1.56l-11.23-9.1
		c-6.11-4.97-11.51-9.24-11.8-9.38c-0.43-0.14-0.57,4.69-0.43,14.78l0.14,15.06l3.55,0.14c3.84,0.14,4.41,0.71,4.41,3.41
		c0,2.7-0.57,3.13-4.41,3.41c-4.97,0.28-4.69,1.42,0.99,3.13c7.39,2.13,12.79,6.11,16.91,12.51c5.12,7.82,5.68,18.9,1.42,27.71
		c-2.84,5.97-10.66,12.65-17.05,14.5c-6.11,1.85-5.97,1.71-5.97,4.97c0,2.7-0.14,2.98-1.85,3.55
		C88.86,354.49,89.14,354.49,86.44,353.78z M84.74,336.73c0.14-2.42,0.28-2.7,2.13-3.27c1.14-0.28,2.7-0.28,3.84,0
		c1.71,0.57,1.99,0.71,2.27,3.55c0.28,2.7,0.43,2.98,1.71,2.84c2.84-0.28,8.67-3.69,11.51-6.68c4.26-4.69,5.83-8.67,5.97-15.06
		c0-2.98-0.28-6.4-0.71-7.53c-2.84-8.38-13.22-10.8-17.62-4.12c-2.7,3.98-1.14,10.23,2.98,12.36c1.85,0.99,6.11,0.99,8.24,0
		c0.85-0.43,0.99-0.14,0.99,2.84c0,3.13-0.14,3.27-1.85,3.98c-4.26,1.42-10.66,0-13.22-2.98c-0.85-0.99-1.56-1.71-1.71-1.71
		c-0.14,0-1.14,0.85-2.27,1.99c-3.27,3.13-8.1,4.12-12.93,2.7l-2.27-0.71v-3.55c0-2.84,0.14-3.13,0.99-2.7
		c0.57,0.28,2.7,0.57,4.69,0.57c3.27,0,3.84-0.14,5.54-1.71c3.69-3.55,3.55-9.38,0-12.79c-5.4-5.12-14.5-0.85-16.49,7.82
		c-2.13,8.95,1.42,18.76,8.67,23.73c2.98,1.99,8.53,4.26,9.1,3.55C84.31,339.57,84.6,338.15,84.74,336.73z M37.7,311.15
		c6.25-2.27,11.94-7.53,13.22-12.65c1.14-4.12,0.28-7.53-2.7-10.37c-2.27-2.27-2.84-2.56-5.26-2.56c-4.69,0-8.24,2.84-8.95,7.39
		c-0.43,3.13,1.56,7.11,4.55,8.53l2.27,1.14l-2.42,1.85c-1.28,0.99-2.84,1.85-3.27,1.85c-0.43,0-1.99-1.14-3.41-2.42
		c-3.27-2.98-4.69-6.68-4.26-10.23l0.43-2.56l-2.98-0.43c-4.41-0.57-8.95-4.26-10.66-8.95c-0.57-1.42-0.43-1.85,1.56-3.55
		c1.28-1.14,2.42-1.99,2.56-1.99c0.14,0,0.71,0.99,0.99,2.27c0.85,3.13,4.69,5.68,8.1,5.68c4.69,0,8.53-3.98,8.53-8.67
		c0-5.12-4.41-8.81-10.37-8.81c-10.94,0-20.46,12.79-18.47,25.01c0.71,4.12,1.99,7.67,2.84,7.67c0.28,0,1.42-0.71,2.42-1.56
		c1.71-1.42,1.85-1.42,3.55-0.57c0.99,0.57,2.27,1.85,2.84,2.98l0.99,2.13l-2.13,1.99c-1.28,1.14-2.13,2.13-2.13,2.27
		c0,0.71,6.4,4.26,8.81,4.83C28.46,312.57,34,312.43,37.7,311.15z M156.36,310.29c1.99-0.85,4.12-2.13,4.69-2.84
		c0.99-1.14,0.99-1.28-0.85-2.84c-2.27-1.85-2.42-3.41-0.71-5.54c2.27-2.84,3.27-3.13,5.97-0.99l2.27,1.85l1.28-2.84
		c1.14-2.42,1.28-3.98,1.28-8.81c0-5.26-0.14-6.25-1.71-9.38c-2.56-5.12-6.82-9.66-10.8-11.08c-6.96-2.56-12.93-0.99-15.49,4.26
		c-1.85,3.69-1.42,6.25,1.71,9.24c3.84,3.84,8.81,3.84,12.36-0.28c0.99-1.14,1.85-2.7,1.85-3.55c0-1.85,0.43-1.85,3.13,0.43
		c2.56,2.13,2.7,2.7,1.14,5.83c-1.99,3.84-6.11,6.68-10.23,6.82l-2.42,0.14l0.43,2.56c0.57,3.84-0.71,7.25-3.98,10.37
		c-1.56,1.56-3.27,2.84-3.69,2.84c-0.57,0-1.99-0.85-3.27-1.85l-2.27-1.85l1.71-0.71c2.84-1.28,4.41-3.55,4.69-6.82
		c0.43-3.84-0.99-6.68-4.12-8.24c-4.55-2.27-8.95-1.14-11.51,3.41c-3.55,6.11-0.14,14.35,7.82,19.04c4.12,2.42,7.11,3.13,12.22,2.98
		C151.67,312,153.66,311.57,156.36,310.29z"/>
</g>
</svg>
